<svg width="36" height="36" viewBox="0 0 36 36" fill="none" xmlns="http://www.w3.org/2000/svg">
    <g clip-path="url(#clip0_7997_2029)">
        <path d="M36 36H0L0 0L36 0V36Z" fill="white" />
        <path d="M36 36H0L0 0L36 0V36Z" fill="url(#paint0_linear_7997_2029)" fill-opacity="0.25" />
        <path
            d="M24.2888 14.4784C24.2888 14.4609 24.2877 14.4445 24.2855 14.4281C24.2855 14.4106 24.2833 14.3942 24.2822 14.3777C24.2811 14.3613 24.28 14.3449 24.2778 14.3285C24.2767 14.3121 24.2745 14.2957 24.2723 14.2793C24.269 14.2464 24.2635 14.2147 24.258 14.183C24.2471 14.1195 24.2339 14.0582 24.2174 13.997C24.1954 13.9171 24.1691 13.8383 24.1394 13.7628C24.1131 13.6961 24.0834 13.6315 24.0505 13.5692C24.0175 13.5068 23.9824 13.4477 23.944 13.3886C23.9055 13.3317 23.8649 13.2748 23.821 13.2223C23.777 13.1687 23.7309 13.1173 23.6826 13.068C23.5717 12.9564 23.4487 12.8569 23.3169 12.7715C22.613 12.3131 21.6466 12.2485 20.8482 12.7562C20.6736 12.8678 20.5011 12.975 20.3309 13.0834C20.3156 13.0932 20.3002 13.103 20.2848 13.1129C20.2705 13.1227 20.2562 13.1326 20.2409 13.1435H20.2365C20.1871 13.1753 20.1409 13.2059 20.0937 13.2354C20.0926 13.2354 20.0904 13.2365 20.0893 13.2387C20.0882 13.2376 20.0882 13.2387 20.0871 13.2398L20.0718 13.2486C20.0718 13.2486 20.0674 13.2529 20.0619 13.2551C19.7006 13.486 19.3382 13.7169 18.9747 13.9466C18.9318 13.9806 18.8846 14.0101 18.8352 14.0353C18.71 14.1009 18.5672 14.137 18.4168 14.137C18.0566 14.137 17.7458 13.9302 17.5964 13.6282L17.5932 13.6217C17.5855 13.602 17.5767 13.5823 17.5679 13.5637L17.5646 13.5571C17.3933 13.1971 17.1385 12.8853 16.8233 12.6468C16.8101 12.6358 16.797 12.6249 16.7838 12.6161C16.7003 12.5538 16.6136 12.498 16.5235 12.4466C16.5213 12.4466 16.5191 12.4455 16.5169 12.4433L16.5136 12.44C16.5136 12.44 16.5114 12.44 16.5103 12.4378H16.5059C16.4653 12.4148 16.4214 12.3918 16.3775 12.3711C16.3335 12.3503 16.2896 12.3317 16.2446 12.3131C16.2347 12.3087 16.2237 12.3043 16.2127 12.301C16.2017 12.2977 16.1919 12.2945 16.182 12.2912C16.171 12.2868 16.1611 12.2824 16.1501 12.2791C16.126 12.2704 16.1007 12.2616 16.0755 12.254C16.0392 12.2419 16.0019 12.231 15.9667 12.2212C15.9404 12.2124 15.9129 12.2058 15.8888 12.2015C15.8174 12.184 15.7438 12.1708 15.6713 12.1588C15.645 12.1544 15.6208 12.15 15.5955 12.1478C15.5 12.1369 15.4034 12.1303 15.3045 12.1303H7.00005V24.5501C7.00005 25.9047 8.10044 27 9.46109 27H20.0125C20.1113 27 20.2079 26.9934 20.3035 26.9824C20.3287 26.9803 20.3529 26.9759 20.3792 26.9715C20.3847 26.9704 20.3891 26.9693 20.3946 26.9682C20.4616 26.9573 20.5308 26.9452 20.5967 26.9288C20.6077 26.9266 20.6187 26.9245 20.6307 26.9223C20.634 26.9212 20.6373 26.9201 20.6406 26.919C20.6516 26.9168 20.6637 26.9124 20.6747 26.9091C20.7098 26.8993 20.7471 26.8884 20.7834 26.8763C20.8086 26.8687 20.8339 26.8599 20.8581 26.8511C20.869 26.8479 20.8789 26.8435 20.8899 26.8391C20.8998 26.8358 20.9097 26.8325 20.9207 26.8293C20.925 26.8282 20.9294 26.826 20.9338 26.8249C20.9393 26.8227 20.9448 26.8194 20.9503 26.8172C20.9635 26.8118 20.9778 26.8063 20.9909 26.8008C21.0228 26.7877 21.0535 26.7746 21.0854 26.7592C21.1073 26.7483 21.1293 26.7374 21.1513 26.7264C21.1721 26.7155 21.1941 26.7045 21.2139 26.6925H21.2183C21.2183 26.6925 21.2205 26.6914 21.2216 26.6903L21.2248 26.687C21.2248 26.687 21.2281 26.6837 21.2292 26.6837C21.2468 26.675 21.2633 26.6651 21.2798 26.6553C21.3522 26.6115 21.4236 26.5656 21.4917 26.5141C21.4983 26.5098 21.5049 26.5054 21.5115 26.4999C21.5181 26.4945 21.5247 26.489 21.5312 26.4835C21.6103 26.4244 21.685 26.3599 21.7564 26.2909C21.786 26.2625 21.8146 26.2329 21.8431 26.2023C21.8563 26.1892 21.8684 26.1761 21.8805 26.1618C21.8914 26.1498 21.9024 26.1367 21.9134 26.1235C21.9475 26.0852 21.9793 26.0448 22.0101 26.0032C22.0133 25.9999 22.0166 25.9966 22.0177 25.9933C22.0331 25.9736 22.0474 25.9539 22.0617 25.9342C22.0847 25.9014 22.1067 25.8686 22.1287 25.8347C22.1583 25.7876 22.1869 25.7384 22.2132 25.6881C22.2264 25.6651 22.2385 25.6421 22.2495 25.618C22.2681 25.5819 22.2846 25.5458 22.3011 25.5086L22.3044 25.5021C22.4537 25.2001 22.7645 24.9933 23.1247 24.9933C23.2752 24.9933 23.4179 25.0294 23.5431 25.095C23.5475 25.0972 23.5519 25.0994 23.5563 25.1027C23.5958 25.1235 23.6343 25.1464 23.6694 25.1738C23.8781 25.3062 24.0845 25.4386 24.2921 25.5699V14.5802C24.2921 14.5462 24.291 14.5112 24.2888 14.4784ZM18.2795 14.3504C18.3059 14.3427 18.3322 14.3329 18.3586 14.3219C18.3322 14.334 18.3059 14.3438 18.2795 14.3515C18.2685 14.3548 18.2576 14.357 18.2466 14.3591C18.2576 14.357 18.2685 14.3537 18.2795 14.3504Z"
            fill="url(#paint1_radial_7997_2029)"
        />
        <path
            d="M28.9999 11.4487V24.5502C28.9999 24.6191 28.9955 24.6859 28.9912 24.7526C28.855 26.3971 26.9496 27.2637 25.556 26.3742L24.7796 25.8818C24.7796 25.8818 24.7752 25.8774 24.7708 25.8752C24.6116 25.7735 24.4513 25.6728 24.292 25.5699V14.5802C24.292 14.5463 24.2909 14.5113 24.2887 14.4785C24.2887 14.461 24.2876 14.4445 24.2854 14.4281C24.2854 14.4106 24.2854 14.3942 24.2832 14.3778C24.2832 14.3614 24.2799 14.345 24.2777 14.3286C24.2766 14.3122 24.2744 14.2957 24.2723 14.2793C24.269 14.2465 24.2635 14.2148 24.258 14.183C24.247 14.1196 24.2338 14.0583 24.2173 13.997C24.1965 13.9172 24.1701 13.8384 24.1394 13.7629C24.113 13.6961 24.0834 13.6316 24.0504 13.5692C24.0186 13.5069 23.9823 13.4478 23.9439 13.3887C23.9055 13.3318 23.8648 13.2749 23.8209 13.2224C23.777 13.1688 23.7308 13.1173 23.6825 13.0681C23.5716 12.9565 23.4486 12.8569 23.3168 12.7716C22.6129 12.3131 21.6465 12.2486 20.8481 12.7563C20.6735 12.8679 20.5011 12.9751 20.3309 13.0834L24.7697 10.1237H24.7708L24.7796 10.1193L24.795 10.1084H24.7972L24.8378 10.081C24.8488 10.0745 24.8609 10.0668 24.8719 10.0592C24.8971 10.0438 24.9213 10.0285 24.9465 10.0121C24.9531 10.0088 24.9586 10.0044 24.9652 10.0001C24.9894 9.98585 25.0146 9.96944 25.0388 9.95412C25.1233 9.89941 25.209 9.8447 25.2958 9.78999C25.3825 9.73529 25.4682 9.68058 25.556 9.62478C25.7943 9.47269 26.048 9.37312 26.305 9.31841C26.3215 9.31513 26.3379 9.31185 26.3544 9.30857C26.3961 9.30091 26.4379 9.29434 26.4796 9.28887C26.6443 9.26808 26.8102 9.2648 26.9738 9.27902C27.1418 9.29434 27.3076 9.32826 27.468 9.37859C27.5635 9.40923 27.658 9.44534 27.7491 9.48801C27.8392 9.53068 27.927 9.57882 28.0116 9.63244C28.0335 9.64666 28.0555 9.66198 28.0775 9.6762C28.1104 9.70027 28.1434 9.72435 28.1763 9.74732C28.2016 9.76921 28.2279 9.7889 28.2532 9.81078C28.2784 9.83267 28.3026 9.85455 28.3279 9.87753C28.352 9.89941 28.3762 9.92348 28.3992 9.94646C28.5156 10.0657 28.6189 10.1992 28.7056 10.3447C28.7243 10.3754 28.7408 10.406 28.7583 10.4377C28.7869 10.4924 28.8132 10.5493 28.8374 10.6084C28.8418 10.6194 28.8462 10.6303 28.8506 10.6402C28.8638 10.6752 28.8769 10.7102 28.889 10.7474C28.9 10.7813 28.911 10.8152 28.9209 10.8502C28.9242 10.8623 28.9275 10.8754 28.9308 10.8874C28.9362 10.9082 28.9417 10.9301 28.9461 10.9509C28.9637 11.0308 28.978 11.1128 28.9857 11.1971C28.9879 11.2135 28.9901 11.2299 28.9912 11.2463C28.9923 11.2715 28.9934 11.2967 28.9944 11.3218C28.9944 11.3306 28.9966 11.3382 28.9966 11.347C28.9977 11.3634 28.9988 11.3798 28.9988 11.3973C28.9999 11.4137 28.9999 11.4312 28.9999 11.4487Z"
            fill="white"
        />
        <path
            d="M28.9999 11.4487V24.5502C28.9999 24.6191 28.9955 24.6859 28.9912 24.7526C28.855 26.3971 26.9496 27.2637 25.556 26.3742L24.7796 25.8818C24.7796 25.8818 24.7752 25.8774 24.7708 25.8752C24.6116 25.7735 24.4513 25.6728 24.292 25.5699V14.5802C24.292 14.5463 24.2909 14.5113 24.2887 14.4785C24.2887 14.461 24.2876 14.4445 24.2854 14.4281C24.2854 14.4106 24.2854 14.3942 24.2832 14.3778C24.2832 14.3614 24.2799 14.345 24.2777 14.3286C24.2766 14.3122 24.2744 14.2957 24.2723 14.2793C24.269 14.2465 24.2635 14.2148 24.258 14.183C24.247 14.1196 24.2338 14.0583 24.2173 13.997C24.1965 13.9172 24.1701 13.8384 24.1394 13.7629C24.113 13.6961 24.0834 13.6316 24.0504 13.5692C24.0186 13.5069 23.9823 13.4478 23.9439 13.3887C23.9055 13.3318 23.8648 13.2749 23.8209 13.2224C23.777 13.1688 23.7308 13.1173 23.6825 13.0681C23.5716 12.9565 23.4486 12.8569 23.3168 12.7716C22.6129 12.3131 21.6465 12.2486 20.8481 12.7563C20.6735 12.8679 20.5011 12.9751 20.3309 13.0834L24.7697 10.1237H24.7708L24.7796 10.1193L24.795 10.1084H24.7972L24.8378 10.081C24.8488 10.0745 24.8609 10.0668 24.8719 10.0592C24.8971 10.0438 24.9213 10.0285 24.9465 10.0121C24.9531 10.0088 24.9586 10.0044 24.9652 10.0001C24.9894 9.98585 25.0146 9.96944 25.0388 9.95412C25.1233 9.89941 25.209 9.8447 25.2958 9.78999C25.3825 9.73529 25.4682 9.68058 25.556 9.62478C25.7943 9.47269 26.048 9.37312 26.305 9.31841C26.3215 9.31513 26.3379 9.31185 26.3544 9.30857C26.3961 9.30091 26.4379 9.29434 26.4796 9.28887C26.6443 9.26808 26.8102 9.2648 26.9738 9.27902C27.1418 9.29434 27.3076 9.32826 27.468 9.37859C27.5635 9.40923 27.658 9.44534 27.7491 9.48801C27.8392 9.53068 27.927 9.57882 28.0116 9.63244C28.0335 9.64666 28.0555 9.66198 28.0775 9.6762C28.1104 9.70027 28.1434 9.72435 28.1763 9.74732C28.2016 9.76921 28.2279 9.7889 28.2532 9.81078C28.2784 9.83267 28.3026 9.85455 28.3279 9.87753C28.352 9.89941 28.3762 9.92348 28.3992 9.94646C28.5156 10.0657 28.6189 10.1992 28.7056 10.3447C28.7243 10.3754 28.7408 10.406 28.7583 10.4377C28.7869 10.4924 28.8132 10.5493 28.8374 10.6084C28.8418 10.6194 28.8462 10.6303 28.8506 10.6402C28.8638 10.6752 28.8769 10.7102 28.889 10.7474C28.9 10.7813 28.911 10.8152 28.9209 10.8502C28.9242 10.8623 28.9275 10.8754 28.9308 10.8874C28.9362 10.9082 28.9417 10.9301 28.9461 10.9509C28.9637 11.0308 28.978 11.1128 28.9857 11.1971C28.9879 11.2135 28.9901 11.2299 28.9912 11.2463C28.9923 11.2715 28.9934 11.2967 28.9944 11.3218C28.9944 11.3306 28.9966 11.3382 28.9966 11.347C28.9977 11.3634 28.9988 11.3798 28.9988 11.3973C28.9999 11.4137 28.9999 11.4312 28.9999 11.4487Z"
            fill="url(#paint2_linear_7997_2029)"
            fill-opacity="0.65"
        />
        <path
            d="M23.6751 10.8207C23.6367 10.8502 23.5961 10.8765 23.5522 10.8984C23.55 10.9016 23.5467 10.9027 23.5434 10.9038C23.4182 10.9695 23.2754 11.0056 23.125 11.0056C22.7648 11.0056 22.454 10.7988 22.3046 10.4968L22.3013 10.4902C22.2925 10.4684 22.2827 10.4476 22.2728 10.4268C22.2585 10.3961 22.2431 10.3666 22.2277 10.3382C22.2146 10.3119 22.2003 10.2867 22.186 10.2616C22.1509 10.2003 22.1135 10.1412 22.074 10.0843C22.0553 10.057 22.0367 10.0307 22.0169 10.0044C21.9587 9.92675 21.8961 9.85235 21.8302 9.78232C21.8225 9.77576 21.8148 9.7681 21.8082 9.76044C21.7907 9.74293 21.7742 9.72543 21.7555 9.70792C21.7259 9.68057 21.6962 9.65212 21.6655 9.62477C21.6523 9.61273 21.638 9.60179 21.6248 9.59085C21.5941 9.56459 21.5633 9.53942 21.5315 9.51535C21.5216 9.5066 21.5117 9.50003 21.5018 9.49237C21.4985 9.48909 21.4953 9.4869 21.492 9.48471C21.4711 9.46939 21.4502 9.45408 21.4283 9.43876C21.3646 9.39499 21.2987 9.35341 21.2306 9.31512C21.2295 9.31402 21.2273 9.31293 21.2251 9.31184L21.2185 9.30855L21.2163 9.30637H21.2141C21.2042 9.30089 21.1943 9.29542 21.1834 9.28995C21.1515 9.27245 21.1186 9.25603 21.0856 9.23962C21.0856 9.23962 21.0856 9.24072 21.0845 9.23962C21.0439 9.22102 21.0033 9.20242 20.9604 9.18491C20.9571 9.18491 20.9538 9.18163 20.9506 9.18054C20.9495 9.18054 20.9473 9.18054 20.9462 9.18054C20.9319 9.17507 20.9176 9.17069 20.9033 9.16522C20.8989 9.16412 20.8945 9.16194 20.8902 9.16084C20.8803 9.15647 20.8715 9.15318 20.8616 9.1499C20.8363 9.14115 20.81 9.13239 20.7836 9.12364C20.7474 9.1116 20.7111 9.10066 20.6749 9.09082H20.6727C20.6486 9.08425 20.6222 9.07769 20.5969 9.07112C20.531 9.05471 20.4619 9.04267 20.3949 9.03173C20.3894 9.03064 20.3839 9.02954 20.3784 9.02845C20.3531 9.02626 20.329 9.02188 20.3037 9.01751C20.2082 9.00657 20.1115 9 20.0138 9H9.46133C8.10068 8.99891 7.0003 10.0963 7.0003 11.4487V12.1304H15.3048C15.4036 12.1304 15.5003 12.137 15.5958 12.1479C15.6211 12.1501 15.6452 12.1545 15.6716 12.1588C15.7441 12.1698 15.8176 12.184 15.889 12.2015C15.9132 12.2059 15.9406 12.2125 15.967 12.2212C16.0021 12.2311 16.0395 12.242 16.0757 12.254C16.101 12.2617 16.1262 12.2704 16.1504 12.2792C16.1614 12.2825 16.1712 12.2858 16.1822 12.2901C16.1921 12.2934 16.2031 12.2967 16.213 12.3011C16.224 12.3044 16.2349 12.3087 16.2448 12.3131C16.2899 12.3306 16.3338 12.3503 16.3777 12.3711C16.4216 12.3919 16.4656 12.4149 16.5062 12.4378H16.5106C16.5106 12.4378 16.5128 12.4389 16.5139 12.44L16.5172 12.4433C16.5172 12.4433 16.5216 12.4466 16.5238 12.4466C16.6138 12.498 16.7006 12.5538 16.784 12.6162C16.7972 12.6249 16.8104 12.6359 16.8236 12.6468C17.1387 12.8854 17.3935 13.1972 17.5648 13.5572L17.5681 13.5637C17.5769 13.5823 17.5857 13.602 17.5934 13.6217L17.5967 13.6283C17.746 13.9303 18.0568 14.1371 18.417 14.1371C18.5675 14.1371 18.7103 14.101 18.8354 14.0353C18.8816 14.0069 18.9288 13.9773 18.9749 13.9467C19.3384 13.7169 19.7008 13.4861 20.0621 13.2552C20.0676 13.253 20.072 13.2486 20.072 13.2486L20.0874 13.2399C20.0874 13.2399 20.0885 13.2377 20.0896 13.2388C20.0907 13.2366 20.0929 13.2355 20.094 13.2355C20.1412 13.2059 20.1873 13.1742 20.2367 13.1414H20.2411C20.2565 13.1315 20.2708 13.1217 20.2851 13.1129C20.3004 13.1031 20.3158 13.0932 20.3312 13.0834L24.77 10.1237C24.4043 10.3568 24.0397 10.5898 23.6751 10.8207ZM22.9877 11.22C22.9811 11.2222 22.9745 11.2233 22.9679 11.2244C22.9745 11.2233 22.9811 11.2211 22.9877 11.219C23.0151 11.2113 23.0415 11.2014 23.0668 11.1905C23.0404 11.2025 23.014 11.2124 22.9877 11.22Z"
            fill="white"
        />
        <path
            d="M23.6751 10.8207C23.6367 10.8502 23.5961 10.8765 23.5522 10.8984C23.55 10.9016 23.5467 10.9027 23.5434 10.9038C23.4182 10.9695 23.2754 11.0056 23.125 11.0056C22.7648 11.0056 22.454 10.7988 22.3046 10.4968L22.3013 10.4902C22.2925 10.4684 22.2827 10.4476 22.2728 10.4268C22.2585 10.3961 22.2431 10.3666 22.2277 10.3382C22.2146 10.3119 22.2003 10.2867 22.186 10.2616C22.1509 10.2003 22.1135 10.1412 22.074 10.0843C22.0553 10.057 22.0367 10.0307 22.0169 10.0044C21.9587 9.92675 21.8961 9.85235 21.8302 9.78232C21.8225 9.77576 21.8148 9.7681 21.8082 9.76044C21.7907 9.74293 21.7742 9.72543 21.7555 9.70792C21.7259 9.68057 21.6962 9.65212 21.6655 9.62477C21.6523 9.61273 21.638 9.60179 21.6248 9.59085C21.5941 9.56459 21.5633 9.53942 21.5315 9.51535C21.5216 9.5066 21.5117 9.50003 21.5018 9.49237C21.4985 9.48909 21.4953 9.4869 21.492 9.48471C21.4711 9.46939 21.4502 9.45408 21.4283 9.43876C21.3646 9.39499 21.2987 9.35341 21.2306 9.31512C21.2295 9.31402 21.2273 9.31293 21.2251 9.31184L21.2185 9.30855L21.2163 9.30637H21.2141C21.2042 9.30089 21.1943 9.29542 21.1834 9.28995C21.1515 9.27245 21.1186 9.25603 21.0856 9.23962C21.0856 9.23962 21.0856 9.24072 21.0845 9.23962C21.0439 9.22102 21.0033 9.20242 20.9604 9.18491C20.9571 9.18491 20.9538 9.18163 20.9506 9.18054C20.9495 9.18054 20.9473 9.18054 20.9462 9.18054C20.9319 9.17507 20.9176 9.17069 20.9033 9.16522C20.8989 9.16412 20.8945 9.16194 20.8902 9.16084C20.8803 9.15647 20.8715 9.15318 20.8616 9.1499C20.8363 9.14115 20.81 9.13239 20.7836 9.12364C20.7474 9.1116 20.7111 9.10066 20.6749 9.09082H20.6727C20.6486 9.08425 20.6222 9.07769 20.5969 9.07112C20.531 9.05471 20.4619 9.04267 20.3949 9.03173C20.3894 9.03064 20.3839 9.02954 20.3784 9.02845C20.3531 9.02626 20.329 9.02188 20.3037 9.01751C20.2082 9.00657 20.1115 9 20.0138 9H9.46133C8.10068 8.99891 7.0003 10.0963 7.0003 11.4487V12.1304H15.3048C15.4036 12.1304 15.5003 12.137 15.5958 12.1479C15.6211 12.1501 15.6452 12.1545 15.6716 12.1588C15.7441 12.1698 15.8176 12.184 15.889 12.2015C15.9132 12.2059 15.9406 12.2125 15.967 12.2212C16.0021 12.2311 16.0395 12.242 16.0757 12.254C16.101 12.2617 16.1262 12.2704 16.1504 12.2792C16.1614 12.2825 16.1712 12.2858 16.1822 12.2901C16.1921 12.2934 16.2031 12.2967 16.213 12.3011C16.224 12.3044 16.2349 12.3087 16.2448 12.3131C16.2899 12.3306 16.3338 12.3503 16.3777 12.3711C16.4216 12.3919 16.4656 12.4149 16.5062 12.4378H16.5106C16.5106 12.4378 16.5128 12.4389 16.5139 12.44L16.5172 12.4433C16.5172 12.4433 16.5216 12.4466 16.5238 12.4466C16.6138 12.498 16.7006 12.5538 16.784 12.6162C16.7972 12.6249 16.8104 12.6359 16.8236 12.6468C17.1387 12.8854 17.3935 13.1972 17.5648 13.5572L17.5681 13.5637C17.5769 13.5823 17.5857 13.602 17.5934 13.6217L17.5967 13.6283C17.746 13.9303 18.0568 14.1371 18.417 14.1371C18.5675 14.1371 18.7103 14.101 18.8354 14.0353C18.8816 14.0069 18.9288 13.9773 18.9749 13.9467C19.3384 13.7169 19.7008 13.4861 20.0621 13.2552C20.0676 13.253 20.072 13.2486 20.072 13.2486L20.0874 13.2399C20.0874 13.2399 20.0885 13.2377 20.0896 13.2388C20.0907 13.2366 20.0929 13.2355 20.094 13.2355C20.1412 13.2059 20.1873 13.1742 20.2367 13.1414H20.2411C20.2565 13.1315 20.2708 13.1217 20.2851 13.1129C20.3004 13.1031 20.3158 13.0932 20.3312 13.0834L24.77 10.1237C24.4043 10.3568 24.0397 10.5898 23.6751 10.8207ZM22.9877 11.22C22.9811 11.2222 22.9745 11.2233 22.9679 11.2244C22.9745 11.2233 22.9811 11.2211 22.9877 11.219C23.0151 11.2113 23.0415 11.2014 23.0668 11.1905C23.0404 11.2025 23.014 11.2124 22.9877 11.22Z"
            fill="url(#paint3_linear_7997_2029)"
            fill-opacity="0.65"
        />
    </g>
    <defs>
        <linearGradient
            id="paint0_linear_7997_2029"
            x1="36"
            y1="42.2778"
            x2="19.1922"
            y2="-1.82629"
            gradientUnits="userSpaceOnUse"
        >
            <stop stop-color="#20D7DF" />
            <stop offset="1" stop-color="white" stop-opacity="0" />
        </linearGradient>
        <radialGradient
            id="paint1_radial_7997_2029"
            cx="0"
            cy="0"
            r="1"
            gradientTransform="matrix(15.6957 -15.1944 17.5137 23.4329 5.61671 28.7262)"
            gradientUnits="userSpaceOnUse"
        >
            <stop stop-color="#82F8E1" />
            <stop offset="1" stop-color="#6E45E2" />
        </radialGradient>
        <linearGradient
            id="paint2_linear_7997_2029"
            x1="23.7501"
            y1="10.925"
            x2="32.852"
            y2="13.489"
            gradientUnits="userSpaceOnUse"
        >
            <stop offset="0.1" stop-color="#6E45E2" />
            <stop offset="1" stop-color="#45E1CC" stop-opacity="0.9" />
        </linearGradient>
        <linearGradient
            id="paint3_linear_7997_2029"
            x1="8.69419"
            y1="6.65821"
            x2="9.32014"
            y2="17.5154"
            gradientUnits="userSpaceOnUse"
        >
            <stop offset="0.1" stop-color="#6E45E2" />
            <stop offset="0.9" stop-color="#45E1CC" />
        </linearGradient>
        <clipPath id="clip0_7997_2029">
            <rect width="36" height="36" fill="white" />
        </clipPath>
    </defs>
</svg>
