<svg width="72" height="72" viewBox="0 0 72 72" fill="none" xmlns="http://www.w3.org/2000/svg">
    <path
        d="M17.9994 68.6665C14.0813 68.6665 10.3988 67.141 7.62834 64.3705C1.91034 58.6525 1.91034 49.3465 7.62834 43.6285L15.1284 36.1285C17.8989 33.358 21.5814 31.8325 25.4994 31.8325C29.4174 31.8325 33.0999 33.358 35.8704 36.1285C41.5884 41.8465 41.5884 51.1525 35.8704 56.8705L28.3704 64.3705C25.5999 67.141 21.9174 68.6665 17.9994 68.6665ZM25.4994 37.831C23.1834 37.831 21.0084 38.7325 19.3704 40.369L11.8703 47.869C8.49234 51.2485 8.49234 56.7475 11.8703 60.127C13.5083 61.7635 15.6834 62.665 17.9994 62.665C20.3154 62.665 22.4904 61.7635 24.1284 60.127L31.6284 52.627C35.0064 49.2475 35.0064 43.7485 31.6284 40.369C29.9904 38.7325 27.8154 37.831 25.4994 37.831Z"
        fill="url(#paint0_linear_7329_2179)"
    />
    <path
        d="M46.4993 40.1665C42.5813 40.1665 38.8988 38.641 36.1283 35.8705C30.4103 30.1525 30.4103 20.8465 36.1283 15.1285L43.6283 7.62852C46.3988 4.85802 50.0813 3.33252 53.9993 3.33252C57.9173 3.33252 61.5998 4.85802 64.3703 7.62852C70.0883 13.3465 70.0883 22.6525 64.3703 28.3705L56.8703 35.8705C54.0998 38.641 50.4173 40.1665 46.4993 40.1665ZM53.9993 9.33102C51.6833 9.33102 49.5083 10.2325 47.8703 11.869L40.3703 19.369C36.9923 22.7485 36.9923 28.2475 40.3703 31.627C42.0083 33.2635 44.1833 34.165 46.4993 34.165C48.8153 34.165 50.9903 33.2635 52.6283 31.627L60.1283 24.127C63.5063 20.7475 63.5063 15.2485 60.1283 11.869C58.4903 10.2325 56.3153 9.33102 53.9993 9.33102Z"
        fill="url(#paint1_linear_7329_2179)"
    />
    <path
        opacity="0.15"
        d="M40.3709 31.6289L36.1289 35.8709C37.6169 37.3589 39.3734 38.4749 41.2829 39.2009L46.3334 34.1504C44.0804 34.1069 41.9684 33.2249 40.3709 31.6274V31.6289Z"
        fill="black"
    />
    <path
        opacity="0.15"
        d="M35.8709 36.1282L31.6289 40.3702C33.2759 42.0187 34.1069 44.1712 34.1474 46.3372L39.1964 41.2882C38.4839 39.4072 37.3829 37.6402 35.8709 36.1282Z"
        fill="black"
    />
    <path
        d="M25.4996 49.4996C24.7316 49.4996 23.9651 49.2071 23.3786 48.6206C22.2071 47.4491 22.2071 45.5501 23.3786 44.3786L44.3786 23.3786C45.5501 22.2071 47.4491 22.2071 48.6206 23.3786C49.7921 24.5501 49.7921 26.4491 48.6206 27.6206L27.6206 48.6206C27.0341 49.2071 26.2676 49.4996 25.4996 49.4996Z"
        fill="url(#paint2_linear_7329_2179)"
    />
    <path
        d="M65.9995 67.4996C65.602 67.4996 65.2194 67.3421 64.9389 67.0601L4.93894 7.06006C4.36294 6.46456 4.37944 5.51506 4.97644 4.93906C5.55844 4.37806 6.47944 4.37806 7.05994 4.93906L67.06 64.939C67.645 65.5255 67.645 66.4751 67.06 67.0601C66.7795 67.3406 66.3969 67.4996 65.9995 67.4996Z"
        fill="url(#paint3_linear_7329_2179)"
    />
    <defs>
        <linearGradient
            id="paint0_linear_7329_2179"
            x1="21.7494"
            y1="31.8325"
            x2="21.7494"
            y2="68.6665"
            gradientUnits="userSpaceOnUse"
        >
            <stop stop-color="#C2C3CD" />
            <stop offset="1" stop-color="#A2A3B4" />
        </linearGradient>
        <linearGradient
            id="paint1_linear_7329_2179"
            x1="50.2493"
            y1="3.33252"
            x2="50.2493"
            y2="40.1665"
            gradientUnits="userSpaceOnUse"
        >
            <stop stop-color="#C2C3CD" />
            <stop offset="1" stop-color="#A2A3B4" />
        </linearGradient>
        <linearGradient
            id="paint2_linear_7329_2179"
            x1="35.9996"
            y1="22.4999"
            x2="35.9996"
            y2="49.4996"
            gradientUnits="userSpaceOnUse"
        >
            <stop stop-color="#E0E0E6" />
            <stop offset="1" stop-color="#C2C3CD" />
        </linearGradient>
        <linearGradient
            id="paint3_linear_7329_2179"
            x1="36.0082"
            y1="4.51831"
            x2="36.0082"
            y2="67.4996"
            gradientUnits="userSpaceOnUse"
        >
            <stop stop-color="#FF666D" />
            <stop offset="1" stop-color="#E0211F" />
        </linearGradient>
    </defs>
</svg>
