<svg width="72" height="72" viewBox="0 0 72 72" fill="none" xmlns="http://www.w3.org/2000/svg">
    <path
        fill-rule="evenodd"
        clip-rule="evenodd"
        d="M63 36C63 50.9117 50.9117 63 36 63C21.0883 63 9 50.9117 9 36C9 21.0883 21.0883 9 36 9C50.9117 9 63 21.0883 63 36ZM67.5 36C67.5 53.397 53.397 67.5 36 67.5C18.603 67.5 4.5 53.397 4.5 36C4.5 18.603 18.603 4.5 36 4.5C53.397 4.5 67.5 18.603 67.5 36ZM45.659 48.841C46.5377 49.7197 47.9623 49.7197 48.841 48.841C49.7197 47.9623 49.7197 46.5377 48.841 45.659L38.25 35.068V18C38.25 16.7574 37.2426 15.75 36 15.75C34.7574 15.75 33.75 16.7574 33.75 18V36C33.75 36.5967 33.9871 37.169 34.409 37.591L45.659 48.841Z"
        fill="url(#paint0_linear_12344_2618)"
    />
    <defs>
        <linearGradient
            id="paint0_linear_12344_2618"
            x1="21.9008"
            y1="4.22394"
            x2="28.4507"
            y2="49.6455"
            gradientUnits="userSpaceOnUse"
        >
            <stop stop-color="white" />
            <stop offset="0.647491" stop-color="#CDCBFC" />
            <stop offset="1" stop-color="#9696F9" />
        </linearGradient>
    </defs>
</svg>
