<svg width="64" height="64" viewBox="0 0 64 64" fill="none" xmlns="http://www.w3.org/2000/svg">
    <g clip-path="url(#clip0_16668_5280)">
        <path d="M0 63.5H64V64H0V63.5Z" fill="url(#paint0_linear_16668_5280)" />
        <path
            d="M7.99219 8H53.9922V64H11.9922C9.78305 64 7.99219 62.2091 7.99219 60V8Z"
            fill="url(#paint1_linear_16668_5280)"
        />
        <path
            d="M63.9922 60C63.9922 62.2091 62.2013 64 59.9922 64H11.9922C14.2013 64 15.9922 62.2091 15.9922 60V56H63.9922V60Z"
            fill="url(#paint2_linear_16668_5280)"
        />
        <g filter="url(#filter0_i_16668_5280)">
            <path
                d="M-0.0078125 4C-0.0078125 1.79086 1.78305 0 3.99219 0H49.9922C52.2013 0 53.9922 1.79086 53.9922 4V8H-0.0078125V4Z"
                fill="url(#paint3_linear_16668_5280)"
            />
        </g>
        <path
            d="M-0.0078125 4C-0.0078125 1.79086 1.78305 0 3.99219 0C6.20133 0 7.99219 1.79086 7.99219 4V8H-0.0078125V4Z"
            fill="url(#paint4_linear_16668_5280)"
        />
        <path
            d="M32.9922 42C33.5445 42 33.9922 42.4477 33.9922 43C33.9922 43.5523 33.5445 44 32.9922 44H16.9922C16.4399 44 15.9922 43.5523 15.9922 43C15.9922 42.4477 16.4399 42 16.9922 42H32.9922ZM44.1035 42C44.6557 42.0001 45.1035 42.4478 45.1035 43C45.1035 43.5522 44.6557 43.9999 44.1035 44H38.9922C38.4399 44 37.9922 43.5523 37.9922 43C37.9922 42.4477 38.4399 42 38.9922 42H44.1035ZM26.9922 36C27.5445 36 27.9922 36.4477 27.9922 37C27.9922 37.5523 27.5445 38 26.9922 38H16.9922C16.4399 38 15.9922 37.5523 15.9922 37C15.9922 36.4477 16.4399 36 16.9922 36H26.9922ZM46.9922 36C47.5445 36 47.9922 36.4477 47.9922 37C47.9922 37.5523 47.5445 38 46.9922 38H32.9922C32.4399 38 31.9922 37.5523 31.9922 37C31.9922 36.4477 32.4399 36 32.9922 36H46.9922ZM32.9922 30C33.5445 30 33.9922 30.4477 33.9922 31C33.9922 31.5523 33.5445 32 32.9922 32H16.9922C16.4399 32 15.9922 31.5523 15.9922 31C15.9922 30.4477 16.4399 30 16.9922 30H32.9922ZM46.9922 30C47.5445 30 47.9922 30.4477 47.9922 31C47.9922 31.5523 47.5445 32 46.9922 32H38.9922C38.4399 32 37.9922 31.5523 37.9922 31C37.9922 30.4477 38.4399 30 38.9922 30H46.9922ZM22.9922 24C23.5445 24 23.9922 24.4477 23.9922 25C23.9922 25.5523 23.5445 26 22.9922 26H16.9922C16.4399 26 15.9922 25.5523 15.9922 25C15.9922 24.4477 16.4399 24 16.9922 24H22.9922ZM43 24C43.5523 24 44 24.4477 44 25C44 25.5523 43.5523 26 43 26H29C28.4477 26 28 25.5523 28 25C28 24.4477 28.4477 24 29 24H43ZM32.9922 18C33.5445 18 33.9922 18.4477 33.9922 19C33.9922 19.5523 33.5445 20 32.9922 20H16.9922C16.4399 20 15.9922 19.5523 15.9922 19C15.9922 18.4477 16.4399 18 16.9922 18H32.9922ZM40.9922 18C41.5445 18 41.9922 18.4477 41.9922 19C41.9922 19.5523 41.5445 20 40.9922 20H38.9922C38.4399 20 37.9922 19.5523 37.9922 19C37.9922 18.4477 38.4399 18 38.9922 18H40.9922ZM28.9922 12C29.5445 12 29.9922 12.4477 29.9922 13C29.9922 13.5523 29.5445 14 28.9922 14H16.9922C16.4399 14 15.9922 13.5523 15.9922 13C15.9922 12.4477 16.4399 12 16.9922 12H28.9922ZM38.9922 12C39.5445 12 39.9922 12.4477 39.9922 13C39.9922 13.5523 39.5445 14 38.9922 14H34.9922C34.4399 14 33.9922 13.5523 33.9922 13C33.9922 12.4477 34.4399 12 34.9922 12H38.9922Z"
            fill="url(#paint5_radial_16668_5280)"
        />
        <g filter="url(#filter1_d_16668_5280)">
            <mask id="path-7-inside-1_16668_5280" fill="white">
                <path
                    d="M57.3398 26.5723C61.2268 27.9468 64.0125 31.6516 64.0127 36.0088C64.0127 41.5368 59.5304 46.0186 54.002 46.0186C48.4737 46.0184 43.9922 41.5367 43.9922 36.0088C43.9924 31.651 46.7784 27.9453 50.666 26.5713V19.916H43.9922V13.2432H50.666V8H57.3398V26.5723ZM54.001 31.7168C51.6317 31.7168 49.7109 33.6377 49.7109 36.0068C49.7111 38.3758 51.6318 40.2959 54.001 40.2959C56.3702 40.2959 58.2908 38.3758 58.291 36.0068C58.291 33.6377 56.3703 31.7168 54.001 31.7168Z"
                />
            </mask>
            <path
                d="M57.3398 26.5723C61.2268 27.9468 64.0125 31.6516 64.0127 36.0088C64.0127 41.5368 59.5304 46.0186 54.002 46.0186C48.4737 46.0184 43.9922 41.5367 43.9922 36.0088C43.9924 31.651 46.7784 27.9453 50.666 26.5713V19.916H43.9922V13.2432H50.666V8H57.3398V26.5723ZM54.001 31.7168C51.6317 31.7168 49.7109 33.6377 49.7109 36.0068C49.7111 38.3758 51.6318 40.2959 54.001 40.2959C56.3702 40.2959 58.2908 38.3758 58.291 36.0068C58.291 33.6377 56.3703 31.7168 54.001 31.7168Z"
                fill="url(#paint6_linear_16668_5280)"
            />
            <path
                d="M57.3398 26.5723H57.1398V26.7137L57.2732 26.7608L57.3398 26.5723ZM64.0127 36.0088H64.2127V36.0088L64.0127 36.0088ZM54.002 46.0186L54.0019 46.2186H54.002V46.0186ZM43.9922 36.0088L43.7922 36.0088V36.0088H43.9922ZM50.666 26.5713L50.7327 26.7599L50.866 26.7127V26.5713H50.666ZM50.666 19.916H50.866V19.716H50.666V19.916ZM43.9922 19.916H43.7922V20.116H43.9922V19.916ZM43.9922 13.2432V13.0432H43.7922V13.2432H43.9922ZM50.666 13.2432V13.4432H50.866V13.2432H50.666ZM50.666 8V7.8H50.466V8H50.666ZM57.3398 8H57.5398V7.8H57.3398V8ZM54.001 31.7168V31.5168V31.5168V31.7168ZM49.7109 36.0068H49.5109V36.0069L49.7109 36.0068ZM54.001 40.2959V40.4959V40.4959V40.2959ZM58.291 36.0068L58.491 36.0069V36.0068H58.291ZM57.3398 26.5723L57.2732 26.7608C61.0828 28.108 63.8125 31.7391 63.8127 36.0088L64.0127 36.0088L64.2127 36.0088C64.2125 31.5641 61.3708 27.7856 57.4065 26.3837L57.3398 26.5723ZM64.0127 36.0088H63.8127C63.8127 41.4263 59.4199 45.8186 54.002 45.8186V46.0186V46.2186C59.6408 46.2186 64.2127 41.6472 64.2127 36.0088H64.0127ZM54.002 46.0186L54.002 45.8186C48.5841 45.8184 44.1922 41.4262 44.1922 36.0088H43.9922H43.7922C43.7922 41.6471 48.3632 46.2184 54.0019 46.2186L54.002 46.0186ZM43.9922 36.0088L44.1922 36.0088C44.1924 31.7384 46.9223 28.1066 50.7327 26.7599L50.666 26.5713L50.5994 26.3827C46.6344 27.7841 43.7924 31.5635 43.7922 36.0088L43.9922 36.0088ZM50.666 26.5713H50.866V19.916H50.666H50.466V26.5713H50.666ZM50.666 19.916V19.716H43.9922V19.916V20.116H50.666V19.916ZM43.9922 19.916H44.1922V13.2432H43.9922H43.7922V19.916H43.9922ZM43.9922 13.2432V13.4432H50.666V13.2432V13.0432H43.9922V13.2432ZM50.666 13.2432H50.866V8H50.666H50.466V13.2432H50.666ZM50.666 8V8.2H57.3398V8V7.8H50.666V8ZM57.3398 8H57.1398V26.5723H57.3398H57.5398V8H57.3398ZM54.001 31.7168V31.5168C51.5212 31.5168 49.5109 33.5273 49.5109 36.0068H49.7109H49.9109C49.9109 33.7482 51.7421 31.9168 54.001 31.9168V31.7168ZM49.7109 36.0068L49.5109 36.0069C49.5111 38.4863 51.5214 40.4959 54.001 40.4959V40.2959V40.0959C51.7422 40.0959 49.9111 38.2653 49.9109 36.0068L49.7109 36.0068ZM54.001 40.2959V40.4959C56.4806 40.4959 58.4908 38.4863 58.491 36.0069L58.291 36.0068L58.091 36.0068C58.0908 38.2653 56.2598 40.0959 54.001 40.0959V40.2959ZM58.291 36.0068H58.491C58.491 33.5273 56.4808 31.5168 54.001 31.5168V31.7168V31.9168C56.2598 31.9168 58.091 33.7482 58.091 36.0068H58.291Z"
                fill="url(#paint7_radial_16668_5280)"
                fill-opacity="0.5"
                mask="url(#path-7-inside-1_16668_5280)"
            />
        </g>
    </g>
    <defs>
        <filter
            id="filter0_i_16668_5280"
            x="-0.0078125"
            y="0"
            width="54"
            height="8"
            filterUnits="userSpaceOnUse"
            color-interpolation-filters="sRGB"
        >
            <feFlood flood-opacity="0" result="BackgroundImageFix" />
            <feBlend mode="normal" in="SourceGraphic" in2="BackgroundImageFix" result="shape" />
            <feColorMatrix
                in="SourceAlpha"
                type="matrix"
                values="0 0 0 0 0 0 0 0 0 0 0 0 0 0 0 0 0 0 127 0"
                result="hardAlpha"
            />
            <feOffset dx="-0.125" dy="0.13" />
            <feComposite in2="hardAlpha" operator="arithmetic" k2="-1" k3="1" />
            <feColorMatrix type="matrix" values="0 0 0 0 0.603922 0 0 0 0 0.592157 0 0 0 0 0.968627 0 0 0 1 0" />
            <feBlend mode="normal" in2="shape" result="effect1_innerShadow_16668_5280" />
        </filter>
        <filter
            id="filter1_d_16668_5280"
            x="38.9922"
            y="5"
            width="28.0195"
            height="46.0186"
            filterUnits="userSpaceOnUse"
            color-interpolation-filters="sRGB"
        >
            <feFlood flood-opacity="0" result="BackgroundImageFix" />
            <feColorMatrix
                in="SourceAlpha"
                type="matrix"
                values="0 0 0 0 0 0 0 0 0 0 0 0 0 0 0 0 0 0 127 0"
                result="hardAlpha"
            />
            <feOffset dx="-1" dy="1" />
            <feGaussianBlur stdDeviation="2" />
            <feComposite in2="hardAlpha" operator="out" />
            <feColorMatrix type="matrix" values="0 0 0 0 0.313726 0 0 0 0 0.262745 0 0 0 0 0.517647 0 0 0 0.5 0" />
            <feBlend mode="normal" in2="BackgroundImageFix" result="effect1_dropShadow_16668_5280" />
            <feBlend mode="normal" in="SourceGraphic" in2="effect1_dropShadow_16668_5280" result="shape" />
        </filter>
        <linearGradient
            id="paint0_linear_16668_5280"
            x1="0"
            y1="63.75"
            x2="64"
            y2="63.75"
            gradientUnits="userSpaceOnUse"
        >
            <stop stop-color="#736B94" stop-opacity="0" />
            <stop offset="0.205528" stop-color="#736B94" stop-opacity="0.5" />
            <stop offset="0.830758" stop-color="#736B94" stop-opacity="0.5" />
            <stop offset="1" stop-color="#736B94" stop-opacity="0" />
        </linearGradient>
        <linearGradient
            id="paint1_linear_16668_5280"
            x1="31.9922"
            y1="8"
            x2="32"
            y2="64"
            gradientUnits="userSpaceOnUse"
        >
            <stop offset="0.725" stop-color="#8580B3" />
            <stop offset="1" stop-color="#4B416C" />
        </linearGradient>
        <linearGradient
            id="paint2_linear_16668_5280"
            x1="37.9922"
            y1="56"
            x2="37.9922"
            y2="64"
            gradientUnits="userSpaceOnUse"
        >
            <stop stop-color="#9A99C2" />
            <stop offset="1" stop-color="#6A5C99" />
        </linearGradient>
        <linearGradient
            id="paint3_linear_16668_5280"
            x1="27.9922"
            y1="0"
            x2="27.9922"
            y2="8"
            gradientUnits="userSpaceOnUse"
        >
            <stop stop-color="#9A99C2" />
            <stop offset="1" stop-color="#8580B3" />
        </linearGradient>
        <linearGradient
            id="paint4_linear_16668_5280"
            x1="3.99219"
            y1="0"
            x2="3.99219"
            y2="8"
            gradientUnits="userSpaceOnUse"
        >
            <stop stop-color="#4B416C" />
            <stop offset="1" stop-color="#6A5C99" />
        </linearGradient>
        <radialGradient
            id="paint5_radial_16668_5280"
            cx="0"
            cy="0"
            r="1"
            gradientUnits="userSpaceOnUse"
            gradientTransform="translate(32 28) rotate(179.848) scale(16 21.9462)"
        >
            <stop stop-color="#EBE6FF" />
            <stop offset="1" stop-color="#CECFEF" />
        </radialGradient>
        <linearGradient
            id="paint6_linear_16668_5280"
            x1="65.001"
            y1="-6.00036"
            x2="27.8517"
            y2="28.0395"
            gradientUnits="userSpaceOnUse"
        >
            <stop stop-color="#CBF5CF" />
            <stop offset="1" stop-color="#2BC9B3" />
        </linearGradient>
        <radialGradient
            id="paint7_radial_16668_5280"
            cx="0"
            cy="0"
            r="1"
            gradientTransform="matrix(-7.38561 18.8132 -8.94667 -65.2672 55.0706 23.9188)"
            gradientUnits="userSpaceOnUse"
        >
            <stop stop-color="white" stop-opacity="0" />
            <stop offset="1" stop-color="white" />
        </radialGradient>
        <clipPath id="clip0_16668_5280">
            <rect width="64" height="64" fill="white" />
        </clipPath>
    </defs>
</svg>
