<svg width="64" height="64" viewBox="0 0 64 64" fill="none" xmlns="http://www.w3.org/2000/svg">
    <g clip-path="url(#clip0_16668_5406)">
        <path
            opacity="0.7"
            d="M17.5 6.50049C17.5 2.91064 20.4101 0.000488281 24 0.000488281H42C45.5899 0.000488281 48.5 2.91064 48.5 6.50049V57.5005C48.5 61.0903 45.5899 64.0005 42 64.0005H24C20.4101 64.0005 17.5 61.0903 17.5 57.5005V6.50049Z"
            fill="url(#paint0_linear_16668_5406)"
        />
        <path
            d="M18 6.50049C18 3.18678 20.6863 0.500488 24 0.500488H42C45.3137 0.500488 48 3.18678 48 6.50049V57.5005C48 60.8142 45.3137 63.5005 42 63.5005H24C20.6863 63.5005 18 60.8142 18 57.5005V6.50049Z"
            fill="url(#paint1_linear_16668_5406)"
        />
        <g filter="url(#filter0_ii_16668_5406)">
            <path
                d="M18.5 6.50049C18.5 3.46292 20.9624 1.00049 24 1.00049H42C45.0376 1.00049 47.5 3.46292 47.5 6.50049V57.5005C47.5 60.5381 45.0376 63.0005 42 63.0005H24C20.9624 63.0005 18.5 60.5381 18.5 57.5005V6.50049Z"
                fill="url(#paint2_linear_16668_5406)"
            />
        </g>
        <path
            d="M33 28C37.9706 28 42 23.9706 42 19C42 14.0294 37.9706 10 33 10C28.0294 10 24 14.0294 24 19C24 23.9706 28.0294 28 33 28Z"
            fill="url(#paint3_linear_16668_5406)"
        />
        <mask
            id="mask0_16668_5406"
            style="mask-type: alpha"
            maskUnits="userSpaceOnUse"
            x="24"
            y="10"
            width="18"
            height="18"
        >
            <path
                opacity="0.9"
                d="M33 28C37.9706 28 42 23.9706 42 19C42 14.0294 37.9706 10 33 10C28.0294 10 24 14.0294 24 19C24 23.9706 28.0294 28 33 28Z"
                fill="black"
            />
        </mask>
        <g mask="url(#mask0_16668_5406)">
            <path
                d="M33 22C37.4183 22 41 25.5817 41 30C41 34.4183 37.4183 38 33 38C28.5817 38 25 34.4183 25 30C25 25.5817 28.5817 22 33 22ZM33 13.5C34.933 13.5 36.5 15.067 36.5 17C36.5 18.933 34.933 20.5 33 20.5C31.067 20.5 29.5 18.933 29.5 17C29.5 15.067 31.067 13.5 33 13.5Z"
                fill="url(#paint4_linear_16668_5406)"
            />
        </g>
        <circle cx="33" cy="5" r="1.125" fill="#040C18" stroke="#9A97F7" stroke-width="0.25" />
        <path
            d="M48 20.2559L18 47.6846V44.6367L48 17.208V20.2559ZM48 17.1748L18 42.5713V31.3965L48 6V17.1748Z"
            fill="url(#paint5_linear_16668_5406)"
        />
        <rect y="63.5" width="64" height="0.5" fill="url(#paint6_linear_16668_5406)" />
        <path
            d="M0 42C0 36.4772 4.2906 32 9.58333 32L34.4167 32C39.7094 32 44 36.4772 44 42C44 47.5228 39.7094 52 34.4167 52H0V42Z"
            fill="url(#paint7_linear_16668_5406)"
        />
        <path
            d="M9.58301 32.125H34.417C39.6356 32.1252 43.875 36.5412 43.875 42C43.875 47.4588 39.6356 51.8748 34.417 51.875H0.125V42C0.125 36.5412 4.36442 32.1252 9.58301 32.125Z"
            stroke="url(#paint8_radial_16668_5406)"
            stroke-opacity="0.5"
            stroke-width="0.25"
        />
        <path
            fill-rule="evenodd"
            clip-rule="evenodd"
            d="M10.2715 37.1777C10.6578 37.1782 10.9708 37.4906 10.9708 37.877V40.7871L13.4922 39.332C13.827 39.1391 14.256 39.2552 14.4493 39.5898C14.6417 39.9245 14.5259 40.3518 14.1915 40.5449L11.67 42L14.1915 43.457C14.5259 43.6501 14.6418 44.0774 14.4493 44.4121C14.256 44.7467 13.8269 44.8628 13.4922 44.6699L10.9708 43.2129V46.125C10.9707 46.5112 10.6577 46.8238 10.2715 46.8242C9.8851 46.8241 9.57047 46.5114 9.57037 46.125V43.2129L7.04888 44.6699C6.7142 44.8625 6.28694 44.7466 6.0938 44.4121C5.9008 44.0774 6.0151 43.6503 6.34966 43.457L8.8692 42L6.34966 40.5449C6.01515 40.3517 5.90092 39.9245 6.0938 39.5898C6.28696 39.2553 6.71419 39.1393 7.04888 39.332L9.57037 40.7871V37.877C9.57037 37.4904 9.88504 37.1779 10.2715 37.1777ZM22.4161 37.1777C22.8023 37.1782 23.1153 37.4906 23.1153 37.877V40.7871L25.6368 39.332C25.9715 39.1391 26.4006 39.2552 26.5938 39.5898C26.7862 39.9245 26.6704 40.3518 26.336 40.5449L23.8145 42L26.336 43.457C26.6705 43.6501 26.7863 44.0774 26.5938 44.4121C26.4006 44.7467 25.9715 44.8628 25.6368 44.6699L23.1153 43.2129V46.125C23.1152 46.5112 22.8022 46.8238 22.4161 46.8242C22.0296 46.8241 21.715 46.5114 21.7149 46.125V43.2129L19.1934 44.6699C18.8587 44.8625 18.4315 44.7466 18.2383 44.4121C18.0453 44.0774 18.1596 43.6503 18.4942 43.457L21.0137 42L18.4942 40.5449C18.1597 40.3517 18.0454 39.9245 18.2383 39.5898C18.4315 39.2553 18.8587 39.1393 19.1934 39.332L21.7149 40.7871V37.877C21.7149 37.4904 22.0296 37.1779 22.4161 37.1777ZM34.5567 37.1777C34.9429 37.1782 35.2559 37.4906 35.2559 37.877V40.7871L37.7774 39.332C38.1121 39.1391 38.5412 39.2552 38.7344 39.5898C38.9268 39.9245 38.8111 40.3518 38.4766 40.5449L35.9551 42L38.4766 43.457C38.8111 43.6501 38.927 44.0774 38.7344 44.4121C38.5412 44.7467 38.1121 44.8628 37.7774 44.6699L35.2559 43.2129V46.125C35.2558 46.5112 34.9428 46.8238 34.5567 46.8242C34.1703 46.8241 33.8556 46.5114 33.8555 46.125V43.2129L31.334 44.6699C30.9994 44.8625 30.5721 44.7466 30.379 44.4121C30.186 44.0774 30.3003 43.6503 30.6348 43.457L33.1544 42L30.6348 40.5449C30.3003 40.3517 30.1861 39.9245 30.379 39.5898C30.5721 39.2553 30.9993 39.1393 31.334 39.332L33.8555 40.7871V37.877C33.8555 37.4904 34.1702 37.1779 34.5567 37.1777Z"
            fill="url(#paint9_linear_16668_5406)"
        />
        <mask id="path-13-inside-1_16668_5406" fill="white">
            <path
                d="M59.333 50.4019C62.0512 51.3631 63.999 53.9551 63.999 57.0024C63.9988 60.8678 60.8651 64.0012 57 64.0015C53.1347 64.0015 50.0002 60.868 50 57.0024C50 53.955 51.9485 51.363 54.667 50.4019V44.6675H50.001V40.0015H54.667V36.0005H59.333V50.4019ZM57 54.0005C55.3434 54.0005 54.0001 55.3439 54 57.0005C54 58.6572 55.3434 60.0005 57 60.0005C58.6565 60.0004 59.999 58.6571 59.999 57.0005C59.9989 55.3439 58.6565 54.0006 57 54.0005Z"
            />
        </mask>
        <path
            d="M59.333 50.4019C62.0512 51.3631 63.999 53.9551 63.999 57.0024C63.9988 60.8678 60.8651 64.0012 57 64.0015C53.1347 64.0015 50.0002 60.868 50 57.0024C50 53.955 51.9485 51.363 54.667 50.4019V44.6675H50.001V40.0015H54.667V36.0005H59.333V50.4019ZM57 54.0005C55.3434 54.0005 54.0001 55.3439 54 57.0005C54 58.6572 55.3434 60.0005 57 60.0005C58.6565 60.0004 59.999 58.6571 59.999 57.0005C59.9989 55.3439 58.6565 54.0006 57 54.0005Z"
            fill="url(#paint10_linear_16668_5406)"
        />
        <path
            d="M59.333 50.4019H58.833V50.7554L59.1663 50.8732L59.333 50.4019ZM63.999 57.0024L64.499 57.0025V57.0024H63.999ZM57 64.0015V64.5015H57L57 64.0015ZM50 57.0024H49.5V57.0025L50 57.0024ZM54.667 50.4019L54.8337 50.8733L55.167 50.7554V50.4019H54.667ZM54.667 44.6675H55.167V44.1675H54.667V44.6675ZM50.001 44.6675H49.501V45.1675H50.001V44.6675ZM50.001 40.0015V39.5015H49.501V40.0015H50.001ZM54.667 40.0015V40.5015H55.167V40.0015H54.667ZM54.667 36.0005V35.5005H54.167V36.0005H54.667ZM59.333 36.0005H59.833V35.5005H59.333V36.0005ZM57 54.0005L57 53.5005H57V54.0005ZM54 57.0005L53.5 57.0005V57.0005L54 57.0005ZM57 60.0005V60.5005H57L57 60.0005ZM59.999 57.0005L60.499 57.0005V57.0005L59.999 57.0005ZM59.333 50.4019L59.1663 50.8732C61.6911 51.7661 63.499 54.1737 63.499 57.0024H63.999H64.499C64.499 53.7366 62.4112 50.9601 59.4997 49.9305L59.333 50.4019ZM63.999 57.0024L63.499 57.0024C63.4989 60.5916 60.589 63.5012 57 63.5015L57 64.0015L57 64.5015C61.1413 64.5012 64.4988 61.144 64.499 57.0025L63.999 57.0024ZM57 64.0015V63.5015C53.4107 63.5015 50.5002 60.5917 50.5 57.0024L50 57.0024L49.5 57.0025C49.5002 61.1442 52.8586 64.5015 57 64.5015V64.0015ZM50 57.0024H50.5C50.5 54.1736 52.3085 51.766 54.8337 50.8733L54.667 50.4019L54.5003 49.9304C51.5885 50.9599 49.5 53.7363 49.5 57.0024H50ZM54.667 50.4019H55.167V44.6675H54.667H54.167V50.4019H54.667ZM54.667 44.6675V44.1675H50.001V44.6675V45.1675H54.667V44.6675ZM50.001 44.6675H50.501V40.0015H50.001H49.501V44.6675H50.001ZM50.001 40.0015V40.5015H54.667V40.0015V39.5015H50.001V40.0015ZM54.667 40.0015H55.167V36.0005H54.667H54.167V40.0015H54.667ZM54.667 36.0005V36.5005H59.333V36.0005V35.5005H54.667V36.0005ZM59.333 36.0005H58.833V50.4019H59.333H59.833V36.0005H59.333ZM57 54.0005V53.5005C55.0673 53.5005 53.5001 55.0677 53.5 57.0005L54 57.0005L54.5 57.0005C54.5001 55.62 55.6196 54.5005 57 54.5005V54.0005ZM54 57.0005L53.5 57.0005C53.5 58.9333 55.0672 60.5005 57 60.5005V60.0005V59.5005C55.6195 59.5005 54.5 58.381 54.5 57.0005L54 57.0005ZM57 60.0005L57 60.5005C58.9328 60.5004 60.499 58.9331 60.499 57.0005L59.999 57.0005L59.499 57.0005C59.499 58.3811 58.3802 59.5004 57 59.5005L57 60.0005ZM59.999 57.0005L60.499 57.0005C60.4989 55.068 58.9328 53.5006 57 53.5005L57 54.0005L57 54.5005C58.3801 54.5006 59.4989 55.6199 59.499 57.0005L59.999 57.0005Z"
            fill="url(#paint11_linear_16668_5406)"
            fill-opacity="0.1"
            mask="url(#path-13-inside-1_16668_5406)"
        />
    </g>
    <defs>
        <filter
            id="filter0_ii_16668_5406"
            x="16.5"
            y="-0.999512"
            width="31"
            height="66"
            filterUnits="userSpaceOnUse"
            color-interpolation-filters="sRGB"
        >
            <feFlood flood-opacity="0" result="BackgroundImageFix" />
            <feBlend mode="normal" in="SourceGraphic" in2="BackgroundImageFix" result="shape" />
            <feColorMatrix
                in="SourceAlpha"
                type="matrix"
                values="0 0 0 0 0 0 0 0 0 0 0 0 0 0 0 0 0 0 127 0"
                result="hardAlpha"
            />
            <feOffset dy="-2" />
            <feGaussianBlur stdDeviation="1.5" />
            <feComposite in2="hardAlpha" operator="arithmetic" k2="-1" k3="1" />
            <feColorMatrix type="matrix" values="0 0 0 0 0.317097 0 0 0 0 0.146372 0 0 0 0 1 0 0 0 0.2 0" />
            <feBlend mode="normal" in2="shape" result="effect1_innerShadow_16668_5406" />
            <feColorMatrix
                in="SourceAlpha"
                type="matrix"
                values="0 0 0 0 0 0 0 0 0 0 0 0 0 0 0 0 0 0 127 0"
                result="hardAlpha"
            />
            <feOffset dx="-3" dy="2" />
            <feGaussianBlur stdDeviation="1" />
            <feComposite in2="hardAlpha" operator="arithmetic" k2="-1" k3="1" />
            <feColorMatrix type="matrix" values="0 0 0 0 0.608471 0 0 0 0 0.514611 0 0 0 0 1 0 0 0 0.1 0" />
            <feBlend mode="normal" in2="effect1_innerShadow_16668_5406" result="effect2_innerShadow_16668_5406" />
        </filter>
        <linearGradient
            id="paint0_linear_16668_5406"
            x1="47.5455"
            y1="0.000506544"
            x2="0.658414"
            y2="34.6297"
            gradientUnits="userSpaceOnUse"
        >
            <stop stop-color="#F1F7FD" />
            <stop offset="1" stop-color="#D6E9FA" />
        </linearGradient>
        <linearGradient
            id="paint1_linear_16668_5406"
            x1="33"
            y1="0.000488281"
            x2="33"
            y2="64.0005"
            gradientUnits="userSpaceOnUse"
        >
            <stop stop-color="#201E29" />
            <stop offset="1" />
        </linearGradient>
        <linearGradient
            id="paint2_linear_16668_5406"
            x1="47.1364"
            y1="0.000498644"
            x2="1.21716"
            y2="31.7952"
            gradientUnits="userSpaceOnUse"
        >
            <stop stop-color="#7A66CC" />
            <stop offset="1" stop-color="#292145" />
        </linearGradient>
        <linearGradient
            id="paint3_linear_16668_5406"
            x1="29.5"
            y1="10"
            x2="38.8846"
            y2="26.9615"
            gradientUnits="userSpaceOnUse"
        >
            <stop stop-color="#ADB6FF" />
            <stop offset="1" stop-color="#6D4AFF" />
        </linearGradient>
        <linearGradient id="paint4_linear_16668_5406" x1="34" y1="14.25" x2="34" y2="28" gradientUnits="userSpaceOnUse">
            <stop stop-color="white" />
            <stop offset="1" stop-color="#F5F6FE" />
        </linearGradient>
        <linearGradient
            id="paint5_linear_16668_5406"
            x1="43.4545"
            y1="10.9418"
            x2="11.4324"
            y2="33.7794"
            gradientUnits="userSpaceOnUse"
        >
            <stop stop-color="white" stop-opacity="0.1" />
            <stop offset="1" stop-color="white" stop-opacity="0.05" />
        </linearGradient>
        <linearGradient
            id="paint6_linear_16668_5406"
            x1="0"
            y1="63.75"
            x2="64"
            y2="63.75"
            gradientUnits="userSpaceOnUse"
        >
            <stop stop-color="#867FA2" stop-opacity="0" />
            <stop offset="0.205528" stop-color="#867FA2" stop-opacity="0.5" />
            <stop offset="0.830758" stop-color="#867FA2" stop-opacity="0.5" />
            <stop offset="1" stop-color="#867FA2" stop-opacity="0" />
        </linearGradient>
        <linearGradient
            id="paint7_linear_16668_5406"
            x1="43.2667"
            y1="32"
            x2="33.6815"
            y2="62.3915"
            gradientUnits="userSpaceOnUse"
        >
            <stop stop-color="#CBF5CF" />
            <stop offset="1" stop-color="#2BC9B3" />
        </linearGradient>
        <radialGradient
            id="paint8_radial_16668_5406"
            cx="0"
            cy="0"
            r="1"
            gradientTransform="matrix(-16.2317 9.75 -19.6625 -33.825 24.3476 40.25)"
            gradientUnits="userSpaceOnUse"
        >
            <stop stop-color="white" stop-opacity="0" />
            <stop offset="1" stop-color="white" />
        </radialGradient>
        <linearGradient id="paint9_linear_16668_5406" x1="34" y1="35" x2="34" y2="48" gradientUnits="userSpaceOnUse">
            <stop stop-color="#134B46" />
            <stop offset="1" stop-color="#1FA698" />
        </linearGradient>
        <linearGradient
            id="paint10_linear_16668_5406"
            x1="63.7657"
            y1="36.0005"
            x2="41.5772"
            y2="51.988"
            gradientUnits="userSpaceOnUse"
        >
            <stop stop-color="#CBF5CF" />
            <stop offset="1" stop-color="#0FBDAB" />
        </linearGradient>
        <linearGradient
            id="paint11_linear_16668_5406"
            x1="62.5991"
            y1="35.1769"
            x2="44.8463"
            y2="55.0073"
            gradientUnits="userSpaceOnUse"
        >
            <stop stop-color="#DCF8DE" />
            <stop offset="1" stop-color="#8EF2D9" />
        </linearGradient>
        <clipPath id="clip0_16668_5406">
            <rect width="64" height="64" fill="white" />
        </clipPath>
    </defs>
</svg>
