<svg width="64" height="64" viewBox="0 0 64 64" fill="none" xmlns="http://www.w3.org/2000/svg">
    <g clip-path="url(#clip0_16668_5381)">
        <path
            opacity="0.6"
            d="M3.5 13.5C3.5 11.567 5.067 10 7 10H57C58.933 10 60.5 11.567 60.5 13.5V46.5H3.5L3.5 13.5Z"
            fill="url(#paint0_linear_16668_5381)"
        />
        <path
            d="M4 13.5C4 11.8431 5.34315 10.5 7 10.5H57C58.6569 10.5 60 11.8431 60 13.5V46.5H4V13.5Z"
            fill="url(#paint1_linear_16668_5381)"
        />
        <g filter="url(#filter0_ii_16668_5381)">
            <path
                d="M5.5 13.5C5.5 12.6716 6.17157 12 7 12H57C57.8284 12 58.5 12.6716 58.5 13.5V46.5H5.5V13.5Z"
                fill="url(#paint2_radial_16668_5381)"
            />
        </g>
        <g filter="url(#filter1_d_16668_5381)">
            <path
                d="M36.5 21.25C36.5 18.9028 34.5972 17 32.25 17C29.9028 17 28 18.9028 28 21.25V22H26V21.25C26 17.7982 28.7982 15 32.25 15C35.7018 15 38.5 17.7982 38.5 21.25V29H36.5V21.25Z"
                fill="url(#paint3_linear_16668_5381)"
            />
            <path
                d="M21 30C21 27.2386 23.2386 25.0001 26 25.0001L39 25C41.7614 25 44 27.2385 44 29.9999L44 37.9996C44 40.7609 41.7614 42.9995 39 42.9995L26 42.9996C23.2386 42.9996 21 40.761 21 37.9997L21 30Z"
                fill="url(#paint4_linear_16668_5381)"
            />
            <path
                d="M34.2852 32.6621C34.2852 31.5575 33.3897 30.6621 32.2852 30.6621C31.1806 30.6621 30.2852 31.5576 30.2852 32.6621C30.2852 33.4969 30.7967 34.2121 31.5234 34.5117L31.0938 36.877L31.084 37.0273C31.1 37.3734 31.3863 37.6617 31.75 37.6621H32.8203L32.9707 37.6445C33.3081 37.5667 33.5411 37.2345 33.4766 36.877L33.0449 34.5117C33.7722 34.2124 34.2852 33.4974 34.2852 32.6621ZM34.7852 32.6621C34.7852 33.5594 34.3099 34.3406 33.6016 34.7812L33.9688 36.7871L33.9844 36.9199C34.0287 37.5826 33.5023 38.1618 32.8203 38.1621H31.75C31.0229 38.1617 30.4717 37.5031 30.6016 36.7871L30.9648 34.7812C30.2581 34.3402 29.7852 33.5581 29.7852 32.6621C29.7852 31.2814 30.9045 30.1621 32.2852 30.1621C33.6659 30.1621 34.7852 31.2814 34.7852 32.6621Z"
                fill="url(#paint5_linear_16668_5381)"
            />
            <path
                d="M32.2852 30.6621C33.3898 30.6621 34.2852 31.5575 34.2852 32.6621C34.2852 33.4974 33.7729 34.2124 33.0456 34.5117L33.476 36.8763C33.5503 37.2855 33.2356 37.6621 32.8197 37.6621H31.7507C31.3348 37.6621 31.0201 37.2855 31.0944 36.8763L31.5241 34.5117C30.7971 34.2123 30.2852 33.4972 30.2852 32.6621C30.2852 31.5575 31.1806 30.6621 32.2852 30.6621Z"
                fill="url(#paint6_linear_16668_5381)"
            />
        </g>
        <path
            opacity="0.75"
            d="M0 48.25C0 47.2835 0.808776 46.5 1.80645 46.5H62.1935C63.1912 46.5 64 47.2835 64 48.25C64 49.2165 63.1912 50 62.1935 50H1.80645C0.808774 50 0 49.2165 0 48.25Z"
            fill="url(#paint7_linear_16668_5381)"
        />
        <path
            d="M0 48.5C0 47.6716 0.693237 47 1.54839 47H62.4516C63.3068 47 64 47.6716 64 48.5C64 49.3284 63.3068 50 62.4516 50H1.54839C0.693235 50 0 49.3284 0 48.5Z"
            fill="url(#paint8_linear_16668_5381)"
        />
        <path d="M34.7403 48H29.2597C28.5525 48 28 47.5439 28 47H36C36 47.5439 35.4475 48 34.7403 48Z" fill="#C3BFD3" />
        <path
            opacity="0.6"
            d="M45.9922 22C45.9922 20.6193 47.1115 19.5 48.4922 19.5H61.4922C62.8729 19.5 63.9922 20.6193 63.9922 22V51C63.9922 52.3807 62.8729 53.5 61.4922 53.5H48.4922C47.1115 53.5 45.9922 52.3807 45.9922 51V22Z"
            fill="url(#paint9_linear_16668_5381)"
        />
        <path
            d="M46.4922 22C46.4922 20.8954 47.3876 20 48.4922 20H61.4922C62.5968 20 63.4922 20.8954 63.4922 22V51C63.4922 52.1046 62.5968 53 61.4922 53H48.4922C47.3876 53 46.4922 52.1046 46.4922 51V22Z"
            fill="url(#paint10_linear_16668_5381)"
        />
        <path
            d="M46.9922 22C46.9922 21.1716 47.6638 20.5 48.4922 20.5H61.4922C62.3206 20.5 62.9922 21.1716 62.9922 22V51C62.9922 51.8284 62.3206 52.5 61.4922 52.5H48.4922C47.6638 52.5 46.9922 51.8284 46.9922 51V22Z"
            fill="url(#paint11_linear_16668_5381)"
        />
        <circle cx="55.0004" cy="22.6" r="0.725" fill="#040C18" stroke="#9A97F7" stroke-width="0.25" />
        <g filter="url(#filter2_d_16668_5381)">
            <circle cx="55" cy="36.5" r="5" fill="#F5F6FE" />
        </g>
        <path
            d="M55 31.5L55 36.5L60 36.5C60 39.2614 57.7614 41.5 55 41.5C52.2386 41.5 50 39.2614 50 36.5C50 33.7386 52.2386 31.5 55 31.5Z"
            fill="url(#paint12_linear_16668_5381)"
        />
        <circle cx="55" cy="36.5" r="5.125" stroke="#F5F6FE" stroke-width="0.25" />
    </g>
    <defs>
        <filter
            id="filter0_ii_16668_5381"
            x="3.5"
            y="10"
            width="55"
            height="38.5"
            filterUnits="userSpaceOnUse"
            color-interpolation-filters="sRGB"
        >
            <feFlood flood-opacity="0" result="BackgroundImageFix" />
            <feBlend mode="normal" in="SourceGraphic" in2="BackgroundImageFix" result="shape" />
            <feColorMatrix
                in="SourceAlpha"
                type="matrix"
                values="0 0 0 0 0 0 0 0 0 0 0 0 0 0 0 0 0 0 127 0"
                result="hardAlpha"
            />
            <feOffset dy="-2" />
            <feGaussianBlur stdDeviation="1.5" />
            <feComposite in2="hardAlpha" operator="arithmetic" k2="-1" k3="1" />
            <feColorMatrix type="matrix" values="0 0 0 0 0.425 0 0 0 0 0.375 0 0 0 0 0.625 0 0 0 0.1 0" />
            <feBlend mode="normal" in2="shape" result="effect1_innerShadow_16668_5381" />
            <feColorMatrix
                in="SourceAlpha"
                type="matrix"
                values="0 0 0 0 0 0 0 0 0 0 0 0 0 0 0 0 0 0 127 0"
                result="hardAlpha"
            />
            <feOffset dx="-3" dy="2" />
            <feGaussianBlur stdDeviation="1" />
            <feComposite in2="hardAlpha" operator="arithmetic" k2="-1" k3="1" />
            <feColorMatrix type="matrix" values="0 0 0 0 0 0 0 0 0 0 0 0 0 0 0 0 0 0 0.1 0" />
            <feBlend mode="normal" in2="effect1_innerShadow_16668_5381" result="effect2_innerShadow_16668_5381" />
        </filter>
        <filter
            id="filter1_d_16668_5381"
            x="15"
            y="9"
            width="35"
            height="39.9995"
            filterUnits="userSpaceOnUse"
            color-interpolation-filters="sRGB"
        >
            <feFlood flood-opacity="0" result="BackgroundImageFix" />
            <feColorMatrix
                in="SourceAlpha"
                type="matrix"
                values="0 0 0 0 0 0 0 0 0 0 0 0 0 0 0 0 0 0 127 0"
                result="hardAlpha"
            />
            <feOffset />
            <feGaussianBlur stdDeviation="3" />
            <feComposite in2="hardAlpha" operator="out" />
            <feColorMatrix type="matrix" values="0 0 0 0 0.11357 0 0 0 0 0.044078 0 0 0 0 0.403451 0 0 0 0.4 0" />
            <feBlend mode="normal" in2="BackgroundImageFix" result="effect1_dropShadow_16668_5381" />
            <feBlend mode="normal" in="SourceGraphic" in2="effect1_dropShadow_16668_5381" result="shape" />
        </filter>
        <filter
            id="filter2_d_16668_5381"
            x="48"
            y="29.5"
            width="14"
            height="14"
            filterUnits="userSpaceOnUse"
            color-interpolation-filters="sRGB"
        >
            <feFlood flood-opacity="0" result="BackgroundImageFix" />
            <feColorMatrix
                in="SourceAlpha"
                type="matrix"
                values="0 0 0 0 0 0 0 0 0 0 0 0 0 0 0 0 0 0 127 0"
                result="hardAlpha"
            />
            <feOffset />
            <feGaussianBlur stdDeviation="1" />
            <feComposite in2="hardAlpha" operator="out" />
            <feColorMatrix type="matrix" values="0 0 0 0 0.427451 0 0 0 0 0.290196 0 0 0 0 1 0 0 0 0.25 0" />
            <feBlend mode="normal" in2="BackgroundImageFix" result="effect1_dropShadow_16668_5381" />
            <feBlend mode="normal" in="SourceGraphic" in2="effect1_dropShadow_16668_5381" result="shape" />
        </filter>
        <linearGradient
            id="paint0_linear_16668_5381"
            x1="56.3681"
            y1="7.50001"
            x2="34.8988"
            y2="54.392"
            gradientUnits="userSpaceOnUse"
        >
            <stop stop-color="#F6F6F9" />
            <stop offset="1" stop-color="#DCDAE6" />
        </linearGradient>
        <linearGradient
            id="paint1_linear_16668_5381"
            x1="32"
            y1="8.21429"
            x2="32"
            y2="44.7857"
            gradientUnits="userSpaceOnUse"
        >
            <stop stop-color="#5D5677" />
            <stop offset="1" stop-color="#958FAD" />
        </linearGradient>
        <radialGradient
            id="paint2_radial_16668_5381"
            cx="0"
            cy="0"
            r="1"
            gradientTransform="matrix(-30.0078 21.121 -35.6835 -14.3055 38 23)"
            gradientUnits="userSpaceOnUse"
        >
            <stop stop-color="#7A66CC" />
            <stop offset="1" stop-color="#292145" />
        </radialGradient>
        <linearGradient
            id="paint3_linear_16668_5381"
            x1="32.0581"
            y1="13.8769"
            x2="32.0581"
            y2="29.6319"
            gradientUnits="userSpaceOnUse"
        >
            <stop stop-color="#1FA698" />
            <stop offset="1" stop-color="#0FBDAB" />
        </linearGradient>
        <linearGradient
            id="paint4_linear_16668_5381"
            x1="43.5417"
            y1="26.2101"
            x2="35.6687"
            y2="43.0876"
            gradientUnits="userSpaceOnUse"
        >
            <stop stop-color="#CBF5CF" />
            <stop offset="1" stop-color="#0FBDAB" />
        </linearGradient>
        <linearGradient
            id="paint5_linear_16668_5381"
            x1="34.1624"
            y1="30.6621"
            x2="30.6956"
            y2="38.0911"
            gradientUnits="userSpaceOnUse"
        >
            <stop stop-color="#1E7A71" />
            <stop offset="1" stop-color="#A9EEB4" />
        </linearGradient>
        <linearGradient
            id="paint6_linear_16668_5381"
            x1="32.2238"
            y1="30.6047"
            x2="32.2238"
            y2="37.957"
            gradientUnits="userSpaceOnUse"
        >
            <stop stop-color="#134B46" />
            <stop offset="1" stop-color="#1FA698" />
        </linearGradient>
        <linearGradient
            id="paint7_linear_16668_5381"
            x1="63.4071"
            y1="46.4479"
            x2="63.1816"
            y2="52.3446"
            gradientUnits="userSpaceOnUse"
        >
            <stop stop-color="#F6F6F9" />
            <stop offset="1" stop-color="#DCDAE6" />
        </linearGradient>
        <linearGradient id="paint8_linear_16668_5381" x1="0" y1="48.5" x2="64" y2="48.5" gradientUnits="userSpaceOnUse">
            <stop stop-color="#716A8C" />
            <stop offset="1" stop-color="#534D6A" />
        </linearGradient>
        <linearGradient
            id="paint9_linear_16668_5381"
            x1="63.4379"
            y1="19.5"
            x2="37.963"
            y2="40.0644"
            gradientUnits="userSpaceOnUse"
        >
            <stop stop-color="#F6F6F9" />
            <stop offset="1" stop-color="#DCDAE6" />
        </linearGradient>
        <linearGradient
            id="paint10_linear_16668_5381"
            x1="54.9922"
            y1="19.7381"
            x2="54.9922"
            y2="53.2619"
            gradientUnits="userSpaceOnUse"
        >
            <stop stop-color="#201E29" />
            <stop offset="1" />
        </linearGradient>
        <linearGradient
            id="paint11_linear_16668_5381"
            x1="62.7916"
            y1="19.9839"
            x2="38.5765"
            y2="37.9068"
            gradientUnits="userSpaceOnUse"
        >
            <stop stop-color="#7A66CC" />
            <stop offset="1" stop-color="#292145" />
        </linearGradient>
        <linearGradient
            id="paint12_linear_16668_5381"
            x1="53.5"
            y1="32"
            x2="58.2692"
            y2="40.9231"
            gradientUnits="userSpaceOnUse"
        >
            <stop stop-color="#E031C6" />
            <stop offset="1" stop-color="#986CFF" />
        </linearGradient>
        <clipPath id="clip0_16668_5381">
            <rect width="64" height="64" fill="white" />
        </clipPath>
    </defs>
</svg>
