<svg width="36" height="48" viewBox="0 0 36 48" fill="none" xmlns="http://www.w3.org/2000/svg">
    <path
        d="M27.1634 36.4794C27.1634 36.9468 26.8643 37.3671 26.4205 37.5103C23.1105 38.5806 19.9721 38.7206 18.5776 38.7206C16.8038 38.7206 13.7944 38.5522 10.752 37.6236C10.2972 37.4851 9.99024 37.0617 9.99024 36.5864V33.5469H27.1634V36.4809V36.4794Z"
        fill="#4129A3"
    />
    <path
        d="M18.5831 42.5836C17.2936 42.5836 16.2483 41.5383 16.2483 40.2488C16.2483 38.9594 17.2936 37.9141 18.5831 37.9141C19.8725 37.9141 20.9178 38.9594 20.9178 40.2488C20.9178 41.5383 19.8725 42.5836 18.5831 42.5836Z"
        fill="#FFAC2E"
    />
    <path
        d="M18.5828 39.1875C18.1814 39.1875 17.8553 39.5136 17.8553 39.915C17.8554 40.1934 18.0141 40.4317 18.244 40.5537V41.0469C18.2441 41.233 18.3957 41.3838 18.5818 41.3838C18.7678 41.3835 18.9186 41.2328 18.9188 41.0469V40.5547C19.1497 40.4331 19.3092 40.1942 19.3094 39.915C19.3094 39.5138 18.984 39.1877 18.5828 39.1875Z"
        fill="#372580"
    />
    <path
        d="M31.1296 21.0745L23.0205 14.5644L28.0398 11.2728C29.0523 10.6195 30.4 11.2584 30.5336 12.4553L31.128 21.0745H31.1296Z"
        fill="#6D4AFF"
    />
    <path
        d="M5.73648 21.0745L13.8455 14.5644L8.82624 11.2728C7.8138 10.6195 6.466 11.2584 6.3325 12.4553L5.73807 21.0745H5.73648Z"
        fill="#6D4AFF"
    />
    <path
        d="M9.48348 14.9545L11.1571 16.0306L8.42813 17.8647L8.75872 15.2915C8.80323 14.9466 9.19103 14.767 9.48189 14.9545H9.48348Z"
        fill="#4A2DC5"
    />
    <path
        d="M27.3858 14.9545L25.7122 16.0306L28.4412 17.8647L28.1106 15.2915C28.0661 14.9466 27.6783 14.767 27.3874 14.9545H27.3858Z"
        fill="#4A2DC5"
    />
    <path
        d="M4.00055 27.0364C4.00055 33.6672 11.8695 36.0306 18.4336 36.0306C24.203 36.0306 32.8667 33.6672 32.8667 27.0364C32.8667 20.4055 26.4043 13.7031 18.4336 13.7031C10.4629 13.7031 4.00055 20.4055 4.00055 27.0364Z"
        fill="#6D4AFF"
    />
    <path
        d="M20.325 29.4062C19.7973 29.4062 19.3713 29.8338 19.3713 30.3599"
        stroke="white"
        stroke-width="0.397343"
        stroke-miterlimit="10"
        stroke-linecap="round"
    />
    <path
        d="M18.4109 29.4062C18.9385 29.4062 19.3645 29.8338 19.3645 30.3599"
        stroke="white"
        stroke-width="0.397343"
        stroke-miterlimit="10"
        stroke-linecap="round"
    />
    <path
        d="M24.9153 21.8835C27.6792 20.8901 29.6866 22.4732 30.5051 23.3092C30.7865 23.5969 30.9327 23.9942 30.8993 24.3963C30.8071 25.5375 30.281 27.9502 27.5473 28.9769C24.777 29.9719 22.7887 28.4492 21.9829 27.6466C21.7079 27.3732 21.5664 26.9934 21.5903 26.6072C21.6634 25.4501 22.1481 22.923 24.9153 21.8835Z"
        fill="white"
    />
    <path
        d="M21.5684 26.5786C21.7496 25.4612 22.1835 24.417 22.8924 23.6255C24.3069 22.0695 26.7101 21.4337 28.6745 22.2475C29.1657 22.4509 29.6377 22.7259 30.0653 23.0676C30.5087 23.3903 30.8774 23.8162 30.9283 24.3916C31.0396 23.8003 30.7058 23.2297 30.3005 22.8165C29.9047 22.3905 29.4375 22.0202 28.9098 21.7452C27.3109 20.8759 25.2764 21.092 23.7665 22.0584C22.2439 22.9754 21.3602 24.8604 21.5684 26.5786Z"
        fill="#372480"
    />
    <path
        d="M13.6518 21.8835C10.8878 20.8901 8.88045 22.4732 8.06191 23.3092C7.78059 23.5969 7.63437 23.9942 7.66775 24.3963C7.75993 25.5375 8.28602 27.9502 11.0198 28.9769C13.7901 29.9719 15.7784 28.4492 16.5842 27.6466C16.8592 27.3732 17.0006 26.9934 16.9768 26.6072C16.9037 25.4501 16.4189 22.923 13.6518 21.8835Z"
        fill="white"
    />
    <path
        d="M16.9997 26.5786C17.2079 24.862 16.3242 22.9754 14.8016 22.0584C13.2933 21.092 11.2573 20.8759 9.65835 21.7452C9.13068 22.0202 8.6634 22.3905 8.26764 22.8165C7.86235 23.2281 7.52858 23.8003 7.63983 24.3916C7.69069 23.8162 8.05784 23.3919 8.50287 23.0676C8.93041 22.7275 9.40246 22.4509 9.89358 22.2475C11.8581 21.4337 14.2612 22.0695 15.6758 23.6255C16.3846 24.417 16.8185 25.4612 16.9997 26.5786Z"
        fill="#372480"
    />
    <path
        d="M13.6003 28.226C12.8787 28.226 12.2938 27.106 12.2938 25.7243C12.2938 24.3427 12.8787 23.2227 13.6003 23.2227C14.3218 23.2227 14.9067 24.3427 14.9067 25.7243C14.9067 27.106 14.3218 28.226 13.6003 28.226Z"
        fill="#4129A3"
    />
    <path
        opacity="0.7"
        d="M12.6395 24.5756C12.3112 24.5756 12.0451 24.3094 12.0451 23.9811C12.0451 23.6529 12.3112 23.3867 12.6395 23.3867C12.9678 23.3867 13.2339 23.6529 13.2339 23.9811C13.2339 24.3094 12.9678 24.5756 12.6395 24.5756Z"
        fill="white"
    />
    <path
        d="M27.1849 28.226C26.4633 28.226 25.8784 27.106 25.8784 25.7243C25.8784 24.3427 26.4633 23.2227 27.1849 23.2227C27.9064 23.2227 28.4913 24.3427 28.4913 25.7243C28.4913 27.106 27.9064 28.226 27.1849 28.226Z"
        fill="#4129A3"
    />
    <path
        opacity="0.7"
        d="M26.2241 24.5756C25.8958 24.5756 25.6297 24.3094 25.6297 23.9811C25.6297 23.6529 25.8958 23.3867 26.2241 23.3867C26.5524 23.3867 26.8185 23.6529 26.8185 23.9811C26.8185 24.3094 26.5524 24.5756 26.2241 24.5756Z"
        fill="white"
    />
</svg>
