<svg width="82" height="18" viewBox="0 0 82 18" fill="none" xmlns="http://www.w3.org/2000/svg">
    <path d="M78.0225 16.9035V0.0282593H81.1897V16.9035H78.0225Z" fill="white" />
    <path
        d="M60.3291 16.9035L66.4408 0.0282593H70.3256L76.4373 16.9035H73.0722L71.7855 13.2662H64.9562L63.6695 16.9035H60.3291ZM65.7975 10.4949H70.9442L68.643 3.93778C68.5193 3.56663 68.4451 3.29445 68.3956 3.04701H68.3461C68.2966 3.29445 68.2224 3.56663 68.0987 3.93778L65.7975 10.4949Z"
        fill="white"
    />
    <path
        d="M48.5242 17.1741C44.9116 17.1741 42.3135 14.5265 42.3135 11.0871C42.3135 7.6477 44.9116 5.02486 48.5242 5.02486C52.1368 5.02486 54.7349 7.6477 54.7349 11.0871C54.7349 14.5265 52.1368 17.1741 48.5242 17.1741ZM48.5242 14.4275C50.3305 14.4275 51.642 13.0666 51.642 11.0871C51.642 9.13233 50.3305 7.74668 48.5242 7.74668C46.7179 7.74668 45.4065 9.13233 45.4065 11.0871C45.4065 13.0666 46.7179 14.4275 48.5242 14.4275Z"
        fill="white"
    />
    <path
        d="M22.768 10.2953C22.768 7.07859 24.5496 5.02486 27.8653 5.02486C30.1664 5.02486 31.3541 6.41051 31.75 7.12808H31.7995C32.1954 6.41051 33.4079 5.02486 35.7091 5.02486C39.0247 5.02486 40.8063 7.07859 40.8063 10.2953V16.9019H37.6638V10.5427C37.6638 8.83541 36.971 7.77142 35.5111 7.77142C34.0512 7.77142 33.3584 8.83541 33.3584 10.5427V16.9019H30.2159V10.5427C30.2159 8.83541 29.5231 7.77142 28.0632 7.77142C26.6033 7.77142 25.9105 8.83541 25.9105 10.5427V16.9019H22.768V10.2953Z"
        fill="white"
    />
    <path
        d="M15.173 17.1741C11.7336 17.1493 9.80363 14.9471 9.80363 11.8789V5.27229H12.9461V11.6562C12.9461 13.3388 13.6884 14.378 15.173 14.4028C16.7566 14.4275 17.4495 13.3883 17.4495 11.6562V5.27229H20.5919V11.9036C20.5919 14.8729 18.3897 17.1741 15.173 17.1741Z"
        fill="white"
    />
    <path
        d="M0 11.7383V0H3.12109V11.7383C3.12121 12.821 3.99933 13.6982 5.08203 13.6982H8.4082V16.8203H5.08203C2.27521 16.8203 0.000113393 14.5451 0 11.7383Z"
        fill="white"
    />
</svg>
