<svg width="117" height="27" viewBox="0 0 117 27" fill="none" xmlns="http://www.w3.org/2000/svg">
    <path
        d="M19.6884 21.6607C19.6884 22.058 19.4343 22.4152 19.057 22.5369C16.2435 23.4467 13.5759 23.5657 12.3905 23.5657C10.8828 23.5657 8.32481 23.4226 5.73881 22.6333C5.35211 22.5155 5.09131 22.1557 5.09131 21.7516V19.168H19.6884V21.662V21.6607Z"
        fill="#4129A3"
    />
    <path
        d="M12.3952 26.8481C11.2991 26.8481 10.4106 25.9595 10.4106 24.8635C10.4106 23.7674 11.2991 22.8789 12.3952 22.8789C13.4912 22.8789 14.3798 23.7674 14.3798 24.8635C14.3798 25.9595 13.4912 26.8481 12.3952 26.8481Z"
        fill="#FFAC2E"
    />
    <path
        d="M12.3945 23.9531C12.0535 23.9533 11.7773 24.2302 11.7773 24.5713C11.7774 24.8079 11.9119 25.0106 12.1074 25.1142V25.5361C12.1075 25.6942 12.2355 25.822 12.3935 25.8222C12.5518 25.8222 12.6806 25.6943 12.6806 25.5361V25.1152C12.8771 25.0119 13.0125 24.8087 13.0127 24.5713C13.0127 24.2301 12.7357 23.9531 12.3945 23.9531Z"
        fill="#372580"
    />
    <path
        d="M23.0597 8.55333L16.167 3.01976L20.4334 0.221876C21.294 -0.333374 22.4396 0.209726 22.5531 1.22701L23.0584 8.55333H23.0597Z"
        fill="#6D4AFF"
    />
    <path
        d="M1.47559 8.55333L8.36829 3.01976L4.10189 0.221876C3.24139 -0.333374 2.09569 0.209726 1.98229 1.22701L1.47699 8.55333H1.47559Z"
        fill="#6D4AFF"
    />
    <path
        d="M4.66028 3.35725L6.08288 4.27186L3.76318 5.83089L4.04428 3.64366C4.08208 3.3505 4.41168 3.19784 4.65888 3.35725H4.66028Z"
        fill="#4A2DC5"
    />
    <path
        d="M19.8771 3.35725L18.4546 4.27186L20.7742 5.83089L20.4932 3.64366C20.4554 3.3505 20.1257 3.19784 19.8785 3.35725H19.8771Z"
        fill="#4A2DC5"
    />
    <path
        d="M0 13.6223C0 19.2585 6.68863 21.2674 12.2681 21.2674C17.1721 21.2674 24.5362 19.2585 24.5362 13.6223C24.5362 7.98611 19.0432 2.28906 12.2681 2.28906C5.49303 2.28906 0 7.98611 0 13.6223Z"
        fill="#6D4AFF"
    />
    <path
        d="M13.8759 15.6484C13.4274 15.6484 13.0654 16.0118 13.0654 16.4589"
        stroke="white"
        stroke-width="0.337741"
        stroke-miterlimit="10"
        stroke-linecap="round"
    />
    <path
        d="M12.249 15.6484C12.6975 15.6484 13.0595 16.0118 13.0595 16.459"
        stroke="white"
        stroke-width="0.337741"
        stroke-miterlimit="10"
        stroke-linecap="round"
    />
    <path
        d="M17.7776 9.24611C20.127 8.40171 21.8333 9.74731 22.529 10.4579C22.7681 10.7024 22.8924 11.0402 22.864 11.382C22.7857 12.352 22.3385 14.4027 20.0148 15.2755C17.6601 16.1212 15.97 14.827 15.2851 14.1447C15.0513 13.9123 14.9311 13.5895 14.9514 13.2612C15.0135 12.2777 15.4256 10.1296 17.7776 9.24611Z"
        fill="white"
    />
    <path
        d="M14.9329 13.2404C15.0869 12.2907 15.4557 11.4031 16.0582 10.7303C17.2606 9.40769 19.3033 8.86729 20.9731 9.55899C21.3905 9.73189 21.7918 9.96569 22.1552 10.2561C22.5321 10.5304 22.8455 10.8924 22.8888 11.3815C22.9833 10.8789 22.6996 10.3939 22.3551 10.0427C22.0187 9.68059 21.6215 9.36579 21.173 9.13209C19.8139 8.39309 18.0847 8.57689 16.8013 9.39819C15.507 10.1778 14.7559 11.78 14.9329 13.2404Z"
        fill="#372480"
    />
    <path
        d="M8.20367 9.24611C5.85437 8.40171 4.14807 9.74731 3.45237 10.4579C3.21317 10.7024 3.08887 11.0402 3.11727 11.382C3.19567 12.352 3.64277 14.4027 5.96647 15.2755C8.32127 16.1212 10.0114 14.827 10.6963 14.1447C10.93 13.9123 11.0503 13.5895 11.03 13.2612C10.9678 12.2777 10.5558 10.1296 8.20367 9.24611Z"
        fill="white"
    />
    <path
        d="M11.0495 13.2404C11.2265 11.7814 10.4753 10.1778 9.18111 9.39819C7.89901 8.57689 6.16841 8.39309 4.80931 9.13209C4.36081 9.36579 3.96361 9.68059 3.62721 10.0427C3.28271 10.3926 2.99901 10.8789 3.09361 11.3815C3.13681 10.8924 3.44891 10.5317 3.82721 10.2561C4.19061 9.96699 4.59181 9.73189 5.00931 9.55899C6.67911 8.86729 8.72181 9.40769 9.92411 10.7303C10.5267 11.4031 10.8955 12.2907 11.0495 13.2404Z"
        fill="#372480"
    />
    <path
        d="M8.15982 14.6434C7.54652 14.6434 7.04932 13.6914 7.04932 12.517C7.04932 11.3426 7.54652 10.3906 8.15982 10.3906C8.77312 10.3906 9.27032 11.3426 9.27032 12.517C9.27032 13.6914 8.77312 14.6434 8.15982 14.6434Z"
        fill="#4129A3"
    />
    <path
        opacity="0.7"
        d="M7.34309 11.5417C7.06409 11.5417 6.83789 11.3155 6.83789 11.0365C6.83789 10.7574 7.06409 10.5312 7.34309 10.5312C7.62219 10.5312 7.84839 10.7574 7.84839 11.0365C7.84839 11.3155 7.62219 11.5417 7.34309 11.5417Z"
        fill="white"
    />
    <path
        d="M19.7067 14.6434C19.0934 14.6434 18.5962 13.6914 18.5962 12.517C18.5962 11.3426 19.0934 10.3906 19.7067 10.3906C20.3201 10.3906 20.8172 11.3426 20.8172 12.517C20.8172 13.6914 20.3201 14.6434 19.7067 14.6434Z"
        fill="#4129A3"
    />
    <path
        opacity="0.7"
        d="M18.8901 11.5417C18.6111 11.5417 18.3848 11.3155 18.3848 11.0365C18.3848 10.7574 18.6111 10.5312 18.8901 10.5312C19.1692 10.5312 19.3954 10.7574 19.3954 11.0365C19.3954 11.3155 19.1692 11.5417 18.8901 11.5417Z"
        fill="white"
    />
    <path d="M113.559 21.3127V4.4375H116.726V21.3127H113.559Z" fill="#6D4AFF" />
    <path
        d="M95.8652 21.3127L101.977 4.4375H105.862L111.973 21.3127H108.608L107.322 17.6755H100.492L99.2062 21.3127H95.8652ZM101.334 14.9041H106.48L104.179 8.34705C104.055 7.97585 103.981 7.70365 103.932 7.45625H103.882C103.833 7.70365 103.759 7.97585 103.635 8.34705L101.334 14.9041Z"
        fill="#6D4AFF"
    />
    <path
        d="M84.0603 21.5867C80.4477 21.5867 77.8496 18.9391 77.8496 15.4997C77.8496 12.0603 80.4477 9.4375 84.0603 9.4375C87.6729 9.4375 90.271 12.0603 90.271 15.4997C90.271 18.9391 87.6729 21.5867 84.0603 21.5867ZM84.0603 18.8402C85.8666 18.8402 87.178 17.4792 87.178 15.4997C87.178 13.545 85.8666 12.1593 84.0603 12.1593C82.254 12.1593 80.9426 13.545 80.9426 15.4997C80.9426 17.4792 82.254 18.8402 84.0603 18.8402Z"
        fill="#1B1340"
    />
    <path
        d="M58.3042 14.7079C58.3042 11.4912 60.0857 9.4375 63.4014 9.4375C65.7026 9.4375 66.8903 10.8232 67.2862 11.5407H67.3357C67.7316 10.8232 68.944 9.4375 71.2452 9.4375C74.5609 9.4375 76.3424 11.4912 76.3424 14.7079V21.3145H73.2V14.9554C73.2 13.248 72.5071 12.1841 71.0472 12.1841C69.5874 12.1841 68.8945 13.248 68.8945 14.9554V21.3145H65.7521V14.9554C65.7521 13.248 65.0592 12.1841 63.5993 12.1841C62.1395 12.1841 61.4466 13.248 61.4466 14.9554V21.3145H58.3042V14.7079Z"
        fill="#1B1340"
    />
    <path
        d="M50.7092 21.5853C47.2698 21.5606 45.3398 19.3584 45.3398 16.2902V9.68359H48.4823V16.0675C48.4823 17.75 49.2246 18.7893 50.7092 18.814C52.2928 18.8388 52.9857 17.7995 52.9857 16.0675V9.68359H56.1281V16.3149C56.1281 19.2842 53.9259 21.5853 50.7092 21.5853Z"
        fill="#1B1340"
    />
    <path
        d="M35.5361 16.1524V4.41406H38.6572V16.1524C38.6573 17.2351 39.5354 18.1123 40.6181 18.1123H43.9443V21.2344H40.6181C37.8113 21.2344 35.5362 18.9592 35.5361 16.1524Z"
        fill="#1B1340"
    />
</svg>
