<svg width="230" height="170" viewBox="0 0 230 170" fill="none" xmlns="http://www.w3.org/2000/svg">
    <path d="M141.708 33.9844H201.292C206.101 33.9845 210 37.879 210 42.6831V63.2856C210 68.0898 206.101 71.9843 201.292 71.9844H133V42.6831C133.001 37.8791 136.9 33.9845 141.708 33.9844Z" fill="white" stroke="#E4E4E4" stroke-width="1.06272"/>
    <path d="M179.578 56.3389C181.582 56.3389 183.205 57.8266 183.205 59.6616C183.205 61.4967 181.582 62.9844 179.578 62.9844H143.627C141.624 62.9844 140 61.4967 140 59.6616C140 57.8266 141.624 56.3389 143.627 56.3389H179.578ZM198.673 42.9844C200.511 42.9844 202 44.4354 202 46.2257C202 48.0159 200.511 49.467 198.673 49.467H143.328C141.489 49.467 140 48.0159 140 46.2257C140 44.4354 141.489 42.9844 143.328 42.9844H198.673Z" fill="#D9D9D9"/>
    <path d="M151 32.9844C143.545 34.2641 142.18 35.3043 140.5 40.9844C138.82 35.3043 137.456 34.2641 130 32.9844C137.456 31.7047 138.82 30.6644 140.5 24.9844C142.18 30.6644 143.545 31.7047 151 32.9844Z" fill="#FFAC2F"/>
    <path d="M201 76.9844C205.418 76.9844 209 73.4026 209 68.9844C209 64.5661 205.418 60.9844 201 60.9844C196.582 60.9844 193 64.5661 193 68.9844C193 73.4026 196.582 76.9844 201 76.9844Z" fill="#FFAC2E"/>
    <path d="M194.401 62.7141C195.298 62.0902 195.174 60.5863 194.123 59.3549C193.074 58.1235 191.496 57.6309 190.599 58.2547C189.703 58.8785 189.826 60.3824 190.876 61.6138C191.927 62.8453 193.504 63.3379 194.401 62.7141Z" fill="#FFC880"/>
    <path d="M212.124 61.6139C213.173 60.3825 213.298 58.8785 212.401 58.2547C211.504 57.6309 209.926 58.1234 208.876 59.3549C207.827 60.5863 207.702 62.0903 208.599 62.7141C209.496 63.3379 211.074 62.8453 212.124 61.6139Z" fill="#FFC880"/>
    <path d="M198.104 59.9611C199.444 59.7245 200.259 57.7525 199.925 55.5561C199.592 53.3599 198.236 51.7712 196.896 52.0077C195.557 52.2442 194.741 54.2164 195.075 56.4126C195.408 58.6088 196.765 60.1975 198.104 59.9611Z" fill="#FFC880"/>
    <path d="M206.925 56.4126C207.259 54.2163 206.443 52.2442 205.104 52.0077C203.764 51.7712 202.408 53.3599 202.075 55.5561C201.741 57.7524 202.556 59.7245 203.896 59.9611C205.235 60.1975 206.592 58.6088 206.925 56.4126Z" fill="#FFC880"/>
    <path d="M201.5 84.9844C199.567 84.9844 198 83.4003 198 81.4454V69.5233C198 67.5684 199.567 65.9844 201.5 65.9844C203.433 65.9844 205 67.5684 205 69.5233V81.4454C205 83.4003 203.433 84.9844 201.5 84.9844Z" fill="#FFAC2E"/>
    <path d="M198.5 72.9844C197.671 72.9844 197 72.3135 197 71.4844C197 70.6552 197.671 69.9844 198.5 69.9844C199.329 69.9844 200 70.6552 200 71.4844" stroke="white" stroke-width="0.746607" stroke-miterlimit="10"/>
    <path d="M200 71.9844V81.9844" stroke="white" stroke-width="0.746607" stroke-miterlimit="10"/>
    <path d="M199 72.9844H201" stroke="white" stroke-width="0.746607" stroke-miterlimit="10"/>
    <path d="M204 72.9844C205.105 72.9844 206 72.3135 206 71.4844C206 70.6552 205.105 69.9844 204 69.9844C202.895 69.9844 202 70.6552 202 71.4844" stroke="white" stroke-width="0.746607" stroke-miterlimit="10"/>
    <path d="M202 71.9844V81.9844" stroke="white" stroke-width="0.746607" stroke-miterlimit="10"/>
    <path d="M204 72.9844H201" stroke="white" stroke-width="0.746607" stroke-miterlimit="10"/>
    <path d="M201.502 84.9844C203.434 84.9844 205 83.6415 205 81.9844H198C198 83.6415 199.566 84.9844 201.499 84.9844H201.502Z" fill="#EAE7E4"/>
    <path d="M88 137.077C88 137.077 76.6146 143.542 66.0133 149.148C55.6786 154.612 45.8917 157.206 39.0651 155.43C15.175 149.219 18.1147 132.687 18.1147 132.687C18.1147 132.687 18.5647 128.211 23.1147 127.142C27.6648 126.07 31.5251 130.601 34.5239 136.54C37.5228 142.476 44.0829 146.491 51.2558 144.901C59.2873 143.122 68.4619 137.405 68.4619 137.405L85.6347 131.144L88 137.08V137.077Z" fill="#6D4AFF"/>
    <mask id="mask0_653_8938" style="mask-type:luminance" maskUnits="userSpaceOnUse" x="17" y="126" width="71" height="31">
        <path d="M87.772 137.239C87.772 137.239 76.3564 143.808 65.7268 149.504C55.3647 155.055 45.5518 157.69 38.707 155.886C14.7534 149.575 17.7009 132.778 17.7009 132.778C17.7009 132.778 18.1521 128.231 22.7143 127.145C27.2764 126.055 31.147 130.659 34.1538 136.693C37.1606 142.724 43.7382 146.803 50.9302 145.188C58.983 143.381 68.1819 137.572 68.1819 137.572L85.4004 131.211L87.772 137.242V137.239Z" fill="white"/>
    </mask>
    <g mask="url(#mask0_653_8938)">
        <path d="M28.0714 106.688C18.5434 111.989 9.83458 108.623 9.83458 108.623C9.83458 108.623 8.10418 117.798 -1.42383 123.099C-1.42383 123.099 7.32054 142.552 29.2112 143.449C39.9918 124.375 28.0714 106.688 28.0714 106.688Z" fill="#4129A3"/>
    </g>
    <path d="M88 137.077C88 137.077 76.6146 143.542 66.0133 149.148C55.6786 154.612 45.8917 157.206 39.0651 155.43C15.175 149.219 18.1147 132.687 18.1147 132.687C18.1147 132.687 18.5647 128.211 23.1147 127.142C27.6648 126.07 31.5251 130.601 34.5239 136.54C37.5228 142.476 44.0829 146.491 51.2558 144.901C59.2873 143.122 68.4619 137.405 68.4619 137.405L85.6347 131.144L88 137.08V137.077Z" stroke="white" stroke-width="1.21382" stroke-miterlimit="10"/>
    <path d="M85.453 146.025C85.453 146.025 79.4544 154.898 79.1092 157.43C78.8558 159.276 79.0499 160.357 79.6244 161.45C80.1131 162.38 80.9023 163.109 81.962 162.967C83.3447 162.78 85.3096 161.999 87.2668 159.447L93 151.954L86.3908 143.984" fill="#4129A3"/>
    <path d="M85.453 146.025C85.453 146.025 79.4544 154.898 79.1092 157.43C78.8558 159.276 79.0499 160.357 79.6244 161.45C80.1131 162.38 80.9023 163.109 81.962 162.967C83.3447 162.78 85.3096 161.999 87.2668 159.447L93 151.954L86.3908 143.984" stroke="white" stroke-width="1.21382" stroke-miterlimit="10" stroke-linecap="round"/>
    <path d="M80.9119 156.742C80.9119 156.742 80.2241 157.577 80.218 159.888C80.218 160.654 80.7438 161.292 81.4825 161.512C82.2211 161.732 83.0244 162.415 83.5123 163.392C84.4389 165.254 84.0234 167.481 82.4513 167.719C77.6978 168.438 71.8273 167.469 71.8273 167.469C71.8273 167.469 69.8724 167.309 69.0415 163.324C68.4227 160.345 66.9755 153.081 65 150.984" fill="#6D4AFF"/>
    <path d="M68.0148 155.173L63.0026 148.274C58.5943 142.207 57.7649 134.244 60.8252 127.395C64.001 120.297 68.6726 114.569 77.2106 112.117L87.6091 109.809C91.061 109.045 93.9073 106.61 95.2049 103.32L99.6725 91.9844L121 100.396L113.911 146.524C113.911 146.524 109.022 147.345 103.474 149.13C98.5236 150.722 90.8535 153.355 83.1893 154.002C83.1893 154.002 81.9037 154.921 80.9231 156.984" fill="#6D4AFF"/>
    <mask id="mask1_653_8938" style="mask-type:luminance" maskUnits="userSpaceOnUse" x="65" y="142" width="25" height="26">
        <path d="M65.1895 150.959C67.1511 153.054 68.5881 160.318 69.2026 163.292C70.0277 167.275 71.9688 167.435 71.9688 167.435C71.9688 167.435 77.7982 168.403 82.5183 167.684C84.082 167.447 84.4945 165.221 83.5719 163.36C83.0875 162.38 82.3069 161.707 81.5563 161.481C80.8049 161.256 80.2948 160.623 80.3007 159.857C80.3333 156.26 82.8179 154.09 82.8179 154.09C82.8179 154.09 88.1577 154.09 89.7753 145.313C91.3929 136.536 65.1895 150.959 65.1895 150.959Z" fill="white"/>
    </mask>
    <g mask="url(#mask1_653_8938)">
        <path d="M77.8514 153.254C77.8514 153.254 72.8496 158.667 66.9551 157.668L65.9785 166.284L77.8933 172.776L90.8136 170.309L82.6631 157.258C82.6631 157.258 80.3325 157.442 77.8514 153.254Z" fill="#4129A3"/>
    </g>
    <path d="M82.3355 161.9C81.3202 161.217 79.7522 161.484 78.5744 161.804L78 161.984L78.5213 161.717C79.7659 161.13 81.4095 160.679 82.8045 161.243C82.8656 161.271 82.9131 161.288 83 161.342L82.3331 161.897L82.3355 161.9Z" fill="white"/>
    <path d="M89.1193 131.984C91.0131 135.758 91.5118 140.285 90.4552 144.414C89.4071 148.61 86.7759 152.203 83.6519 154.984L83 154.155C84.5679 152.872 86.0012 151.41 87.2076 149.759C90.9835 144.803 91.7497 137.697 89.1193 131.984Z" fill="white"/>
    <path d="M135.082 100.987L137.662 115.819C138.328 119.651 138.006 123.595 136.726 127.268L128.337 155.984L113.77 143.442L111 102.622L135.085 100.984L135.082 100.987Z" fill="#6D4AFF"/>
    <path d="M135 99.9713L134.661 99.6009L133.518 97.4214C121.265 103.263 106.738 102.722 95 95.9844V103.105C104.46 108.922 120.905 110.336 134.997 102.91V99.9681L135 99.9713Z" fill="#4129A3"/>
    <path d="M136 95.2161L130.295 94.9844L130 102.753L135.706 102.984L136 95.2161Z" fill="#4129A3"/>
    <path d="M106 65.469L99.4187 61.4957C97.1377 60.1171 94.252 61.6733 94.028 64.4029L93 76.9844L105.997 65.472L106 65.469Z" fill="#6D4AFF"/>
    <path d="M98.4033 66.1134L101 68.1072L97 71.9844L97.3318 66.8465C97.3747 66.1576 97.9489 65.7658 98.4033 66.1134Z" fill="#4A2DC5"/>
    <path d="M123.004 64.6061L129.664 60.5498C131.973 59.1433 135.038 60.5003 135.388 63.0803L137 74.9844L123 64.6061H123.004Z" fill="#6D4AFF"/>
    <path d="M131.067 65.1364L128 67.2986L133 70.9844L132.395 65.8135C132.313 65.1204 131.603 64.7594 131.069 65.1364H131.067Z" fill="#4A2DC5"/>
    <path d="M141.986 85.3096C142.512 97.4673 128.262 102.426 116.216 102.947C105.63 103.405 89.5451 99.7595 89.0177 87.6013C88.4903 75.4434 99.8157 62.6428 114.441 62.0089C129.066 61.3749 141.455 73.1518 141.982 85.3096H141.986Z" fill="#6D4AFF"/>
    <path d="M133.3 74.92C135.163 78.5629 133.18 83.112 128.874 85.0813C124.566 87.0507 119.566 85.6915 117.7 82.0487C115.838 78.4057 117.82 73.8568 122.126 71.8874C126.434 69.918 131.434 71.2772 133.3 74.92Z" fill="white"/>
    <path d="M129.33 80.9804C130.977 80.8768 132.164 78.7799 131.981 76.2968C131.799 73.8137 130.316 71.8848 128.67 71.9884C127.023 72.092 125.836 74.1889 126.019 76.672C126.201 79.155 127.684 81.084 129.33 80.9804Z" fill="#4129A3"/>
    <path opacity="0.7" d="M131 74.9844C131.552 74.9844 132 74.5367 132 73.9843C132 73.4321 131.552 72.9844 131 72.9844C130.448 72.9844 130 73.4321 130 73.9843C130 74.5367 130.448 74.9844 131 74.9844Z" fill="white"/>
    <path d="M118 77.5958C118.778 73.2648 123.648 70.6342 127.931 71.0221C132.549 71.3313 136.485 75.4784 134.45 79.9844C134.932 78.0157 134.48 75.9217 133.094 74.4256C128.85 69.9168 120.182 71.9554 118.003 77.5958H118Z" fill="#372480"/>
    <path d="M93.4421 76.5017C91.9522 80.3026 94.3501 84.7153 98.8018 86.3642C103.251 88.01 108.068 86.2679 109.558 82.467C111.048 78.6662 108.65 74.2535 104.197 72.6046C99.7491 70.9587 94.932 72.7008 93.4421 76.5017Z" fill="white"/>
    <path d="M104.577 82.9706C106.203 82.7672 107.262 80.3701 106.943 77.6162C106.625 74.8624 105.049 72.7949 103.423 72.9982C101.797 73.2014 100.738 75.5987 101.057 78.3524C101.375 81.1062 102.951 83.1739 104.577 82.9706Z" fill="#4129A3"/>
    <path opacity="0.7" d="M106 75.9844C106.553 75.9844 107 75.5367 107 74.9843C107 74.4321 106.553 73.9844 106 73.9844C105.448 73.9844 105 74.4321 105 74.9843C105 75.5367 105.448 75.9844 106 75.9844Z" fill="white"/>
    <path d="M109 78.2463C106.464 72.6271 98.1839 70.9449 94.5272 76.0403C93.3507 77.7347 93.144 79.9744 93.7819 81.9844C91.4255 77.4098 94.7388 72.7465 99.1383 72.1001C103.148 71.4137 107.86 73.822 109 78.2463Z" fill="#372480"/>
    <path d="M115.856 153.984C115.856 153.984 115.592 157.538 115.381 158.52C115.171 159.502 114.249 162.34 116.362 163.707C117.747 164.604 123.947 166.043 126.343 163.752C128.738 161.46 123.816 155.536 123.816 155.536L115.854 153.984H115.856Z" fill="#4129A3"/>
    <path d="M115.893 154.248L123.801 155.896C123.801 155.896 128.694 162.191 126.312 164.627C125.365 165.595 123.822 165.935 122.219 165.935C119.789 165.935 117.225 165.151 116.398 164.576C114.299 163.124 115.216 160.105 115.425 159.064C115.633 158.024 115.897 154.245 115.897 154.245M114.935 152.984L114.852 154.176C114.78 155.208 114.559 158.063 114.398 158.865C114.38 158.954 114.356 159.058 114.329 159.178C114.028 160.537 113.317 163.721 115.801 165.441C116.879 166.186 119.714 166.984 122.219 166.984C124.377 166.984 126.005 166.439 127.058 165.363C129.993 162.365 125.184 155.982 124.625 155.265L124.389 154.96L124.013 154.883L116.105 153.234L114.932 152.99L114.935 152.984Z" fill="white"/>
    <path d="M103 138.257C103 138.257 114.095 151.741 126.277 165.381C126.277 165.381 127.84 167.764 133.173 167.97C138.145 168.162 138.722 166.359 138.722 166.359C138.722 166.359 140.28 163.51 136.016 161.858C136.016 161.858 130.926 155.128 121.936 135.984" fill="#6D4AFF"/>
    <mask id="mask2_653_8938" style="mask-type:luminance" maskUnits="userSpaceOnUse" x="103" y="135" width="37" height="34">
        <path d="M103.363 137.998C103.363 137.998 115.922 153.825 126.696 165.671C126.696 165.671 128.263 168.102 133.609 168.312C138.593 168.508 139.171 166.668 139.171 166.668C139.171 166.668 140.733 163.763 136.459 162.077C136.459 162.077 131.356 155.211 122.345 135.68" fill="white"/>
    </mask>
    <g mask="url(#mask2_653_8938)">
        <path d="M127.457 153.016C127.457 153.016 125.499 158.976 119.523 158.756L122.78 164.793L131.984 172.297L144.471 168.156L134.691 155.28C134.691 155.28 130.408 156.034 127.461 153.016H127.457Z" fill="#4129A3"/>
    </g>
    <path d="M130.078 150.981C127.241 145.379 124.521 139.721 122 133.984C124.834 139.578 127.865 145.074 131 150.501L130.078 150.984V150.981Z" fill="white"/>
    <path d="M101 135.984C104.233 139.844 107.585 143.601 111 147.291L110.215 147.984C107.054 144.053 103.964 140.064 101 135.984Z" fill="white"/>
    <path d="M136.784 161.984C135.245 161.627 133.585 161.661 132 161.777C132.789 161.543 133.592 161.345 134.41 161.204C135.271 161.063 136.106 160.951 137 160.994L136.784 161.984Z" fill="white"/>
    <path d="M111 83.9853C112.058 83.961 112.952 84.4083 113 84.9844" stroke="white" stroke-width="0.867017" stroke-miterlimit="10" stroke-linecap="round"/>
    <path d="M115 83.9844C113.847 84.0068 112.953 84.4556 113.002 84.9844" stroke="white" stroke-width="0.867017" stroke-miterlimit="10" stroke-linecap="round"/>
    <path d="M83 161.984C83 161.984 85.017 163.233 84.9999 165.984" stroke="white" stroke-width="1.21382" stroke-miterlimit="10" stroke-linecap="round"/>
    <path d="M131.441 60.017C133.164 60.017 134.784 61.2593 135.03 63.1535L136.172 71.9875C139.601 75.9442 141.736 80.7447 141.948 85.6103C142.179 90.9094 139.566 94.8279 135.546 97.5981L135.335 102.909L137.56 115.594C138.228 119.4 137.905 123.315 136.622 126.963L129.708 150.434C134.054 158.572 136.415 161.731 136.415 161.731C140.687 163.411 139.126 166.296 139.126 166.296C139.126 166.296 138.604 167.946 134.286 167.946C134.056 167.946 133.817 167.94 133.565 167.931C128.222 167.721 126.656 165.305 126.656 165.305C120.673 158.524 114.954 151.782 110.677 146.669C108.779 147.097 106.245 147.731 103.558 148.59C98.6012 150.174 90.7845 152.806 83.1106 153.447C83.1106 153.447 81.8653 154.491 81.0254 156.182C80.7405 156.783 80.2932 157.97 80.2898 159.528C80.2898 160.289 80.8124 160.923 81.5445 161.142C82.2981 161.369 83.0755 162.039 83.5588 163.009C84.4783 164.859 84.066 167.072 82.5059 167.308C81.2272 167.503 79.869 167.574 78.5663 167.574C75.0604 167.574 71.9633 167.063 71.9633 167.063C71.9633 167.063 70.0235 166.904 69.1989 162.945C68.6507 160.3 67.443 154.255 65.7938 151.511L65.1886 150.682L63.0351 147.737C58.6213 141.701 57.7907 133.775 60.8549 126.959C64.0347 119.896 68.7123 114.195 77.2611 111.755L87.6729 109.46C91.0898 108.704 93.9141 106.329 95.2313 103.107C95.2313 103.107 95.2278 103.107 95.2253 103.104V98.1119C91.7758 95.734 89.3963 92.3998 89.2004 87.8792C88.9935 83.1141 90.6305 78.2545 93.5848 74.0735L94.3854 64.6671C94.5521 62.708 96.2072 61.3773 97.9871 61.3773C98.5952 61.3773 99.2153 61.5308 99.7961 61.87L104.863 64.8058C107.823 63.4811 111.077 62.6579 114.518 62.5103C114.895 62.4955 115.269 62.4867 115.642 62.4867C118.65 62.4867 121.551 63.006 124.256 63.9384L129.498 60.5924C130.112 60.2001 130.782 60.02 131.438 60.02M131.441 58.9844C130.56 58.9844 129.694 59.2382 128.94 59.722L124.117 62.8024C121.359 61.9084 118.51 61.454 115.642 61.454C115.253 61.454 114.862 61.4629 114.473 61.4806C111.193 61.6222 107.983 62.351 104.931 63.6522L100.321 60.9819C99.6062 60.5689 98.7996 60.3505 97.9896 60.3505C95.5511 60.3505 93.5583 62.171 93.3539 64.5875L92.5764 73.7195C89.5237 78.1335 87.9577 83.1701 88.1655 87.9323C88.3554 92.2671 90.3816 95.8727 94.1903 98.6513V102.924C92.9647 105.736 90.4612 107.798 87.4505 108.463L77.0387 110.758L77.0097 110.764L76.9797 110.772C69.175 112.997 63.753 118.01 59.9116 126.547C56.7021 133.678 57.5801 142.033 62.1986 148.354L64.3521 151.298L64.9306 152.09C66.4107 154.586 67.5619 160.135 68.1135 162.812L68.188 163.162C69.0895 167.497 71.3406 168.028 71.8179 168.093C72.1207 168.143 75.1314 168.615 78.5723 168.615C80.0819 168.615 81.459 168.524 82.6658 168.338C83.5289 168.208 84.2379 167.689 84.6622 166.878C85.2797 165.697 85.2113 164.004 84.4928 162.561C83.906 161.381 82.9147 160.483 81.8473 160.162C81.5326 160.067 81.3316 159.822 81.3316 159.54C81.3341 158.174 81.7284 157.141 81.9628 156.639C82.4879 155.585 83.203 154.807 83.5588 154.453C90.7614 153.792 98.0666 151.446 102.929 149.885L103.875 149.582C105.904 148.932 108.058 148.342 110.285 147.825C115.755 154.355 120.987 160.454 125.843 165.957C126.205 166.444 128.21 168.763 133.526 168.969C133.784 168.978 134.042 168.984 134.286 168.984C138.782 168.984 139.847 167.276 140.075 166.718C140.233 166.394 140.728 165.184 140.212 163.777C139.764 162.561 138.714 161.593 137.085 160.893C136.498 160.059 134.321 156.845 130.821 150.325L137.61 127.281C138.939 123.484 139.277 119.382 138.58 115.419L136.376 102.845L136.563 98.1468C140.986 94.9309 143.205 90.5908 142.985 85.5659C142.775 80.7035 140.707 75.7406 137.163 71.5538L136.062 63.0267C135.765 60.7252 133.781 58.9903 131.444 58.9903L131.441 58.9844Z" fill="white"/>
    <path d="M119.5 116.984C122.538 116.984 125 114.298 125 110.985C125 107.67 122.538 104.984 119.5 104.984C116.462 104.984 114 107.67 114 110.985C114 114.298 116.462 116.984 119.5 116.984Z" fill="#FC8F00"/>
    <path d="M122 104.984H119V116.984H122V104.984Z" fill="#FC8F00"/>
    <path d="M121.5 116.984C124.538 116.984 127 114.298 127 110.985C127 107.67 124.538 104.984 121.5 104.984C118.462 104.984 116 107.67 116 110.985C116 114.298 118.462 116.984 121.5 116.984Z" fill="#FFAC2E"/>
    <path d="M121.5 111.984C122.328 111.984 123 111.089 123 109.984C123 108.88 122.328 107.984 121.5 107.984C120.671 107.984 120 108.88 120 109.984C120 111.089 120.671 111.984 121.5 111.984Z" fill="#372580"/>
    <path d="M122 112.984V109.984" stroke="#372580" stroke-width="1.96293" stroke-miterlimit="10" stroke-linecap="round"/>
</svg>
