<svg width="64" height="64" viewBox="0 0 64 64" fill="none" xmlns="http://www.w3.org/2000/svg">
    <g clip-path="url(#clip0_16668_5355)">
        <path
            opacity="0.6"
            d="M3.5 19.5C3.5 17.567 5.067 16 7 16H57C58.933 16 60.5 17.567 60.5 19.5V52.5H3.5L3.5 19.5Z"
            fill="url(#paint0_linear_16668_5355)"
        />
        <path
            d="M4 19.5C4 17.8431 5.34315 16.5 7 16.5H57C58.6569 16.5 60 17.8431 60 19.5V52.5H4V19.5Z"
            fill="url(#paint1_linear_16668_5355)"
        />
        <g filter="url(#filter0_ii_16668_5355)">
            <path
                d="M5.5 19.5C5.5 18.6716 6.17157 18 7 18H57C57.8284 18 58.5 18.6716 58.5 19.5V52.5H5.5V19.5Z"
                fill="url(#paint2_linear_16668_5355)"
            />
        </g>
        <mask
            id="mask0_16668_5355"
            style="mask-type: alpha"
            maskUnits="userSpaceOnUse"
            x="5"
            y="18"
            width="54"
            height="35"
        >
            <path
                d="M5.5 19.5C5.5 18.6716 6.17157 18 7 18H57C57.8284 18 58.5 18.6716 58.5 19.5V52.5H5.5V19.5Z"
                fill="black"
            />
        </mask>
        <g mask="url(#mask0_16668_5355)">
            <path
                d="M51.6061 49.725C50.3124 49.725 49.5352 49.1725 49.4229 48.3459L49.4274 48.3324H50.546L50.5505 48.3459C50.6268 48.6604 50.9997 48.8805 51.6241 48.8805C52.3878 48.8805 52.8325 48.5256 52.8325 47.8967V46.9578H52.7561C52.4731 47.4834 51.9386 47.7709 51.2602 47.7709C50.0159 47.7709 49.2432 46.8096 49.2432 45.417V45.408C49.2432 43.9885 50.0159 43.0092 51.2827 43.0092C51.961 43.0092 52.4911 43.3416 52.7696 43.8986H52.828V43.09H53.9466V47.8787C53.9466 49.0107 53.0391 49.725 51.6061 49.725ZM51.6061 46.8814C52.3833 46.8814 52.8505 46.284 52.8505 45.417V45.408C52.8505 44.541 52.3788 43.9391 51.6061 43.9391C50.829 43.9391 50.3888 44.541 50.3888 45.408V45.417C50.3888 46.284 50.829 46.8814 51.6061 46.8814Z"
                fill="url(#paint3_radial_16668_5355)"
            />
            <path
                d="M41.8454 48V41.5178H44.4328C45.7491 41.5178 46.6385 42.3848 46.6385 43.683V43.692C46.6385 44.9857 45.7491 45.8572 44.4328 45.8572H43.0043V48H41.8454ZM44.1498 42.4656H43.0043V44.9229H44.1498C44.9809 44.9229 45.4661 44.4736 45.4661 43.6965V43.6875C45.4661 42.9104 44.9809 42.4656 44.1498 42.4656Z"
                fill="url(#paint4_radial_16668_5355)"
            />
            <path
                d="M33.7242 45.8932V44.8779H35.6918V42.9328H36.707V44.8779H38.6746V45.8932H36.707V47.8383H35.6918V45.8932H33.7242Z"
                fill="url(#paint5_radial_16668_5355)"
            />
            <path
                d="M28.833 48.0988C27.355 48.0988 26.4836 47.142 26.4836 45.5383V45.5293C26.4836 43.9436 27.3505 42.9957 28.8285 42.9957C30.0908 42.9957 30.8455 43.6965 30.9712 44.7117V44.7297H29.9156L29.9111 44.7162C29.8078 44.24 29.4439 43.8986 28.833 43.8986C28.0693 43.8986 27.6201 44.5006 27.6201 45.5293V45.5383C27.6201 46.5805 28.0738 47.1914 28.833 47.1914C29.4125 47.1914 29.7673 46.9264 29.9066 46.4098L29.9156 46.3918L30.9712 46.3873L30.9623 46.4232C30.8005 47.4295 30.0773 48.0988 28.833 48.0988Z"
                fill="url(#paint6_radial_16668_5355)"
            />
            <path
                d="M20.622 48.1617C18.7218 48.1617 17.5538 46.8455 17.5538 44.7611V44.7521C17.5538 42.6633 18.7398 41.3561 20.622 41.3561C22.5087 41.3561 23.6857 42.6633 23.6857 44.7521V44.7611C23.6857 45.974 23.2859 46.9309 22.5806 47.5148L23.4431 48.6738H22.3111L21.7855 47.9686C21.4351 48.0943 21.0487 48.1617 20.622 48.1617ZM20.622 47.16C20.8017 47.16 20.9724 47.1375 21.1341 47.0926L20.2986 45.9695H21.4306L21.9068 46.6119C22.2886 46.1896 22.5042 45.5518 22.5042 44.7611V44.7521C22.5042 43.2877 21.772 42.3578 20.622 42.3578C19.472 42.3578 18.7353 43.2877 18.7353 44.7521V44.7611C18.7353 46.2166 19.454 47.16 20.622 47.16Z"
                fill="url(#paint7_radial_16668_5355)"
            />
            <path
                d="M10.0526 49.6307V43.09H11.1712V43.8582H11.2475C11.5171 43.3236 12.0516 43.0092 12.7389 43.0092C13.9698 43.0092 14.7559 43.9885 14.7559 45.5428V45.5518C14.7559 47.115 13.9833 48.0809 12.7389 48.0809C12.0651 48.0809 11.5036 47.7484 11.2475 47.2184H11.1712V49.6307H10.0526ZM12.3886 47.1375C13.1522 47.1375 13.6149 46.5355 13.6149 45.5518V45.5428C13.6149 44.5545 13.1522 43.9525 12.3886 43.9525C11.6294 43.9525 11.1577 44.5545 11.1577 45.5383V45.5473C11.1577 46.5311 11.6294 47.1375 12.3886 47.1375Z"
                fill="url(#paint8_radial_16668_5355)"
            />
            <path
                d="M51.6009 38.0809C50.9136 38.0809 50.379 37.7664 50.1095 37.2318H50.0331V38H48.9146V31.1898H50.0331V33.8717H50.1095C50.3655 33.3416 50.9271 33.0092 51.6009 33.0092C52.8452 33.0092 53.6179 33.9795 53.6179 35.5428V35.5518C53.6179 37.1061 52.8318 38.0809 51.6009 38.0809ZM51.2505 37.1375C52.0142 37.1375 52.4769 36.54 52.4769 35.5518V35.5428C52.4769 34.5545 52.0142 33.9525 51.2505 33.9525C50.4913 33.9525 50.0196 34.559 50.0196 35.5428V35.5518C50.0196 36.5355 50.4913 37.1375 51.2505 37.1375Z"
                fill="url(#paint9_radial_16668_5355)"
            />
            <path
                d="M18.036 38.0988C16.576 38.0988 15.6911 37.1195 15.6911 35.5562V35.5518C15.6911 34.0064 16.585 32.9957 17.9821 32.9957C19.3791 32.9957 20.2416 33.975 20.2416 35.4574V35.8258H16.8096C16.8231 36.7062 17.2993 37.2184 18.0584 37.2184C18.6649 37.2184 19.0108 36.9129 19.1186 36.6883L19.1321 36.6568H20.1967L20.1832 36.6973C20.026 37.3307 19.3702 38.0988 18.036 38.0988ZM17.9955 33.8717C17.3711 33.8717 16.9039 34.2939 16.8186 35.0756H19.15C19.0737 34.2715 18.62 33.8717 17.9955 33.8717Z"
                fill="url(#paint10_radial_16668_5355)"
            />
            <path
                d="M10.1439 38.0809C9.20957 38.0809 8.53125 37.5059 8.53125 36.6119V36.6029C8.53125 35.727 9.20059 35.2148 10.3955 35.143L11.6578 35.0666V34.6443C11.6578 34.1547 11.3389 33.8852 10.7369 33.8852C10.2248 33.8852 9.89238 34.0693 9.78008 34.3928L9.77559 34.4107H8.71992L8.72441 34.3703C8.83223 33.5437 9.62285 32.9957 10.7908 32.9957C12.0531 32.9957 12.7629 33.6066 12.7629 34.6443V38H11.6578V37.3262H11.5814C11.3119 37.8023 10.7908 38.0809 10.1439 38.0809ZM9.63633 36.558C9.63633 36.9758 9.99121 37.2229 10.4854 37.2229C11.1592 37.2229 11.6578 36.7826 11.6578 36.1986V35.8033L10.5527 35.8752C9.92832 35.9156 9.63633 36.1447 9.63633 36.549V36.558Z"
                fill="url(#paint11_radial_16668_5355)"
            />
            <path
                d="M46.8598 28V21.5178H47.866L51.051 25.983H51.1229V21.5178H52.2369V28H51.2352L48.0502 23.5348H47.9783V28H46.8598Z"
                fill="url(#paint12_radial_16668_5355)"
            />
            <path
                d="M42.9837 22.268C42.6154 22.268 42.3144 21.976 42.3144 21.6076C42.3144 21.2438 42.6154 20.9473 42.9837 20.9473C43.3476 20.9473 43.6486 21.2438 43.6486 21.6076C43.6486 21.976 43.3476 22.268 42.9837 22.268ZM42.4222 28V23.09H43.5408V28H42.4222Z"
                fill="url(#paint13_radial_16668_5355)"
            />
            <path
                d="M28.0584 28.0809C27.1241 28.0809 26.4457 27.5059 26.4457 26.6119V26.6029C26.4457 25.727 27.1151 25.2148 28.31 25.143L29.5723 25.0666V24.6443C29.5723 24.1547 29.2534 23.8852 28.6514 23.8852C28.1393 23.8852 27.8069 24.0693 27.6946 24.3928L27.6901 24.4107H26.6344L26.6389 24.3703C26.7467 23.5438 27.5373 22.9957 28.7053 22.9957C29.9676 22.9957 30.6774 23.6066 30.6774 24.6443V28H29.5723V27.3262H29.4959C29.2264 27.8023 28.7053 28.0809 28.0584 28.0809ZM27.5508 26.558C27.5508 26.9758 27.9057 27.2229 28.3998 27.2229C29.0737 27.2229 29.5723 26.7826 29.5723 26.1986V25.8033L28.4672 25.8752C27.8428 25.9156 27.5508 26.1447 27.5508 26.549V26.558Z"
                fill="url(#paint14_radial_16668_5355)"
            />
            <path
                d="M21.267 28V25.4439L18.9939 21.5178H20.2607L21.8061 24.2984H21.8824L23.4277 21.5178H24.6945L22.4215 25.4439V28H21.267Z"
                fill="url(#paint15_radial_16668_5355)"
            />
            <path
                d="M13.9814 28.1617C12.6562 28.1617 11.7623 27.3531 11.6769 26.2885L11.6724 26.2301H12.7416L12.7461 26.2615C12.8314 26.7916 13.3211 27.2139 13.9859 27.2139C14.7451 27.2139 15.2662 26.6793 15.2662 25.9156V25.9066C15.2662 25.152 14.7361 24.6219 13.9949 24.6219C13.631 24.6219 13.3166 24.7297 13.0785 24.9453C12.9617 25.0441 12.8539 25.1699 12.7775 25.3137H11.7847L12.0992 21.5178H15.9894V22.4701H13.0021L12.8224 24.4422H12.8988C13.1683 24.0064 13.6714 23.7459 14.2824 23.7459C15.4908 23.7459 16.3668 24.6443 16.3668 25.8842V25.8932C16.3668 27.2408 15.383 28.1617 13.9814 28.1617Z"
                fill="url(#paint16_radial_16668_5355)"
            />
            <path
                d="M34.1779 28.0005L36.9616 22.4906V22.4458H33.7305V21.4551H38.1889V22.4682L35.4084 28.0005H34.1779Z"
                fill="url(#paint17_radial_16668_5355)"
            />
            <ellipse opacity="0.5" cx="31" cy="36" rx="21" ry="13" fill="url(#paint18_radial_16668_5355)" />
        </g>
        <path
            opacity="0.75"
            d="M0 54.25C0 53.2835 0.808776 52.5 1.80645 52.5H62.1935C63.1912 52.5 64 53.2835 64 54.25C64 55.2165 63.1912 56 62.1935 56H1.80645C0.808774 56 0 55.2165 0 54.25Z"
            fill="url(#paint19_linear_16668_5355)"
        />
        <path
            d="M0 54.5C0 53.6716 0.693237 53 1.54839 53H62.4516C63.3068 53 64 53.6716 64 54.5C64 55.3284 63.3068 56 62.4516 56H1.54839C0.693235 56 0 55.3284 0 54.5Z"
            fill="url(#paint20_linear_16668_5355)"
        />
        <path d="M34.7403 54H29.2597C28.5525 54 28 53.5439 28 53H36C36 53.5439 35.4475 54 34.7403 54Z" fill="#C3BFD3" />
        <g filter="url(#filter1_d_16668_5355)">
            <mask id="path-10-inside-1_16668_5355" fill="white">
                <path
                    d="M31.252 31C32.14 27.5495 35.2723 25 39 25C43.4183 25 47 28.5817 47 33C47 37.4183 43.4183 41 39 41C35.2723 41 32.14 38.4505 31.252 35H25V41H21V35H17V31H31.252ZM35 33C35 35.2091 36.7909 37 39 37C41.2091 37 43 35.2091 43 33C43 30.7909 41.2091 29 39 29C36.7909 29 35 30.7909 35 33Z"
                />
            </mask>
            <path
                d="M31.252 31C32.14 27.5495 35.2723 25 39 25C43.4183 25 47 28.5817 47 33C47 37.4183 43.4183 41 39 41C35.2723 41 32.14 38.4505 31.252 35H25V41H21V35H17V31H31.252ZM35 33C35 35.2091 36.7909 37 39 37C41.2091 37 43 35.2091 43 33C43 30.7909 41.2091 29 39 29C36.7909 29 35 30.7909 35 33Z"
                fill="url(#paint21_linear_16668_5355)"
            />
            <path
                d="M31.252 31V31.2H31.407L31.4456 31.0499L31.252 31ZM31.252 35L31.4456 34.9501L31.407 34.8H31.252V35ZM25 35V34.8H24.8V35H25ZM25 41V41.2H25.2V41H25ZM21 41H20.8V41.2H21V41ZM21 35H21.2V34.8H21V35ZM17 35H16.8V35.2H17V35ZM17 31V30.8H16.8V31H17ZM31.252 31L31.4456 31.0499C32.3115 27.6856 35.3658 25.2 39 25.2V25V24.8C35.1789 24.8 31.9685 27.4135 31.0583 30.9501L31.252 31ZM39 25V25.2C43.3078 25.2 46.8 28.6922 46.8 33H47H47.2C47.2 28.4713 43.5287 24.8 39 24.8V25ZM47 33H46.8C46.8 37.3078 43.3078 40.8 39 40.8V41V41.2C43.5287 41.2 47.2 37.5287 47.2 33H47ZM39 41V40.8C35.3658 40.8 32.3115 38.3144 31.4456 34.9501L31.252 35L31.0583 35.0499C31.9685 38.5865 35.1789 41.2 39 41.2V41ZM31.252 35V34.8H25V35V35.2H31.252V35ZM25 35H24.8V41H25H25.2V35H25ZM25 41V40.8H21V41V41.2H25V41ZM21 41H21.2V35H21H20.8V41H21ZM21 35V34.8H17V35V35.2H21V35ZM17 35H17.2V31H17H16.8V35H17ZM17 31V31.2H31.252V31V30.8H17V31ZM35 33H34.8C34.8 35.3196 36.6804 37.2 39 37.2V37V36.8C36.9013 36.8 35.2 35.0987 35.2 33H35ZM39 37V37.2C41.3196 37.2 43.2 35.3196 43.2 33H43H42.8C42.8 35.0987 41.0987 36.8 39 36.8V37ZM43 33H43.2C43.2 30.6804 41.3196 28.8 39 28.8V29V29.2C41.0987 29.2 42.8 30.9013 42.8 33H43ZM39 29V28.8C36.6804 28.8 34.8 30.6804 34.8 33H35H35.2C35.2 30.9013 36.9013 29.2 39 29.2V29Z"
                fill="url(#paint22_radial_16668_5355)"
                mask="url(#path-10-inside-1_16668_5355)"
            />
        </g>
        <path
            d="M52 0C58.6274 0 64 5.37258 64 12C64 18.6274 58.6274 24 52 24C45.3726 24 40 18.6274 40 12C40 5.37258 45.3726 0 52 0Z"
            fill="url(#paint23_linear_16668_5355)"
        />
        <path
            d="M52 0.25C58.4893 0.25 63.75 5.51065 63.75 12C63.75 18.4893 58.4893 23.75 52 23.75C45.5107 23.75 40.25 18.4893 40.25 12C40.25 5.51065 45.5107 0.25 52 0.25Z"
            stroke="url(#paint24_linear_16668_5355)"
            stroke-opacity="0.1"
            stroke-width="0.5"
        />
        <path
            fill-rule="evenodd"
            clip-rule="evenodd"
            d="M55.4259 16.2852C55.899 16.2854 56.2823 16.6694 56.2823 17.1426C56.2822 17.6157 55.8989 17.9988 55.4259 17.999H48.5684C48.0951 17.999 47.7112 17.6158 47.711 17.1426C47.711 16.6692 48.095 16.2852 48.5684 16.2852H55.4259ZM51.9971 5.14258C52.4704 5.14276 52.8536 5.52673 52.8536 6V12.502L54.8194 10.5361C55.1541 10.2017 55.6967 10.2017 56.0313 10.5361C56.3661 10.8709 56.3661 11.4143 56.0313 11.749L52.6026 15.1768C52.2679 15.5115 51.7254 15.5115 51.3907 15.1768L47.962 11.749C47.6273 11.4143 47.6273 10.8709 47.962 10.5361C48.2966 10.2016 48.8392 10.2018 49.1739 10.5361L51.1397 12.502V6C51.1397 5.52661 51.5238 5.14258 51.9971 5.14258Z"
            fill="url(#paint25_linear_16668_5355)"
        />
    </g>
    <defs>
        <filter
            id="filter0_ii_16668_5355"
            x="3.5"
            y="16"
            width="55"
            height="38.5"
            filterUnits="userSpaceOnUse"
            color-interpolation-filters="sRGB"
        >
            <feFlood flood-opacity="0" result="BackgroundImageFix" />
            <feBlend mode="normal" in="SourceGraphic" in2="BackgroundImageFix" result="shape" />
            <feColorMatrix
                in="SourceAlpha"
                type="matrix"
                values="0 0 0 0 0 0 0 0 0 0 0 0 0 0 0 0 0 0 127 0"
                result="hardAlpha"
            />
            <feOffset dy="-2" />
            <feGaussianBlur stdDeviation="1.5" />
            <feComposite in2="hardAlpha" operator="arithmetic" k2="-1" k3="1" />
            <feColorMatrix type="matrix" values="0 0 0 0 0.425 0 0 0 0 0.375 0 0 0 0 0.625 0 0 0 0.1 0" />
            <feBlend mode="normal" in2="shape" result="effect1_innerShadow_16668_5355" />
            <feColorMatrix
                in="SourceAlpha"
                type="matrix"
                values="0 0 0 0 0 0 0 0 0 0 0 0 0 0 0 0 0 0 127 0"
                result="hardAlpha"
            />
            <feOffset dx="-3" dy="2" />
            <feGaussianBlur stdDeviation="1" />
            <feComposite in2="hardAlpha" operator="arithmetic" k2="-1" k3="1" />
            <feColorMatrix type="matrix" values="0 0 0 0 0 0 0 0 0 0 0 0 0 0 0 0 0 0 0.1 0" />
            <feBlend mode="normal" in2="effect1_innerShadow_16668_5355" result="effect2_innerShadow_16668_5355" />
        </filter>
        <filter
            id="filter1_d_16668_5355"
            x="12"
            y="22"
            width="38"
            height="24"
            filterUnits="userSpaceOnUse"
            color-interpolation-filters="sRGB"
        >
            <feFlood flood-opacity="0" result="BackgroundImageFix" />
            <feColorMatrix
                in="SourceAlpha"
                type="matrix"
                values="0 0 0 0 0 0 0 0 0 0 0 0 0 0 0 0 0 0 127 0"
                result="hardAlpha"
            />
            <feOffset dx="-1" dy="1" />
            <feGaussianBlur stdDeviation="2" />
            <feComposite in2="hardAlpha" operator="out" />
            <feColorMatrix type="matrix" values="0 0 0 0 0.0755788 0 0 0 0 0.397647 0 0 0 0 0.705559 0 0 0 0.2 0" />
            <feBlend mode="normal" in2="BackgroundImageFix" result="effect1_dropShadow_16668_5355" />
            <feBlend mode="normal" in="SourceGraphic" in2="effect1_dropShadow_16668_5355" result="shape" />
        </filter>
        <linearGradient
            id="paint0_linear_16668_5355"
            x1="56.3681"
            y1="13.5"
            x2="34.8988"
            y2="60.392"
            gradientUnits="userSpaceOnUse"
        >
            <stop stop-color="#F6F6F9" />
            <stop offset="1" stop-color="#DCDAE6" />
        </linearGradient>
        <linearGradient
            id="paint1_linear_16668_5355"
            x1="32"
            y1="14.2143"
            x2="32"
            y2="50.7857"
            gradientUnits="userSpaceOnUse"
        >
            <stop stop-color="#5D5677" />
            <stop offset="1" stop-color="#958FAD" />
        </linearGradient>
        <linearGradient
            id="paint2_linear_16668_5355"
            x1="56.0909"
            y1="18"
            x2="36.5739"
            y2="62.2883"
            gradientUnits="userSpaceOnUse"
        >
            <stop stop-color="#775DC9" />
            <stop offset="1" stop-color="#3A2E61" />
        </linearGradient>
        <radialGradient
            id="paint3_radial_16668_5355"
            cx="0"
            cy="0"
            r="1"
            gradientUnits="userSpaceOnUse"
            gradientTransform="translate(33 36) rotate(179.415) scale(23.0396 14.5992)"
        >
            <stop stop-color="#958DD9" />
            <stop offset="1" stop-color="#BAB9D5" />
        </radialGradient>
        <radialGradient
            id="paint4_radial_16668_5355"
            cx="0"
            cy="0"
            r="1"
            gradientUnits="userSpaceOnUse"
            gradientTransform="translate(33 36) rotate(179.415) scale(23.0396 14.5992)"
        >
            <stop stop-color="#958DD9" />
            <stop offset="1" stop-color="#BAB9D5" />
        </radialGradient>
        <radialGradient
            id="paint5_radial_16668_5355"
            cx="0"
            cy="0"
            r="1"
            gradientUnits="userSpaceOnUse"
            gradientTransform="translate(33 36) rotate(179.415) scale(23.0396 14.5992)"
        >
            <stop stop-color="#958DD9" />
            <stop offset="1" stop-color="#BAB9D5" />
        </radialGradient>
        <radialGradient
            id="paint6_radial_16668_5355"
            cx="0"
            cy="0"
            r="1"
            gradientUnits="userSpaceOnUse"
            gradientTransform="translate(33 36) rotate(179.415) scale(23.0396 14.5992)"
        >
            <stop stop-color="#958DD9" />
            <stop offset="1" stop-color="#BAB9D5" />
        </radialGradient>
        <radialGradient
            id="paint7_radial_16668_5355"
            cx="0"
            cy="0"
            r="1"
            gradientUnits="userSpaceOnUse"
            gradientTransform="translate(33 36) rotate(179.415) scale(23.0396 14.5992)"
        >
            <stop stop-color="#958DD9" />
            <stop offset="1" stop-color="#BAB9D5" />
        </radialGradient>
        <radialGradient
            id="paint8_radial_16668_5355"
            cx="0"
            cy="0"
            r="1"
            gradientUnits="userSpaceOnUse"
            gradientTransform="translate(33 36) rotate(179.415) scale(23.0396 14.5992)"
        >
            <stop stop-color="#958DD9" />
            <stop offset="1" stop-color="#BAB9D5" />
        </radialGradient>
        <radialGradient
            id="paint9_radial_16668_5355"
            cx="0"
            cy="0"
            r="1"
            gradientUnits="userSpaceOnUse"
            gradientTransform="translate(33 36) rotate(179.415) scale(23.0396 14.5992)"
        >
            <stop stop-color="#958DD9" />
            <stop offset="1" stop-color="#BAB9D5" />
        </radialGradient>
        <radialGradient
            id="paint10_radial_16668_5355"
            cx="0"
            cy="0"
            r="1"
            gradientUnits="userSpaceOnUse"
            gradientTransform="translate(33 36) rotate(179.415) scale(23.0396 14.5992)"
        >
            <stop stop-color="#958DD9" />
            <stop offset="1" stop-color="#BAB9D5" />
        </radialGradient>
        <radialGradient
            id="paint11_radial_16668_5355"
            cx="0"
            cy="0"
            r="1"
            gradientUnits="userSpaceOnUse"
            gradientTransform="translate(33 36) rotate(179.415) scale(23.0396 14.5992)"
        >
            <stop stop-color="#958DD9" />
            <stop offset="1" stop-color="#BAB9D5" />
        </radialGradient>
        <radialGradient
            id="paint12_radial_16668_5355"
            cx="0"
            cy="0"
            r="1"
            gradientUnits="userSpaceOnUse"
            gradientTransform="translate(33 36) rotate(179.415) scale(23.0396 14.5992)"
        >
            <stop stop-color="#958DD9" />
            <stop offset="1" stop-color="#BAB9D5" />
        </radialGradient>
        <radialGradient
            id="paint13_radial_16668_5355"
            cx="0"
            cy="0"
            r="1"
            gradientUnits="userSpaceOnUse"
            gradientTransform="translate(33 36) rotate(179.415) scale(23.0396 14.5992)"
        >
            <stop stop-color="#958DD9" />
            <stop offset="1" stop-color="#BAB9D5" />
        </radialGradient>
        <radialGradient
            id="paint14_radial_16668_5355"
            cx="0"
            cy="0"
            r="1"
            gradientUnits="userSpaceOnUse"
            gradientTransform="translate(33 36) rotate(179.415) scale(23.0396 14.5992)"
        >
            <stop stop-color="#958DD9" />
            <stop offset="1" stop-color="#BAB9D5" />
        </radialGradient>
        <radialGradient
            id="paint15_radial_16668_5355"
            cx="0"
            cy="0"
            r="1"
            gradientUnits="userSpaceOnUse"
            gradientTransform="translate(33 36) rotate(179.415) scale(23.0396 14.5992)"
        >
            <stop stop-color="#958DD9" />
            <stop offset="1" stop-color="#BAB9D5" />
        </radialGradient>
        <radialGradient
            id="paint16_radial_16668_5355"
            cx="0"
            cy="0"
            r="1"
            gradientUnits="userSpaceOnUse"
            gradientTransform="translate(33 36) rotate(179.415) scale(23.0396 14.5992)"
        >
            <stop stop-color="#958DD9" />
            <stop offset="1" stop-color="#BAB9D5" />
        </radialGradient>
        <radialGradient
            id="paint17_radial_16668_5355"
            cx="0"
            cy="0"
            r="1"
            gradientUnits="userSpaceOnUse"
            gradientTransform="translate(33 36) rotate(179.415) scale(23.0396 14.5992)"
        >
            <stop stop-color="#958DD9" />
            <stop offset="1" stop-color="#BAB9D5" />
        </radialGradient>
        <radialGradient
            id="paint18_radial_16668_5355"
            cx="0"
            cy="0"
            r="1"
            gradientUnits="userSpaceOnUse"
            gradientTransform="translate(31 34.5) rotate(90) scale(13.5 21.8077)"
        >
            <stop offset="0.266034" stop-color="#02FFE5" stop-opacity="0.25" />
            <stop offset="1" stop-color="#02FFE5" stop-opacity="0" />
        </radialGradient>
        <linearGradient
            id="paint19_linear_16668_5355"
            x1="63.4071"
            y1="52.4479"
            x2="63.1816"
            y2="58.3446"
            gradientUnits="userSpaceOnUse"
        >
            <stop stop-color="#F6F6F9" />
            <stop offset="1" stop-color="#DCDAE6" />
        </linearGradient>
        <linearGradient
            id="paint20_linear_16668_5355"
            x1="0"
            y1="54.5"
            x2="64"
            y2="54.5"
            gradientUnits="userSpaceOnUse"
        >
            <stop stop-color="#716A8C" />
            <stop offset="1" stop-color="#534D6A" />
        </linearGradient>
        <linearGradient
            id="paint21_linear_16668_5355"
            x1="5.95248"
            y1="24.2101"
            x2="33.1844"
            y2="53.5544"
            gradientUnits="userSpaceOnUse"
        >
            <stop stop-color="#DCF8DE" />
            <stop offset="1" stop-color="#4CDEC3" />
        </linearGradient>
        <radialGradient
            id="paint22_radial_16668_5355"
            cx="0"
            cy="0"
            r="1"
            gradientTransform="matrix(14.8453 5.90244 -51.5016 7.15 29.5614 32.1463)"
            gradientUnits="userSpaceOnUse"
        >
            <stop stop-opacity="0.05" />
            <stop offset="1" stop-opacity="0.1" />
        </radialGradient>
        <linearGradient
            id="paint23_linear_16668_5355"
            x1="63.6"
            y1="-6.0561e-08"
            x2="44.8197"
            y2="27.0666"
            gradientUnits="userSpaceOnUse"
        >
            <stop stop-color="#CBF5CF" />
            <stop offset="1" stop-color="#2BC9B3" />
        </linearGradient>
        <linearGradient
            id="paint24_linear_16668_5355"
            x1="61.6"
            y1="-0.705882"
            x2="50.1829"
            y2="24.8031"
            gradientUnits="userSpaceOnUse"
        >
            <stop stop-color="#C8FAE9" />
            <stop offset="1" stop-color="#BCFFD2" />
        </linearGradient>
        <linearGradient
            id="paint25_linear_16668_5355"
            x1="51.5687"
            y1="5.04461"
            x2="51.5687"
            y2="17.5847"
            gradientUnits="userSpaceOnUse"
        >
            <stop stop-color="#134B46" />
            <stop offset="1" stop-color="#1FA698" />
        </linearGradient>
        <clipPath id="clip0_16668_5355">
            <rect width="64" height="64" fill="white" />
        </clipPath>
    </defs>
</svg>
