<svg width="64" height="64" viewBox="0 0 64 64" fill="none" xmlns="http://www.w3.org/2000/svg">
    <g clip-path="url(#clip0_16668_5334)">
        <rect y="63.5" width="64" height="0.5" fill="url(#paint0_linear_16668_5334)" />
        <path
            d="M7.99219 8L53.9922 8V64H11.9922C9.78305 64 7.99219 62.2091 7.99219 60V8Z"
            fill="url(#paint1_linear_16668_5334)"
        />
        <path
            d="M63.9922 60C63.9922 62.2091 62.2013 64 59.9922 64H11.9922C14.2013 64 15.9922 62.2091 15.9922 60V56H63.9922V60Z"
            fill="url(#paint2_linear_16668_5334)"
        />
        <g filter="url(#filter0_i_16668_5334)">
            <path
                d="M-0.0078125 4C-0.0078125 1.79086 1.78305 0 3.99219 0H49.9922C52.2013 0 53.9922 1.79086 53.9922 4V8H-0.0078125V4Z"
                fill="url(#paint3_linear_16668_5334)"
            />
        </g>
        <path
            d="M-0.0078125 4C-0.0078125 1.79086 1.78305 0 3.99219 0C6.20133 0 7.99219 1.79086 7.99219 4V8H-0.0078125V4Z"
            fill="url(#paint4_linear_16668_5334)"
        />
        <mask
            id="mask0_16668_5334"
            style="mask-type: alpha"
            maskUnits="userSpaceOnUse"
            x="7"
            y="0"
            width="47"
            height="64"
        >
            <path
                d="M15.9922 60C15.9922 62.2091 14.2013 64 11.9922 64C9.78305 64 7.99219 62.2091 7.99219 60V0H53.9922V56H15.9922V60Z"
                fill="url(#paint5_linear_16668_5334)"
            />
        </mask>
        <g mask="url(#mask0_16668_5334)">
            <path
                d="M36.1514 50C34.4409 50 33.4134 49.2717 33.265 48.1822L33.2709 48.1645H34.7498L34.7557 48.1822C34.8567 48.5967 35.3496 48.8868 36.1752 48.8868C37.1848 48.8868 37.7728 48.4191 37.7728 47.5901V46.3526H37.6718C37.2977 47.0454 36.5909 47.4243 35.6941 47.4243C34.0489 47.4243 33.0274 46.1572 33.0274 44.3217V44.3098C33.0274 42.4388 34.0489 41.148 35.7238 41.148C36.6206 41.148 37.3214 41.5861 37.6897 42.3203H37.7669V41.2545H39.2457V47.5664C39.2457 49.0585 38.046 50 36.1514 50ZM36.1514 46.2519C37.1789 46.2519 37.7966 45.4644 37.7966 44.3217V44.3098C37.7966 43.1671 37.1729 42.3736 36.1514 42.3736C35.1239 42.3736 34.5419 43.1671 34.5419 44.3098V44.3217C34.5419 45.4644 35.1239 46.2519 36.1514 46.2519Z"
                fill="url(#paint6_radial_16668_5334)"
            />
            <path
                d="M24.0749 47.7263V39.1822H27.4959C29.2361 39.1822 30.4121 40.3249 30.4121 42.0361V42.048C30.4121 43.7532 29.2361 44.9019 27.4959 44.9019H25.6073V47.7263H24.0749ZM27.1218 40.4315H25.6073V43.6704H27.1218C28.2205 43.6704 28.8619 43.0782 28.8619 42.0539V42.0421C28.8619 41.0177 28.2205 40.4315 27.1218 40.4315Z"
                fill="url(#paint7_radial_16668_5334)"
            />
            <path
                d="M14.1663 44.9493V43.6111H16.7677V41.0473H18.1099V43.6111H20.7113V44.9493H18.1099V47.5131H16.7677V44.9493H14.1663Z"
                fill="url(#paint8_radial_16668_5334)"
            />
            <path
                d="M37.1729 32.2655C35.2189 32.2655 34.0667 31.0043 34.0667 28.8905V28.8786C34.0667 26.7885 35.213 25.5391 37.167 25.5391C38.8359 25.5391 39.8337 26.4628 40 27.801V27.8247H38.6043L38.5984 27.8069C38.4617 27.1793 37.9807 26.7293 37.1729 26.7293C36.1633 26.7293 35.5694 27.5227 35.5694 28.8786V28.8905C35.5694 30.2642 36.1692 31.0694 37.1729 31.0694C37.9391 31.0694 38.4083 30.7201 38.5924 30.0392L38.6043 30.0155L40 30.0095L39.9881 30.0569C39.7743 31.3832 38.8181 32.2655 37.1729 32.2655Z"
                fill="url(#paint9_radial_16668_5334)"
            />
            <path
                d="M27.1455 32.3484C24.6332 32.3484 23.089 30.6135 23.089 27.8661V27.8543C23.089 25.101 24.657 23.3779 27.1455 23.3779C29.64 23.3779 31.196 25.101 31.196 27.8543V27.8661C31.196 29.4648 30.6675 30.726 29.735 31.4957L30.8753 33.0234H29.3786L28.6838 32.0938C28.2205 32.2596 27.7097 32.3484 27.1455 32.3484ZM27.1455 31.028C27.3831 31.028 27.6088 30.9984 27.8226 30.9392L26.7179 29.4589H28.2146L28.8441 30.3056C29.349 29.749 29.634 28.9082 29.634 27.8661V27.8543C29.634 25.924 28.6659 24.6983 27.1455 24.6983C25.6251 24.6983 24.651 25.924 24.651 27.8543V27.8661C24.651 29.7845 25.6013 31.028 27.1455 31.028Z"
                fill="url(#paint10_radial_16668_5334)"
            />
            <path
                d="M14 34.2846V25.6635H15.4789V26.676H15.5798C15.9362 25.9714 16.6429 25.5569 17.5516 25.5569C19.179 25.5569 20.2183 26.8477 20.2183 28.8964V28.9082C20.2183 30.9688 19.1968 32.2418 17.5516 32.2418C16.6608 32.2418 15.9184 31.8036 15.5798 31.1049H15.4789V34.2846H14ZM17.0884 30.9984C18.098 30.9984 18.7098 30.2049 18.7098 28.9082V28.8964C18.7098 27.5937 18.098 26.8003 17.0884 26.8003C16.0847 26.8003 15.461 27.5937 15.461 28.8905V28.9023C15.461 30.199 16.0847 30.9984 17.0884 30.9984Z"
                fill="url(#paint11_radial_16668_5334)"
            />
            <path
                d="M32.8017 16.5441V8H36.383C38.0104 8 38.9903 8.81711 38.9903 10.1257V10.1375C38.9903 11.0316 38.3251 11.825 37.464 11.9612V12.0678C38.6162 12.1744 39.412 13.0033 39.412 14.1106V14.1224C39.412 15.6204 38.2955 16.5441 36.4662 16.5441H32.8017ZM36.0089 9.19014H34.334V11.6H35.8129C36.8997 11.6 37.4758 11.1796 37.4758 10.404V10.3921C37.4758 9.63422 36.9354 9.19014 36.0089 9.19014ZM36.0564 12.6836H34.334V15.354H36.1158C37.2442 15.354 37.8441 14.8862 37.8441 14.0158V14.004C37.8441 13.1395 37.2264 12.6836 36.0564 12.6836Z"
                fill="url(#paint12_radial_16668_5334)"
            />
            <path
                d="M22.893 13.7671V12.429H25.4944V9.86514H26.8367V12.429H29.438V13.7671H26.8367V16.331H25.4944V13.7671H22.893Z"
                fill="url(#paint13_radial_16668_5334)"
            />
            <path
                d="M16.251 16.6507C15.0156 16.6507 14.1188 15.8928 14.1188 14.7145V14.7027C14.1188 13.5481 15.0037 12.8731 16.5835 12.7783L18.2525 12.6777V12.1211C18.2525 11.4757 17.8308 11.1204 17.0349 11.1204C16.3579 11.1204 15.9184 11.3632 15.7699 11.7895L15.7639 11.8132H14.3682L14.3742 11.7599C14.5167 10.6704 15.562 9.94804 17.1062 9.94804C18.7751 9.94804 19.7135 10.7533 19.7135 12.1211V16.5441H18.2525V15.656H18.1515C17.7951 16.2836 17.1062 16.6507 16.251 16.6507ZM15.5798 14.6435C15.5798 15.1941 16.049 15.5198 16.7023 15.5198C17.5932 15.5198 18.2525 14.9395 18.2525 14.1698V13.6487L16.7914 13.7435C15.9659 13.7967 15.5798 14.0987 15.5798 14.6316V14.6435Z"
                fill="url(#paint14_radial_16668_5334)"
            />
        </g>
        <g filter="url(#filter1_d_16668_5334)">
            <mask id="path-8-inside-1_16668_5334" fill="white">
                <path
                    d="M57.3418 26.5762C61.217 27.9537 63.9922 31.6522 63.9922 36C63.9922 41.5228 59.515 46 53.9922 46C48.4693 46 43.9922 41.5228 43.9922 36C43.9922 31.6427 46.7795 27.9377 50.668 26.5674V19.915H43.9922V13.2422H50.668V8H57.3418V26.5762ZM54.001 31.7168C51.6317 31.7168 49.7109 33.6377 49.7109 36.0068C49.7111 38.3758 51.6318 40.2959 54.001 40.2959C56.3702 40.2959 58.2908 38.3758 58.291 36.0068C58.291 33.6377 56.3703 31.7168 54.001 31.7168Z"
                />
            </mask>
            <path
                d="M57.3418 26.5762C61.217 27.9537 63.9922 31.6522 63.9922 36C63.9922 41.5228 59.515 46 53.9922 46C48.4693 46 43.9922 41.5228 43.9922 36C43.9922 31.6427 46.7795 27.9377 50.668 26.5674V19.915H43.9922V13.2422H50.668V8H57.3418V26.5762ZM54.001 31.7168C51.6317 31.7168 49.7109 33.6377 49.7109 36.0068C49.7111 38.3758 51.6318 40.2959 54.001 40.2959C56.3702 40.2959 58.2908 38.3758 58.291 36.0068C58.291 33.6377 56.3703 31.7168 54.001 31.7168Z"
                fill="url(#paint15_linear_16668_5334)"
            />
            <path
                d="M57.3418 26.5762H57.1418V26.7173L57.2748 26.7646L57.3418 26.5762ZM50.668 26.5674L50.7344 26.756L50.868 26.709V26.5674H50.668ZM50.668 19.915H50.868V19.715H50.668V19.915ZM43.9922 19.915H43.7922V20.115H43.9922V19.915ZM43.9922 13.2422V13.0422H43.7922V13.2422H43.9922ZM50.668 13.2422V13.4422H50.868V13.2422H50.668ZM50.668 8V7.8H50.468V8H50.668ZM57.3418 8H57.5418V7.8H57.3418V8ZM54.001 31.7168V31.5168V31.5168V31.7168ZM49.7109 36.0068H49.5109V36.0069L49.7109 36.0068ZM54.001 40.2959V40.4959V40.4959V40.2959ZM58.291 36.0068L58.491 36.0069V36.0068H58.291ZM57.3418 26.5762L57.2748 26.7646C61.0729 28.1147 63.7922 31.7395 63.7922 36H63.9922H64.1922C64.1922 31.5649 61.3612 27.7927 57.4088 26.3877L57.3418 26.5762ZM63.9922 36H63.7922C63.7922 41.4124 59.4046 45.8 53.9922 45.8V46V46.2C59.6255 46.2 64.1922 41.6333 64.1922 36H63.9922ZM53.9922 46V45.8C48.5798 45.8 44.1922 41.4124 44.1922 36H43.9922H43.7922C43.7922 41.6333 48.3589 46.2 53.9922 46.2V46ZM43.9922 36H44.1922C44.1922 31.7302 46.9234 28.0991 50.7344 26.756L50.668 26.5674L50.6015 26.3788C46.6356 27.7764 43.7922 31.5552 43.7922 36H43.9922ZM50.668 26.5674H50.868V19.915H50.668H50.468V26.5674H50.668ZM50.668 19.915V19.715H43.9922V19.915V20.115H50.668V19.915ZM43.9922 19.915H44.1922V13.2422H43.9922H43.7922V19.915H43.9922ZM43.9922 13.2422V13.4422H50.668V13.2422V13.0422H43.9922V13.2422ZM50.668 13.2422H50.868V8H50.668H50.468V13.2422H50.668ZM50.668 8V8.2H57.3418V8V7.8H50.668V8ZM57.3418 8H57.1418V26.5762H57.3418H57.5418V8H57.3418ZM54.001 31.7168V31.5168C51.5212 31.5168 49.5109 33.5273 49.5109 36.0068H49.7109H49.9109C49.9109 33.7482 51.7421 31.9168 54.001 31.9168V31.7168ZM49.7109 36.0068L49.5109 36.0069C49.5111 38.4863 51.5214 40.4959 54.001 40.4959V40.2959V40.0959C51.7422 40.0959 49.9111 38.2653 49.9109 36.0068L49.7109 36.0068ZM54.001 40.2959V40.4959C56.4806 40.4959 58.4908 38.4863 58.491 36.0069L58.291 36.0068L58.091 36.0068C58.0908 38.2653 56.2598 40.0959 54.001 40.0959V40.2959ZM58.291 36.0068H58.491C58.491 33.5273 56.4808 31.5168 54.001 31.5168V31.7168V31.9168C56.2598 31.9168 58.091 33.7482 58.091 36.0068H58.291Z"
                fill="url(#paint16_radial_16668_5334)"
                fill-opacity="0.5"
                mask="url(#path-8-inside-1_16668_5334)"
            />
        </g>
    </g>
    <defs>
        <filter
            id="filter0_i_16668_5334"
            x="-0.0078125"
            y="0"
            width="54"
            height="8"
            filterUnits="userSpaceOnUse"
            color-interpolation-filters="sRGB"
        >
            <feFlood flood-opacity="0" result="BackgroundImageFix" />
            <feBlend mode="normal" in="SourceGraphic" in2="BackgroundImageFix" result="shape" />
            <feColorMatrix
                in="SourceAlpha"
                type="matrix"
                values="0 0 0 0 0 0 0 0 0 0 0 0 0 0 0 0 0 0 127 0"
                result="hardAlpha"
            />
            <feOffset dx="-0.125" dy="0.13" />
            <feComposite in2="hardAlpha" operator="arithmetic" k2="-1" k3="1" />
            <feColorMatrix type="matrix" values="0 0 0 0 0.603922 0 0 0 0 0.592157 0 0 0 0 0.968627 0 0 0 1 0" />
            <feBlend mode="normal" in2="shape" result="effect1_innerShadow_16668_5334" />
        </filter>
        <filter
            id="filter1_d_16668_5334"
            x="38.9922"
            y="5"
            width="28"
            height="46"
            filterUnits="userSpaceOnUse"
            color-interpolation-filters="sRGB"
        >
            <feFlood flood-opacity="0" result="BackgroundImageFix" />
            <feColorMatrix
                in="SourceAlpha"
                type="matrix"
                values="0 0 0 0 0 0 0 0 0 0 0 0 0 0 0 0 0 0 127 0"
                result="hardAlpha"
            />
            <feOffset dx="-1" dy="1" />
            <feGaussianBlur stdDeviation="2" />
            <feComposite in2="hardAlpha" operator="out" />
            <feColorMatrix type="matrix" values="0 0 0 0 0.313236 0 0 0 0 0.261681 0 0 0 0 0.519456 0 0 0 0.5 0" />
            <feBlend mode="normal" in2="BackgroundImageFix" result="effect1_dropShadow_16668_5334" />
            <feBlend mode="normal" in="SourceGraphic" in2="effect1_dropShadow_16668_5334" result="shape" />
        </filter>
        <linearGradient
            id="paint0_linear_16668_5334"
            x1="0"
            y1="63.75"
            x2="64"
            y2="63.75"
            gradientUnits="userSpaceOnUse"
        >
            <stop stop-color="white" stop-opacity="0" />
            <stop offset="0.205528" stop-color="white" stop-opacity="0.5" />
            <stop offset="0.830758" stop-color="white" stop-opacity="0.5" />
            <stop offset="1" stop-color="white" stop-opacity="0" />
        </linearGradient>
        <linearGradient
            id="paint1_linear_16668_5334"
            x1="31.9922"
            y1="8"
            x2="32"
            y2="64"
            gradientUnits="userSpaceOnUse"
        >
            <stop offset="0.725" stop-color="#8580B3" />
            <stop offset="1" stop-color="#4B416C" />
        </linearGradient>
        <linearGradient
            id="paint2_linear_16668_5334"
            x1="37.9922"
            y1="56"
            x2="37.9922"
            y2="64"
            gradientUnits="userSpaceOnUse"
        >
            <stop stop-color="#9A99C2" />
            <stop offset="1" stop-color="#6A5C99" />
        </linearGradient>
        <linearGradient
            id="paint3_linear_16668_5334"
            x1="27.9922"
            y1="0"
            x2="27.9922"
            y2="8"
            gradientUnits="userSpaceOnUse"
        >
            <stop stop-color="#9A99C2" />
            <stop offset="1" stop-color="#8580B3" />
        </linearGradient>
        <linearGradient
            id="paint4_linear_16668_5334"
            x1="3.99219"
            y1="0"
            x2="3.99219"
            y2="8"
            gradientUnits="userSpaceOnUse"
        >
            <stop stop-color="#4B416C" />
            <stop offset="1" stop-color="#6A5C99" />
        </linearGradient>
        <linearGradient
            id="paint5_linear_16668_5334"
            x1="28.4132"
            y1="9.01367"
            x2="28.4132"
            y2="16.5118"
            gradientUnits="userSpaceOnUse"
        >
            <stop stop-color="#EDF3F7" />
            <stop offset="1" stop-color="#D5DADE" />
        </linearGradient>
        <radialGradient
            id="paint6_radial_16668_5334"
            cx="0"
            cy="0"
            r="1"
            gradientTransform="matrix(-13 0.0557118 -0.0473055 -28.8044 27.0063 29)"
            gradientUnits="userSpaceOnUse"
        >
            <stop stop-color="#EBE6FF" />
            <stop offset="1" stop-color="#CECFEF" />
        </radialGradient>
        <radialGradient
            id="paint7_radial_16668_5334"
            cx="0"
            cy="0"
            r="1"
            gradientTransform="matrix(-13 0.0557118 -0.0473055 -28.8044 27.0063 29)"
            gradientUnits="userSpaceOnUse"
        >
            <stop stop-color="#EBE6FF" />
            <stop offset="1" stop-color="#CECFEF" />
        </radialGradient>
        <radialGradient
            id="paint8_radial_16668_5334"
            cx="0"
            cy="0"
            r="1"
            gradientTransform="matrix(-13 0.0557118 -0.0473055 -28.8044 27.0063 29)"
            gradientUnits="userSpaceOnUse"
        >
            <stop stop-color="#EBE6FF" />
            <stop offset="1" stop-color="#CECFEF" />
        </radialGradient>
        <radialGradient
            id="paint9_radial_16668_5334"
            cx="0"
            cy="0"
            r="1"
            gradientTransform="matrix(-13 0.0557118 -0.0473055 -28.8044 27.0063 29)"
            gradientUnits="userSpaceOnUse"
        >
            <stop stop-color="#EBE6FF" />
            <stop offset="1" stop-color="#CECFEF" />
        </radialGradient>
        <radialGradient
            id="paint10_radial_16668_5334"
            cx="0"
            cy="0"
            r="1"
            gradientTransform="matrix(-13 0.0557118 -0.0473055 -28.8044 27.0063 29)"
            gradientUnits="userSpaceOnUse"
        >
            <stop stop-color="#EBE6FF" />
            <stop offset="1" stop-color="#CECFEF" />
        </radialGradient>
        <radialGradient
            id="paint11_radial_16668_5334"
            cx="0"
            cy="0"
            r="1"
            gradientTransform="matrix(-13 0.0557118 -0.0473055 -28.8044 27.0063 29)"
            gradientUnits="userSpaceOnUse"
        >
            <stop stop-color="#EBE6FF" />
            <stop offset="1" stop-color="#CECFEF" />
        </radialGradient>
        <radialGradient
            id="paint12_radial_16668_5334"
            cx="0"
            cy="0"
            r="1"
            gradientTransform="matrix(-13 0.0557118 -0.0473055 -28.8044 27.0063 29)"
            gradientUnits="userSpaceOnUse"
        >
            <stop stop-color="#EBE6FF" />
            <stop offset="1" stop-color="#CECFEF" />
        </radialGradient>
        <radialGradient
            id="paint13_radial_16668_5334"
            cx="0"
            cy="0"
            r="1"
            gradientTransform="matrix(-13 0.0557118 -0.0473055 -28.8044 27.0063 29)"
            gradientUnits="userSpaceOnUse"
        >
            <stop stop-color="#EBE6FF" />
            <stop offset="1" stop-color="#CECFEF" />
        </radialGradient>
        <radialGradient
            id="paint14_radial_16668_5334"
            cx="0"
            cy="0"
            r="1"
            gradientTransform="matrix(-13 0.0557118 -0.0473055 -28.8044 27.0063 29)"
            gradientUnits="userSpaceOnUse"
        >
            <stop stop-color="#EBE6FF" />
            <stop offset="1" stop-color="#CECFEF" />
        </radialGradient>
        <linearGradient
            id="paint15_linear_16668_5334"
            x1="64.9795"
            y1="-5.99353"
            x2="27.85"
            y2="28.0099"
            gradientUnits="userSpaceOnUse"
        >
            <stop stop-color="#CBF5CF" />
            <stop offset="1" stop-color="#2BC9B3" />
        </linearGradient>
        <radialGradient
            id="paint16_radial_16668_5334"
            cx="0"
            cy="0"
            r="1"
            gradientTransform="matrix(-7.37805 18.804 -8.9375 -65.2353 55.0593 23.9111)"
            gradientUnits="userSpaceOnUse"
        >
            <stop stop-color="white" stop-opacity="0" />
            <stop offset="1" stop-color="white" />
        </radialGradient>
        <clipPath id="clip0_16668_5334">
            <rect width="64" height="64" fill="white" />
        </clipPath>
    </defs>
</svg>
