<svg width="64" height="64" viewBox="0 0 64 64" fill="none" xmlns="http://www.w3.org/2000/svg">
    <g clip-path="url(#clip0_16668_5309)">
        <mask
            id="mask0_16668_5309"
            style="mask-type: alpha"
            maskUnits="userSpaceOnUse"
            x="0"
            y="1"
            width="64"
            height="63"
        >
            <path
                d="M0 25C0 24.3705 0.296389 23.7777 0.800003 23.4L29.6001 1.8C31.0223 0.733331 32.9779 0.733336 34.4001 1.80001L63.2 23.4C63.7036 23.7777 64 24.3705 64 25V59.9991C64 62.2083 62.2091 63.9991 60 63.9991H4C1.79086 63.9991 0 62.2083 0 59.9991V25Z"
                fill="black"
            />
        </mask>
        <g mask="url(#mask0_16668_5309)">
            <g filter="url(#filter0_i_16668_5309)">
                <path
                    d="M30.2 1.35C31.2667 0.549999 32.7333 0.55 33.8 1.35L64 24H0L30.2 1.35Z"
                    fill="url(#paint0_radial_16668_5309)"
                />
            </g>
            <path d="M0 24H64V64H0V24Z" fill="url(#paint1_linear_16668_5309)" />
            <path
                d="M63.9004 24.0996V63.9004H0.0996094V24.0996H63.9004Z"
                stroke="#2B2836"
                stroke-opacity="0.5"
                stroke-width="0.2"
            />
        </g>
        <g filter="url(#filter1_dd_16668_5309)">
            <path
                d="M6 18C6 14.6863 8.68629 12 12 12H52C55.3137 12 58 14.6863 58 18V44H6V18Z"
                fill="url(#paint2_linear_16668_5309)"
            />
        </g>
        <path
            d="M57.5996 18C57.5996 14.9072 55.0928 12.4004 52 12.4004H12C8.90721 12.4004 6.40039 14.9072 6.40039 18V43.5996H57.5996V18ZM58 44H6V18C6 14.6863 8.68629 12 12 12H52L52.3086 12.0078C55.4789 12.1684 58 14.7898 58 18V44Z"
            fill="url(#paint3_radial_16668_5309)"
            fill-opacity="0.5"
        />
        <path
            fill-rule="evenodd"
            clip-rule="evenodd"
            d="M17.3132 18C17.7936 18.0006 18.1833 18.3896 18.1833 18.8701V22.4902L21.32 20.6797C21.7364 20.4398 22.2701 20.5847 22.5104 21.001C22.7494 21.4171 22.6057 21.9482 22.1901 22.1885L19.0534 23.999L22.1901 25.8115C22.6058 26.0518 22.7497 26.5829 22.5104 26.999C22.2701 27.4152 21.7364 27.5601 21.32 27.3203L18.1833 25.5078V29.1299C18.1832 29.6103 17.7935 29.9994 17.3132 30C16.8324 29.9999 16.4412 29.6106 16.4411 29.1299V25.5078L13.3044 27.3203C12.8881 27.5599 12.3571 27.4151 12.1169 26.999C11.8768 26.5828 12.0183 26.0521 12.4343 25.8115L15.569 23.999L12.4343 22.1885C12.0183 21.948 11.877 21.4172 12.1169 21.001C12.3572 20.5848 12.888 20.44 13.3044 20.6797L16.4411 22.4902V18.8701C16.4411 18.3893 16.8324 18.0001 17.3132 18ZM31.9938 18C32.4743 18.0006 32.864 18.3896 32.864 18.8701V22.4902L36.0007 20.6797C36.417 20.4399 36.9508 20.5848 37.1911 21.001C37.4301 21.4172 37.2857 21.9484 36.8698 22.1885L33.7331 23.999L36.8698 25.8115C37.2858 26.0517 37.4303 26.5828 37.1911 26.999C36.9508 27.4152 36.417 27.56 36.0007 27.3203L32.864 25.5078V29.1299C32.8638 29.6103 32.4742 29.9994 31.9938 30C31.513 30 31.1219 29.6107 31.1218 29.1299V25.5078L27.9851 27.3203C27.5687 27.56 27.0369 27.4152 26.7966 26.999C26.5567 26.5827 26.6989 26.0519 27.1149 25.8115L30.2497 23.999L27.1149 22.1885C26.6989 21.9481 26.5569 21.4172 26.7966 21.001C27.0369 20.5847 27.5687 20.4398 27.9851 20.6797L31.1218 22.4902V18.8701C31.1218 18.3892 31.5129 18 31.9938 18ZM46.6735 18C47.1538 18.0007 47.5427 18.3897 47.5427 18.8701V22.4902L50.6794 20.6797C51.0958 20.4396 51.6294 20.5846 51.8698 21.001C52.109 21.4172 51.9654 21.9483 51.5495 22.1885L48.4128 23.999L51.5495 25.8115C51.9654 26.0518 52.1092 26.5828 51.8698 26.999C51.6295 27.4153 51.0958 27.5603 50.6794 27.3203L47.5427 25.5078V29.1299C47.5425 29.6102 47.1537 29.9993 46.6735 30C46.1927 30 45.8016 29.6107 45.8015 29.1299V25.5078L42.6647 27.3203C42.2484 27.5601 41.7166 27.4152 41.4763 26.999C41.2362 26.5826 41.3784 26.0519 41.7946 25.8115L44.9284 23.999L41.7946 22.1885C41.3784 21.9482 41.2364 21.4173 41.4763 21.001C41.7166 20.5847 42.2484 20.4398 42.6647 20.6797L45.8015 22.4902V18.8701C45.8015 18.3892 46.1926 18 46.6735 18Z"
            fill="url(#paint4_linear_16668_5309)"
        />
        <mask
            id="mask1_16668_5309"
            style="mask-type: alpha"
            maskUnits="userSpaceOnUse"
            x="0"
            y="1"
            width="64"
            height="63"
        >
            <path
                d="M0 25C0 24.3705 0.296389 23.7777 0.800003 23.4L29.6001 1.8C31.0223 0.733331 32.9779 0.733336 34.4001 1.80001L63.2 23.4C63.7036 23.7777 64 24.3705 64 25V59.9991C64 62.2083 62.2091 63.9991 60 63.9991H4C1.79086 63.9991 0 62.2083 0 59.9991V25Z"
                fill="black"
            />
        </mask>
        <g mask="url(#mask1_16668_5309)">
            <g filter="url(#filter2_ii_16668_5309)">
                <path d="M0 24L32 44L0 64V24Z" fill="url(#paint5_linear_16668_5309)" />
            </g>
            <g filter="url(#filter3_ii_16668_5309)">
                <path d="M32 44L64 24V64L32 44Z" fill="url(#paint6_linear_16668_5309)" />
            </g>
            <g filter="url(#filter4_iii_16668_5309)">
                <path
                    d="M30.2 41.35C31.2667 40.55 32.7333 40.55 33.8 41.35L64 64H0L30.2 41.35Z"
                    fill="url(#paint7_linear_16668_5309)"
                />
            </g>
        </g>
        <g filter="url(#filter5_d_16668_5309)">
            <mask id="path-12-inside-1_16668_5309" fill="white">
                <path
                    d="M55.335 48.3994C58.0528 49.3609 60 51.9528 60 55C60 58.866 56.866 62 53 62C49.134 62 46 58.866 46 55C46 51.9517 47.9486 49.3591 50.668 48.3984V43.333H46V38.666H50.668V35H55.335V48.3994ZM53 52C51.3431 52 50 53.3431 50 55C50 56.6569 51.3431 58 53 58C54.6569 58 56 56.6569 56 55C56 53.3431 54.6569 52 53 52Z"
                />
            </mask>
            <path
                d="M55.335 48.3994C58.0528 49.3609 60 51.9528 60 55C60 58.866 56.866 62 53 62C49.134 62 46 58.866 46 55C46 51.9517 47.9486 49.3591 50.668 48.3984V43.333H46V38.666H50.668V35H55.335V48.3994ZM53 52C51.3431 52 50 53.3431 50 55C50 56.6569 51.3431 58 53 58C54.6569 58 56 56.6569 56 55C56 53.3431 54.6569 52 53 52Z"
                fill="url(#paint8_linear_16668_5309)"
            />
            <path
                d="M55.335 48.3994H55.135V48.5408L55.2683 48.588L55.335 48.3994ZM50.668 48.3984L50.7346 48.587L50.868 48.5399V48.3984H50.668ZM50.668 43.333H50.868V43.133H50.668V43.333ZM46 43.333H45.8V43.533H46V43.333ZM46 38.666V38.466H45.8V38.666H46ZM50.668 38.666V38.866H50.868V38.666H50.668ZM50.668 35V34.8H50.468V35H50.668ZM55.335 35H55.535V34.8H55.335V35ZM55.335 48.3994L55.2683 48.588C57.9087 49.5221 59.8 52.0402 59.8 55H60H60.2C60.2 51.8654 58.1969 49.1997 55.4017 48.2109L55.335 48.3994ZM60 55H59.8C59.8 58.7555 56.7555 61.8 53 61.8V62V62.2C56.9764 62.2 60.2 58.9764 60.2 55H60ZM53 62V61.8C49.2445 61.8 46.2 58.7555 46.2 55H46H45.8C45.8 58.9764 49.0235 62.2 53 62.2V62ZM46 55H46.2C46.2 52.0392 48.0926 49.5203 50.7346 48.587L50.668 48.3984L50.6014 48.2099C47.8046 49.1978 45.8 51.8643 45.8 55H46ZM50.668 48.3984H50.868V43.333H50.668H50.468V48.3984H50.668ZM50.668 43.333V43.133H46V43.333V43.533H50.668V43.333ZM46 43.333H46.2V38.666H46H45.8V43.333H46ZM46 38.666V38.866H50.668V38.666V38.466H46V38.666ZM50.668 38.666H50.868V35H50.668H50.468V38.666H50.668ZM50.668 35V35.2H55.335V35V34.8H50.668V35ZM55.335 35H55.135V48.3994H55.335H55.535V35H55.335ZM53 52V51.8C51.2327 51.8 49.8 53.2327 49.8 55H50H50.2C50.2 53.4536 51.4536 52.2 53 52.2V52ZM50 55H49.8C49.8 56.7673 51.2327 58.2 53 58.2V58V57.8C51.4536 57.8 50.2 56.5464 50.2 55H50ZM53 58V58.2C54.7673 58.2 56.2 56.7673 56.2 55H56H55.8C55.8 56.5464 54.5464 57.8 53 57.8V58ZM56 55H56.2C56.2 53.2327 54.7673 51.8 53 51.8V52V52.2C54.5464 52.2 55.8 53.4536 55.8 55H56Z"
                fill="url(#paint9_radial_16668_5309)"
                fill-opacity="0.5"
                mask="url(#path-12-inside-1_16668_5309)"
            />
        </g>
    </g>
    <defs>
        <filter
            id="filter0_i_16668_5309"
            x="0"
            y="0.75"
            width="64"
            height="23.25"
            filterUnits="userSpaceOnUse"
            color-interpolation-filters="sRGB"
        >
            <feFlood flood-opacity="0" result="BackgroundImageFix" />
            <feBlend mode="normal" in="SourceGraphic" in2="BackgroundImageFix" result="shape" />
            <feColorMatrix
                in="SourceAlpha"
                type="matrix"
                values="0 0 0 0 0 0 0 0 0 0 0 0 0 0 0 0 0 0 127 0"
                result="hardAlpha"
            />
            <feOffset dy="0.25" />
            <feComposite in2="hardAlpha" operator="arithmetic" k2="-1" k3="1" />
            <feColorMatrix type="matrix" values="0 0 0 0 1 0 0 0 0 1 0 0 0 0 1 0 0 0 0.3 0" />
            <feBlend mode="normal" in2="shape" result="effect1_innerShadow_16668_5309" />
        </filter>
        <filter
            id="filter1_dd_16668_5309"
            x="-10"
            y="-2"
            width="84"
            height="64"
            filterUnits="userSpaceOnUse"
            color-interpolation-filters="sRGB"
        >
            <feFlood flood-opacity="0" result="BackgroundImageFix" />
            <feColorMatrix
                in="SourceAlpha"
                type="matrix"
                values="0 0 0 0 0 0 0 0 0 0 0 0 0 0 0 0 0 0 127 0"
                result="hardAlpha"
            />
            <feOffset dy="2" />
            <feGaussianBlur stdDeviation="8" />
            <feComposite in2="hardAlpha" operator="out" />
            <feColorMatrix type="matrix" values="0 0 0 0 0.0588235 0 0 0 0 0.741176 0 0 0 0 0.670588 0 0 0 0.3 0" />
            <feBlend mode="normal" in2="BackgroundImageFix" result="effect1_dropShadow_16668_5309" />
            <feColorMatrix
                in="SourceAlpha"
                type="matrix"
                values="0 0 0 0 0 0 0 0 0 0 0 0 0 0 0 0 0 0 127 0"
                result="hardAlpha"
            />
            <feOffset dy="1" />
            <feGaussianBlur stdDeviation="2" />
            <feComposite in2="hardAlpha" operator="out" />
            <feColorMatrix type="matrix" values="0 0 0 0 0.180392 0 0 0 0 0.470588 0 0 0 0 0.32549 0 0 0 0.2 0" />
            <feBlend mode="normal" in2="effect1_dropShadow_16668_5309" result="effect2_dropShadow_16668_5309" />
            <feBlend mode="normal" in="SourceGraphic" in2="effect2_dropShadow_16668_5309" result="shape" />
        </filter>
        <filter
            id="filter2_ii_16668_5309"
            x="-2"
            y="22"
            width="34"
            height="44"
            filterUnits="userSpaceOnUse"
            color-interpolation-filters="sRGB"
        >
            <feFlood flood-opacity="0" result="BackgroundImageFix" />
            <feBlend mode="normal" in="SourceGraphic" in2="BackgroundImageFix" result="shape" />
            <feColorMatrix
                in="SourceAlpha"
                type="matrix"
                values="0 0 0 0 0 0 0 0 0 0 0 0 0 0 0 0 0 0 127 0"
                result="hardAlpha"
            />
            <feOffset dy="-2" />
            <feGaussianBlur stdDeviation="1.5" />
            <feComposite in2="hardAlpha" operator="arithmetic" k2="-1" k3="1" />
            <feColorMatrix type="matrix" values="0 0 0 0 0.203222 0 0 0 0 0.177941 0 0 0 0 0.296569 0 0 0 0.2 0" />
            <feBlend mode="normal" in2="shape" result="effect1_innerShadow_16668_5309" />
            <feColorMatrix
                in="SourceAlpha"
                type="matrix"
                values="0 0 0 0 0 0 0 0 0 0 0 0 0 0 0 0 0 0 127 0"
                result="hardAlpha"
            />
            <feOffset dx="-3" dy="2" />
            <feGaussianBlur stdDeviation="1" />
            <feComposite in2="hardAlpha" operator="arithmetic" k2="-1" k3="1" />
            <feColorMatrix type="matrix" values="0 0 0 0 1 0 0 0 0 1 0 0 0 0 1 0 0 0 0.1 0" />
            <feBlend mode="normal" in2="effect1_innerShadow_16668_5309" result="effect2_innerShadow_16668_5309" />
        </filter>
        <filter
            id="filter3_ii_16668_5309"
            x="30"
            y="22"
            width="34"
            height="44"
            filterUnits="userSpaceOnUse"
            color-interpolation-filters="sRGB"
        >
            <feFlood flood-opacity="0" result="BackgroundImageFix" />
            <feBlend mode="normal" in="SourceGraphic" in2="BackgroundImageFix" result="shape" />
            <feColorMatrix
                in="SourceAlpha"
                type="matrix"
                values="0 0 0 0 0 0 0 0 0 0 0 0 0 0 0 0 0 0 127 0"
                result="hardAlpha"
            />
            <feOffset dy="-2" />
            <feGaussianBlur stdDeviation="1.5" />
            <feComposite in2="hardAlpha" operator="arithmetic" k2="-1" k3="1" />
            <feColorMatrix type="matrix" values="0 0 0 0 0.203222 0 0 0 0 0.177941 0 0 0 0 0.296569 0 0 0 0.2 0" />
            <feBlend mode="normal" in2="shape" result="effect1_innerShadow_16668_5309" />
            <feColorMatrix
                in="SourceAlpha"
                type="matrix"
                values="0 0 0 0 0 0 0 0 0 0 0 0 0 0 0 0 0 0 127 0"
                result="hardAlpha"
            />
            <feOffset dx="-3" dy="2" />
            <feGaussianBlur stdDeviation="1" />
            <feComposite in2="hardAlpha" operator="arithmetic" k2="-1" k3="1" />
            <feColorMatrix type="matrix" values="0 0 0 0 1 0 0 0 0 1 0 0 0 0 1 0 0 0 0.1 0" />
            <feBlend mode="normal" in2="effect1_innerShadow_16668_5309" result="effect2_innerShadow_16668_5309" />
        </filter>
        <filter
            id="filter4_iii_16668_5309"
            x="-2"
            y="38.75"
            width="66"
            height="27.25"
            filterUnits="userSpaceOnUse"
            color-interpolation-filters="sRGB"
        >
            <feFlood flood-opacity="0" result="BackgroundImageFix" />
            <feBlend mode="normal" in="SourceGraphic" in2="BackgroundImageFix" result="shape" />
            <feColorMatrix
                in="SourceAlpha"
                type="matrix"
                values="0 0 0 0 0 0 0 0 0 0 0 0 0 0 0 0 0 0 127 0"
                result="hardAlpha"
            />
            <feOffset dy="-2" />
            <feGaussianBlur stdDeviation="1.5" />
            <feComposite in2="hardAlpha" operator="arithmetic" k2="-1" k3="1" />
            <feColorMatrix type="matrix" values="0 0 0 0 0.167073 0 0 0 0 0.119338 0 0 0 0 0.358013 0 0 0 0.2 0" />
            <feBlend mode="normal" in2="shape" result="effect1_innerShadow_16668_5309" />
            <feColorMatrix
                in="SourceAlpha"
                type="matrix"
                values="0 0 0 0 0 0 0 0 0 0 0 0 0 0 0 0 0 0 127 0"
                result="hardAlpha"
            />
            <feOffset dx="-3" dy="2" />
            <feGaussianBlur stdDeviation="1" />
            <feComposite in2="hardAlpha" operator="arithmetic" k2="-1" k3="1" />
            <feColorMatrix type="matrix" values="0 0 0 0 1 0 0 0 0 1 0 0 0 0 1 0 0 0 0.05 0" />
            <feBlend mode="normal" in2="effect1_innerShadow_16668_5309" result="effect2_innerShadow_16668_5309" />
            <feColorMatrix
                in="SourceAlpha"
                type="matrix"
                values="0 0 0 0 0 0 0 0 0 0 0 0 0 0 0 0 0 0 127 0"
                result="hardAlpha"
            />
            <feOffset dy="0.25" />
            <feComposite in2="hardAlpha" operator="arithmetic" k2="-1" k3="1" />
            <feColorMatrix type="matrix" values="0 0 0 0 1 0 0 0 0 1 0 0 0 0 1 0 0 0 0.3 0" />
            <feBlend mode="normal" in2="effect2_innerShadow_16668_5309" result="effect3_innerShadow_16668_5309" />
        </filter>
        <filter
            id="filter5_d_16668_5309"
            x="41"
            y="32"
            width="22"
            height="35"
            filterUnits="userSpaceOnUse"
            color-interpolation-filters="sRGB"
        >
            <feFlood flood-opacity="0" result="BackgroundImageFix" />
            <feColorMatrix
                in="SourceAlpha"
                type="matrix"
                values="0 0 0 0 0 0 0 0 0 0 0 0 0 0 0 0 0 0 127 0"
                result="hardAlpha"
            />
            <feOffset dx="-1" dy="1" />
            <feGaussianBlur stdDeviation="2" />
            <feComposite in2="hardAlpha" operator="out" />
            <feColorMatrix type="matrix" values="0 0 0 0 0.308549 0 0 0 0 0.25387 0 0 0 0 0.527268 0 0 0 0.2 0" />
            <feBlend mode="normal" in2="BackgroundImageFix" result="effect1_dropShadow_16668_5309" />
            <feBlend mode="normal" in="SourceGraphic" in2="effect1_dropShadow_16668_5309" result="shape" />
        </filter>
        <radialGradient
            id="paint0_radial_16668_5309"
            cx="0"
            cy="0"
            r="1"
            gradientTransform="matrix(-18.717 30.3715 -62.0589 -12.2174 50.717 1.23195e-06)"
            gradientUnits="userSpaceOnUse"
        >
            <stop stop-color="#A39FC6" />
            <stop offset="0.698128" stop-color="#8679AF" />
            <stop offset="1" stop-color="#61548C" />
        </radialGradient>
        <linearGradient id="paint1_linear_16668_5309" x1="32" y1="24" x2="32" y2="64" gradientUnits="userSpaceOnUse">
            <stop stop-color="#493F69" />
            <stop offset="1" stop-color="#2E2843" />
        </linearGradient>
        <linearGradient
            id="paint2_linear_16668_5309"
            x1="26.0909"
            y1="12"
            x2="45.1607"
            y2="35.6931"
            gradientUnits="userSpaceOnUse"
        >
            <stop stop-color="#DCF8DE" />
            <stop offset="1" stop-color="#8EF2D9" />
        </linearGradient>
        <radialGradient
            id="paint3_radial_16668_5309"
            cx="0"
            cy="0"
            r="1"
            gradientTransform="matrix(-19.1829 15.6 -23.2375 -54.12 34.7744 25.2)"
            gradientUnits="userSpaceOnUse"
        >
            <stop stop-color="white" stop-opacity="0" />
            <stop offset="1" stop-color="white" />
        </radialGradient>
        <linearGradient
            id="paint4_linear_16668_5309"
            x1="13.5825"
            y1="24.0502"
            x2="46.6771"
            y2="24.0502"
            gradientUnits="userSpaceOnUse"
        >
            <stop stop-color="#3BA36B" />
            <stop offset="1" stop-color="#1E7A71" />
        </linearGradient>
        <linearGradient
            id="paint5_linear_16668_5309"
            x1="30.5455"
            y1="24"
            x2="0.307561"
            y2="59.7323"
            gradientUnits="userSpaceOnUse"
        >
            <stop stop-color="#9A98DD" />
            <stop offset="1" stop-color="#7869A5" />
        </linearGradient>
        <linearGradient
            id="paint6_linear_16668_5309"
            x1="62.5455"
            y1="24"
            x2="32.3076"
            y2="59.7323"
            gradientUnits="userSpaceOnUse"
        >
            <stop stop-color="#9A98DD" />
            <stop offset="1" stop-color="#7869A5" />
        </linearGradient>
        <linearGradient
            id="paint7_linear_16668_5309"
            x1="61.0909"
            y1="40"
            x2="52.316"
            y2="74.5647"
            gradientUnits="userSpaceOnUse"
        >
            <stop stop-color="#BAB9D5" />
            <stop offset="1" stop-color="#8374B4" />
        </linearGradient>
        <linearGradient
            id="paint8_linear_16668_5309"
            x1="60.6911"
            y1="25.0572"
            x2="34.3471"
            y2="48.8258"
            gradientUnits="userSpaceOnUse"
        >
            <stop stop-color="#DCF8DE" />
            <stop offset="1" stop-color="#4CDEC3" />
        </linearGradient>
        <radialGradient
            id="paint9_radial_16668_5309"
            cx="0"
            cy="0"
            r="1"
            gradientTransform="matrix(-5.16463 13.3607 -6.25625 -46.3514 53.747 46.3052)"
            gradientUnits="userSpaceOnUse"
        >
            <stop stop-color="white" stop-opacity="0" />
            <stop offset="1" stop-color="white" />
        </radialGradient>
        <clipPath id="clip0_16668_5309">
            <rect width="64" height="64" fill="white" />
        </clipPath>
    </defs>
</svg>
