<svg width="40" height="40" viewBox="0 0 40 40" fill="none" xmlns="http://www.w3.org/2000/svg">
    <g clip-path="url(#clip0_11778_43831)">
        <g opacity="0.8" filter="url(#filter0_f_11778_43831)">
            <ellipse cx="20.0344" cy="29.5584" rx="10.4778" ry="1.25375" fill="#7A7F99" fill-opacity="0.2" />
        </g>
        <path
            d="M27.2857 11.5546C27.2857 7.21524 24.0238 3.69748 20 3.69748C15.9762 3.69748 12.7143 7.21524 12.7143 11.5546V15.7143H9.28571V11.5546C9.28571 5.17318 14.0827 0 20 0C25.9173 0 30.7143 5.17318 30.7143 11.5546V15.7143H27.2857V11.5546Z"
            fill="url(#paint0_linear_11778_43831)"
        />
        <path
            d="M3.92859 17.3823C3.92859 14.2263 6.48696 11.668 9.64287 11.668H30.3572C33.5131 11.668 36.0714 14.2263 36.0714 17.3823V34.287C36.0714 37.4429 33.5131 40.0013 30.3572 40.0013H9.64287C6.48696 40.0013 3.92859 37.4429 3.92859 34.287V17.3823Z"
            fill="url(#paint1_radial_11778_43831)"
        />
        <path
            d="M19.7171 21.5508C21.1312 21.5508 22.2775 22.7395 22.2775 24.206C22.2775 25.3148 21.6217 26.2641 20.6906 26.6615L21.2415 29.8007C21.3366 30.3439 20.9338 30.8439 20.4014 30.8439H19.0329C18.5005 30.8439 18.0977 30.3439 18.1928 29.8007L18.7428 26.6615C17.8122 26.2639 17.1568 25.3146 17.1568 24.206C17.1568 22.7395 18.3031 21.5508 19.7171 21.5508Z"
            fill="#5D5677"
        />
        <path
            d="M22.2799 24.2043C22.2799 22.7379 21.1336 21.5491 19.7196 21.5491C18.3055 21.5491 17.1592 22.7379 17.1592 24.2043C17.1592 25.3129 17.8146 26.2622 18.7453 26.6598L18.1952 29.799C18.1001 30.3422 18.5029 30.8422 19.0353 30.8422H20.4038C20.9362 30.8422 21.3391 30.3422 21.244 29.799L20.693 26.6598C21.6241 26.2624 22.2799 25.3132 22.2799 24.2043ZM23.1334 24.2043C23.1334 25.4212 22.5405 26.4909 21.6415 27.1274L22.0832 29.6408H22.0841C22.2743 30.7277 21.4682 31.7273 20.4038 31.7273H19.0353C17.971 31.7273 17.1648 30.7277 17.3551 29.6408L17.7952 27.1265C16.8973 26.4897 16.3058 25.4201 16.3058 24.2043C16.3058 22.2491 17.8342 20.6641 19.7196 20.6641C21.605 20.6641 23.1334 22.2491 23.1334 24.2043Z"
            fill="url(#paint2_linear_11778_43831)"
        />
        <g filter="url(#filter1_d_11778_43831)">
            <path
                d="M30.4291 5.138C31.0009 4.3915 32.1255 4.3915 32.6973 5.13799L33.9577 6.78338C34.2286 7.13709 34.649 7.34413 35.0946 7.34325L37.1442 7.33919C38.0592 7.33738 38.74 8.18418 38.5417 9.0774L38.0545 11.2715C37.9626 11.6853 38.0593 12.1186 38.3183 12.4541L39.6838 14.2229C40.2343 14.9359 39.9955 15.9743 39.1888 16.3752L37.2664 17.3306C36.8783 17.5234 36.5988 17.882 36.5064 18.3054L36.0427 20.431C35.844 21.3421 34.8397 21.8216 34.0062 21.4033L32.204 20.4989C31.8008 20.2965 31.3257 20.2965 30.9225 20.4989L29.1202 21.4033C28.2868 21.8216 27.2825 21.3421 27.0837 20.431L26.62 18.3054C26.5276 17.882 26.2481 17.5234 25.86 17.3306L23.9376 16.3752C23.131 15.9743 22.8921 14.9359 23.4426 14.2229L24.8081 12.4541C25.0672 12.1186 25.1638 11.6853 25.0719 11.2715L24.5848 9.0774C24.3865 8.18418 25.0673 7.33738 25.9822 7.33919L28.0319 7.34325C28.4774 7.34413 28.8979 7.13709 29.1688 6.78338L30.4291 5.138Z"
                fill="url(#paint3_linear_11778_43831)"
            />
        </g>
        <path
            d="M34.5853 10.345C34.808 10.1142 35.1689 10.1141 35.3915 10.345C35.614 10.5758 35.614 10.9501 35.3915 11.181L30.6808 16.0653C30.4582 16.2962 30.0973 16.2962 29.8747 16.0653L27.7339 13.8452C27.5113 13.6143 27.5113 13.2401 27.7339 13.0092C27.9565 12.7784 28.3174 12.7784 28.54 13.0092L30.2778 14.8113L34.5853 10.345Z"
            fill="white"
        />
    </g>
    <defs>
        <filter
            id="filter0_f_11778_43831"
            x="3.55664"
            y="22.3047"
            width="32.9556"
            height="14.5078"
            filterUnits="userSpaceOnUse"
            color-interpolation-filters="sRGB"
        >
            <feFlood flood-opacity="0" result="BackgroundImageFix" />
            <feBlend mode="normal" in="SourceGraphic" in2="BackgroundImageFix" result="shape" />
            <feGaussianBlur stdDeviation="3" result="effect1_foregroundBlur_11778_43831" />
        </filter>
        <filter
            id="filter1_d_11778_43831"
            x="20.1445"
            y="3.57812"
            width="20.8374"
            height="20.9766"
            filterUnits="userSpaceOnUse"
            color-interpolation-filters="sRGB"
        >
            <feFlood flood-opacity="0" result="BackgroundImageFix" />
            <feColorMatrix
                in="SourceAlpha"
                type="matrix"
                values="0 0 0 0 0 0 0 0 0 0 0 0 0 0 0 0 0 0 127 0"
                result="hardAlpha"
            />
            <feOffset dx="-1" dy="1" />
            <feGaussianBlur stdDeviation="1" />
            <feComposite in2="hardAlpha" operator="out" />
            <feColorMatrix type="matrix" values="0 0 0 0 0.125754 0 0 0 0 0.524105 0 0 0 0 0.457206 0 0 0 0.15 0" />
            <feBlend mode="normal" in2="BackgroundImageFix" result="effect1_dropShadow_11778_43831" />
            <feBlend mode="normal" in="SourceGraphic" in2="effect1_dropShadow_11778_43831" result="shape" />
        </filter>
        <linearGradient
            id="paint0_linear_11778_43831"
            x1="31.7857"
            y1="-3.0042"
            x2="12.482"
            y2="14.2563"
            gradientUnits="userSpaceOnUse"
        >
            <stop stop-color="#958FAD" />
            <stop offset="1" stop-color="#716A8C" />
        </linearGradient>
        <radialGradient
            id="paint1_radial_11778_43831"
            cx="0"
            cy="0"
            r="1"
            gradientTransform="matrix(-32.1429 28.3333 -32.1429 -31.6639 36.0714 11.668)"
            gradientUnits="userSpaceOnUse"
        >
            <stop stop-color="#E9E8EF" />
            <stop offset="1" stop-color="#716A8C" />
        </radialGradient>
        <linearGradient
            id="paint2_linear_11778_43831"
            x1="22.2799"
            y1="20.2215"
            x2="14.8477"
            y2="26.4909"
            gradientUnits="userSpaceOnUse"
        >
            <stop stop-color="#5D5677" />
            <stop offset="1" stop-color="#C3BFD3" />
        </linearGradient>
        <linearGradient
            id="paint3_linear_11778_43831"
            x1="39.2708"
            y1="3.21331"
            x2="16.8395"
            y2="32.6304"
            gradientUnits="userSpaceOnUse"
        >
            <stop stop-color="#A9EEB4" />
            <stop offset="1" stop-color="#1E7A71" />
        </linearGradient>
        <clipPath id="clip0_11778_43831">
            <rect width="40" height="40" fill="white" />
        </clipPath>
    </defs>
</svg>
