<svg width="64" height="64" viewBox="0 0 64 64" fill="none" xmlns="http://www.w3.org/2000/svg">
    <g clip-path="url(#clip0_16668_5450)">
        <path d="M2 32H4V48H2V32Z" fill="url(#paint0_linear_16668_5450)" />
        <path d="M60 32H62V48H60V32Z" fill="url(#paint1_linear_16668_5450)" />
        <g filter="url(#filter0_d_16668_5450)">
            <path
                d="M4 13.5C4 8.25329 8.25329 4 13.5 4H50.5C55.7467 4 60 8.25329 60 13.5V50.5C60 55.7467 55.7467 60 50.5 60H13.5C8.25329 60 4 55.7467 4 50.5V13.5Z"
                fill="url(#paint2_linear_16668_5450)"
            />
            <path
                d="M13.5 4.5H50.5C55.4706 4.5 59.5 8.52944 59.5 13.5V50.5C59.5 55.4706 55.4706 59.5 50.5 59.5H13.5C8.52944 59.5 4.5 55.4706 4.5 50.5V13.5C4.5 8.52944 8.52944 4.5 13.5 4.5Z"
                stroke="url(#paint3_linear_16668_5450)"
            />
        </g>
        <path
            d="M24 56H13.4053C10.4261 56 8.00293 53.5485 8.00293 50.5371L8 40H24V56ZM27.7852 53.7139C28.0025 53.7139 28.1886 53.7911 28.3418 53.9443C28.4948 54.0976 28.5713 54.283 28.5713 54.5V55.2139C28.5713 55.431 28.4948 55.6163 28.3418 55.7695C28.1885 55.9228 28.0025 56 27.7852 56H27.0713C26.8541 56 26.6689 55.9228 26.5156 55.7695C26.3624 55.6163 26.2852 55.4311 26.2852 55.2139V54.5C26.2852 54.2828 26.3624 54.0976 26.5156 53.9443C26.6689 53.7911 26.8541 53.7139 27.0713 53.7139H27.7852ZM34.6436 30.8564C34.8608 30.8565 35.046 30.9337 35.1992 31.0869C35.3524 31.2402 35.4297 31.4254 35.4297 31.6426V32.3564C35.4297 32.3683 35.4278 32.3865 35.4248 32.4102H35.4297V33.1426L35.4287 35.4277L37.7139 35.4287H41.501C41.7182 35.4287 41.9034 35.5059 42.0566 35.6592C42.2099 35.8124 42.2871 35.9976 42.2871 36.2148V38.4463H42.2822C42.2852 38.4701 42.2871 38.4881 42.2871 38.5V39.2139C42.2871 39.4311 42.2099 39.6163 42.0566 39.7695C41.9034 39.9228 41.7182 40 41.501 40H40.7871C40.5699 40 40.3847 39.9228 40.2314 39.7695C40.0782 39.6163 40.001 39.4311 40.001 39.2139V38.5C40.001 38.4881 40.0029 38.4701 40.0059 38.4463H40.001L40 37.7139L37.7139 37.7148L37.7129 39.2139C37.7129 39.431 37.6365 39.6163 37.4834 39.7695C37.3302 39.9227 37.1449 39.9999 36.9277 40H35.4287V42.2852H37.7148V41.5537H37.7188C37.7158 41.53 37.7149 41.5119 37.7148 41.5V40.7852C37.7149 40.5681 37.7912 40.3827 37.9443 40.2295C38.0975 40.0763 38.2829 40.0001 38.5 40H39.2148C39.432 40 39.6173 40.0764 39.7705 40.2295C39.9237 40.3826 39.9999 40.5681 40 40.7852V41.5C40 41.5119 39.9991 41.53 39.9961 41.5537H40V43.7852C40 44.0023 39.9236 44.1876 39.7705 44.3408C39.6173 44.494 39.432 44.5712 39.2148 44.5713L37.7139 44.5703V49.1426H39.2148C39.4319 49.1426 39.6173 49.219 39.7705 49.3721C39.9238 49.5253 40 49.7115 40 49.9287V50.6426C40 50.8598 39.9237 51.045 39.7705 51.1982C39.6173 51.3515 39.432 51.4287 39.2148 51.4287H37.7139V53.7139H40.001V52.2139C40.001 51.9966 40.0782 51.8115 40.2314 51.6582C40.3847 51.505 40.5699 51.4277 40.7871 51.4277L42.2852 51.4287L42.2871 49.1426H40.7871C40.5699 49.1426 40.3847 49.0662 40.2314 48.9131C40.0782 48.7599 40.001 48.5746 40.001 48.3574V47.6426C40.0011 47.4255 40.0783 47.2401 40.2314 47.0869C40.3846 46.9339 40.57 46.8574 40.7871 46.8574H43.7852C44.0024 46.8574 44.1885 46.9337 44.3418 47.0869C44.4949 47.2401 44.5712 47.4255 44.5713 47.6426V51.4287H46.0713C46.2884 51.4287 46.4738 51.5051 46.627 51.6582C46.7801 51.8114 46.8564 51.9968 46.8564 52.2139V53.7139L49.1426 53.7148L50.6426 53.7139C50.8598 53.7139 51.046 53.7911 51.1992 53.9443C51.3522 54.0975 51.4287 54.283 51.4287 54.5V55.2139C51.4287 55.431 51.3522 55.6163 51.1992 55.7695C51.046 55.9228 50.8598 56 50.6426 56H45.3564C45.1394 55.9999 44.954 55.9227 44.8008 55.7695C44.6477 55.6163 44.5713 55.431 44.5713 55.2139V53.7139H42.2871V55.2148C42.287 55.432 42.2098 55.6173 42.0566 55.7705C41.9034 55.9236 41.7181 56 41.501 56H33.9297C33.7124 56 33.5263 55.9238 33.373 55.7705C33.2199 55.6173 33.1436 55.4319 33.1436 55.2148V49.9287C33.1436 49.7115 33.2198 49.5253 33.373 49.3721C33.5263 49.2188 33.7124 49.1426 33.9297 49.1426H35.4277V46.8574L35.4287 44.5703L33.1436 44.5713L30.8584 44.5703L28.5713 44.5713H27.0713C26.854 44.5713 26.6689 44.4941 26.5156 44.3408C26.3624 44.1876 26.2852 44.0024 26.2852 43.7852V39.2676H26.29C26.2871 39.2438 26.2852 39.2258 26.2852 39.2139V38.5C26.2852 38.2828 26.3625 38.0976 26.5156 37.9443C26.6689 37.7911 26.854 37.7139 27.0713 37.7139H27.7852C28.0024 37.7139 28.1885 37.7911 28.3418 37.9443C28.4948 38.0975 28.5713 38.2829 28.5713 38.5V39.2139C28.5713 39.2258 28.5694 39.2438 28.5664 39.2676H28.5713V40H33.1436V37.7139H31.6436C31.4263 37.7139 31.2402 37.6376 31.0869 37.4844C30.9338 37.3312 30.8575 37.1458 30.8574 36.9287V33.9287C30.8574 33.7115 30.9337 33.5254 31.0869 33.3721C31.2402 33.2188 31.4263 33.1426 31.6436 33.1426H33.1436V32.4102H33.1484C33.1455 32.3864 33.1436 32.3683 33.1436 32.3564V31.6426C33.1436 31.4255 33.22 31.2401 33.373 31.0869C33.5263 30.9336 33.7124 30.8564 33.9297 30.8564H34.6436ZM55.2139 51.4277C55.4312 51.4277 55.6163 51.505 55.7695 51.6582C55.9228 51.8115 56 51.9966 56 52.2139V52.9277C56 53.145 55.9228 53.3311 55.7695 53.4844C55.6163 53.6373 55.431 53.7139 55.2139 53.7139H54.5C54.283 53.7139 54.0975 53.6373 53.9443 53.4844C53.7911 53.3311 53.7139 53.145 53.7139 52.9277V52.2139C53.7139 51.9966 53.7911 51.8115 53.9443 51.6582C54.0976 51.505 54.2828 51.4277 54.5 51.4277H55.2139ZM10.4033 50.5361C10.4033 52.2256 11.7502 53.5996 13.4053 53.5996H21.5996V42.3994H10.4004L10.4033 50.5361ZM30.0732 46.8574C30.2904 46.8575 30.4757 46.9338 30.6289 47.0869C30.7821 47.2401 30.8583 47.4255 30.8584 47.6426V48.3574C30.8584 48.5746 30.7821 48.7599 30.6289 48.9131C30.4757 49.0663 30.2904 49.1425 30.0732 49.1426H28.5713V49.875H28.5664C28.5694 49.8987 28.5713 49.9168 28.5713 49.9287V50.6426C28.5713 50.8597 28.4949 51.045 28.3418 51.1982C28.1885 51.3515 28.0024 51.4287 27.7852 51.4287H27.0713C26.854 51.4287 26.6689 51.3515 26.5156 51.1982C26.3624 51.045 26.2852 50.8598 26.2852 50.6426V49.9287C26.2852 49.9168 26.2871 49.8987 26.29 49.875H26.2852V47.6426C26.2852 47.4254 26.3624 47.2401 26.5156 47.0869C26.6689 46.9337 26.8541 46.8574 27.0713 46.8574H30.0732ZM50.6426 49.1426C50.8599 49.1426 51.046 49.2188 51.1992 49.3721C51.3525 49.5254 51.4287 49.7115 51.4287 49.9287V50.6426C51.4287 50.8597 51.3522 51.045 51.1992 51.1982C51.046 51.3515 50.8599 51.4287 50.6426 51.4287H49.9287C49.7115 51.4287 49.5263 51.3515 49.373 51.1982C49.2198 51.045 49.1426 50.8599 49.1426 50.6426V49.9287C49.1426 49.7115 49.2199 49.5263 49.373 49.373C49.5264 49.2198 49.7115 49.1426 49.9287 49.1426H50.6426ZM19.4316 51.4268C19.4316 51.4268 19.1237 51.4268 18.7363 51.4268C18.348 51.4279 17.8796 51.4277 17.5586 51.4277H14.4365C13.4112 51.4275 12.5761 50.5776 12.5762 49.5332L12.5742 44.5713H19.4316V51.4268ZM27.7852 8C28.0024 8 28.1885 8.07624 28.3418 8.22949C28.4949 8.38264 28.5712 8.56811 28.5713 8.78516V9.5C28.5713 9.51193 28.5694 9.53002 28.5664 9.55371H28.5713V10.2852H30.8584L32.3574 10.2861C32.5746 10.2861 32.7599 10.3624 32.9131 10.5156C33.0663 10.6688 33.1435 10.8541 33.1436 11.0713V12.5713H35.4277V11.8389H35.4316C35.4287 11.8152 35.4277 11.797 35.4277 11.7852V11.0713C35.4277 10.8541 35.5041 10.6689 35.6572 10.5156C35.8104 10.3624 35.9958 10.2852 36.2129 10.2852H36.9277C37.1449 10.2852 37.3302 10.3624 37.4834 10.5156C37.6365 10.6688 37.7129 10.8541 37.7129 11.0713V11.7852C37.7129 11.7971 37.712 11.8152 37.709 11.8389H37.7129V14.0703C37.7129 14.2874 37.6365 14.4728 37.4834 14.626C37.3302 14.7792 37.1449 14.8564 36.9277 14.8564H35.4287V19.4287H36.9277C37.1449 19.4288 37.3302 19.505 37.4834 19.6582C37.6366 19.8114 37.7129 19.9967 37.7129 20.2139V21.7139L37.7139 23.999V28.5713H40.001V27.8389H40.0059C40.0029 27.8152 40.001 27.797 40.001 27.7852V27.0713C40.001 26.854 40.0782 26.6689 40.2314 26.5156C40.3847 26.3624 40.5699 26.2852 40.7871 26.2852H41.501C41.7182 26.2852 41.9034 26.3624 42.0566 26.5156C42.2099 26.6689 42.2871 26.854 42.2871 27.0713V27.7852C42.2871 27.797 42.2852 27.8152 42.2822 27.8389H42.2871V28.5713H46.8564V27.8389H46.8604C46.8574 27.8152 46.8564 27.797 46.8564 27.7852V27.0713C46.8564 26.8541 46.9328 26.6689 47.0859 26.5156C47.2391 26.3625 47.4245 26.2853 47.6416 26.2852H48.3564C48.5737 26.2852 48.7589 26.3624 48.9121 26.5156C49.0653 26.6689 49.1416 26.8541 49.1416 27.0713V27.7852C49.1416 27.797 49.1407 27.8152 49.1377 27.8389H49.1416V28.5713H51.4297V27.0713C51.4297 26.8541 51.506 26.6689 51.6592 26.5156C51.8124 26.3624 51.9977 26.2852 52.2148 26.2852H55.2139C55.4311 26.2852 55.6163 26.3624 55.7695 26.5156C55.9228 26.6689 56 26.854 56 27.0713V32.3564C56 32.5737 55.9227 32.7589 55.7695 32.9121C55.6163 33.0654 55.4311 33.1426 55.2139 33.1426H53.7148V33.874H53.7109C53.714 33.8978 53.7148 33.9158 53.7148 33.9277V34.6416C53.7148 34.8589 53.6386 35.045 53.4854 35.1982C53.3322 35.3513 53.1467 35.4276 52.9297 35.4277H52.2148C51.9978 35.4277 51.8124 35.3513 51.6592 35.1982C51.5059 35.045 51.4297 34.8589 51.4297 34.6416V33.9277C51.4297 33.9158 51.4306 33.8978 51.4336 33.874H51.4297L51.4287 33.1426V30.8574L49.1426 30.8564V35.4277L49.1416 36.9287C49.1416 37.1459 49.0653 37.3311 48.9121 37.4844C48.7589 37.6376 48.5737 37.7148 48.3564 37.7148L46.8564 37.7139V42.2852H52.9297C53.1468 42.2852 53.3322 42.3615 53.4854 42.5146C53.6385 42.6678 53.7148 42.8532 53.7148 43.0703V47.5898H53.7109C53.7139 47.6131 53.7148 47.6307 53.7148 47.6426V48.3574C53.7148 48.5746 53.6385 48.7599 53.4854 48.9131C53.3322 49.0663 53.1468 49.1425 52.9297 49.1426H52.2148C51.9977 49.1425 51.8124 49.0663 51.6592 48.9131C51.506 48.7599 51.4297 48.5746 51.4297 48.3574V47.6426C51.4297 47.6307 51.4307 47.6132 51.4336 47.5898H51.4297L51.4287 46.8574H49.9287C49.7115 46.8574 49.5263 46.7802 49.373 46.627C49.2198 46.4737 49.1426 46.2885 49.1426 46.0713V44.5703L46.8564 44.5713V45.3037H46.8525C46.8555 45.3274 46.8564 45.3456 46.8564 45.3574V46.0713C46.8564 46.2885 46.7802 46.4737 46.627 46.627C46.4737 46.7802 46.2885 46.8574 46.0713 46.8574H45.3564C45.1394 46.8573 44.954 46.7801 44.8008 46.627C44.6476 46.4737 44.5713 46.2884 44.5713 46.0713V45.3574C44.5713 45.3456 44.5723 45.3273 44.5752 45.3037H44.5713V44.5713H43.0713C42.8541 44.5713 42.6689 44.4941 42.5156 44.3408C42.3624 44.1876 42.2852 44.0023 42.2852 43.7852V43.0713C42.2852 42.8541 42.3625 42.6689 42.5156 42.5156C42.6689 42.3624 42.8541 42.2852 43.0713 42.2852H44.5713V36.2139C44.5714 35.9968 44.6476 35.8114 44.8008 35.6582C44.9539 35.505 45.1394 35.4288 45.3564 35.4287L46.8564 35.4277V30.8574H44.5713L42.2861 30.8564L40 30.8574V31.5889H39.9961C39.9991 31.6125 40 31.6307 40 31.6426V32.3574C39.9999 32.5746 39.9237 32.7599 39.7705 32.9131C39.6173 33.0663 39.432 33.1425 39.2148 33.1426H38.5C38.2829 33.1425 38.0975 33.0663 37.9443 32.9131C37.7912 32.7599 37.7149 32.5745 37.7148 32.3574V31.6426C37.7149 31.6307 37.7158 31.6125 37.7188 31.5889H37.7148L37.7129 30.8564H36.2129C35.9958 30.8564 35.8104 30.7801 35.6572 30.627C35.504 30.4737 35.4278 30.2885 35.4277 30.0713L35.4297 28.5713H33.9297C33.7124 28.5713 33.5263 28.495 33.373 28.3418C33.2198 28.1885 33.1436 28.0024 33.1436 27.7852V26.2852L30.8584 26.2861V27.0176H30.8545C30.8575 27.0414 30.8584 27.0594 30.8584 27.0713V27.7852C30.8584 28.0024 30.7822 28.1885 30.6289 28.3418C30.4757 28.4949 30.2903 28.5712 30.0732 28.5713H29.3584C29.1413 28.5712 28.9559 28.4949 28.8027 28.3418C28.6495 28.1885 28.5732 28.0024 28.5732 27.7852V27.0713C28.5732 27.0594 28.5742 27.0414 28.5771 27.0176H28.5732L28.5713 26.2852H27.0713C26.8541 26.2852 26.6689 26.2089 26.5156 26.0557C26.3624 25.9024 26.2852 25.7172 26.2852 25.5V23.2676H26.29C26.2871 23.2438 26.2852 23.2258 26.2852 23.2139V22.5C26.2852 22.2828 26.3625 22.0976 26.5156 21.9443C26.6689 21.7911 26.854 21.7139 27.0713 21.7139H27.7852C28.0024 21.7139 28.1885 21.7911 28.3418 21.9443C28.4948 22.0975 28.5713 22.283 28.5713 22.5V23.2139C28.5713 23.2258 28.5694 23.2438 28.5664 23.2676H28.5713V24H30.8574V21.7139L30.8584 19.4287H29.3584C29.1413 19.4286 28.9559 19.3514 28.8027 19.1982C28.6496 19.045 28.5732 18.8597 28.5732 18.6426L28.5713 17.1426H27.0713C26.8541 17.1426 26.6689 17.0662 26.5156 16.9131C26.3624 16.7599 26.2852 16.5745 26.2852 16.3574V15.6426C26.2852 15.4254 26.3624 15.2401 26.5156 15.0869C26.6689 14.9337 26.8541 14.8574 27.0713 14.8574L28.5723 14.8564L28.5713 12.5713H27.0713C26.8541 12.5713 26.6689 12.4949 26.5156 12.3418C26.3624 12.1886 26.2852 12.0032 26.2852 11.7861V9.55371H26.29C26.2871 9.53002 26.2852 9.51191 26.2852 9.5V8.78516C26.2853 8.56808 26.3625 8.38268 26.5156 8.22949C26.6688 8.07635 26.8541 8 27.0713 8H27.7852ZM23.2158 35.4287C23.4329 35.4288 23.6183 35.506 23.7715 35.6592C23.9245 35.8124 24.001 35.9978 24.001 36.2148V36.9287C24.001 37.1458 23.9246 37.3312 23.7715 37.4844C23.6183 37.6375 23.4329 37.7147 23.2158 37.7148L21.7139 37.7139H20.2139C19.9967 37.7138 19.8114 37.6376 19.6582 37.4844C19.505 37.3312 19.4288 37.1459 19.4287 36.9287V36.2139C19.4288 35.9968 19.505 35.8114 19.6582 35.6582C19.8114 35.505 19.9967 35.4287 20.2139 35.4287H23.2158ZM55.2139 35.4287C55.4312 35.4287 55.6163 35.5059 55.7695 35.6592C55.9228 35.8125 56 35.9976 56 36.2148V36.9287C56 37.146 55.9228 37.3311 55.7695 37.4844C55.6163 37.6376 55.4312 37.7148 55.2139 37.7148H54.5C54.2828 37.7148 54.0976 37.6376 53.9443 37.4844C53.7911 37.3311 53.7139 37.146 53.7139 36.9287V36.2148C53.7139 35.9976 53.7911 35.8124 53.9443 35.6592C54.0976 35.5059 54.2828 35.4287 54.5 35.4287H55.2139ZM11.7861 28.5713C12.0032 28.5713 12.1886 28.6478 12.3418 28.8008C12.4949 28.9539 12.5722 29.1394 12.5723 29.3564V30.0713C12.5723 30.0832 12.5704 30.1013 12.5674 30.125H12.5723V33.1426H14.0723C14.2893 33.1427 14.4748 33.219 14.6279 33.3721C14.7812 33.5253 14.8574 33.7115 14.8574 33.9287V36.1602H14.8535C14.8565 36.1837 14.8574 36.202 14.8574 36.2139V36.9287C14.8574 37.1458 14.7811 37.3312 14.6279 37.4844C14.4748 37.6375 14.2893 37.7138 14.0723 37.7139H13.3574C13.1402 37.7138 12.955 37.6376 12.8018 37.4844C12.6485 37.3312 12.5723 37.1459 12.5723 36.9287V36.2139C12.5723 36.202 12.5732 36.1837 12.5762 36.1602H12.5723V35.4277H11.0723C10.8552 35.4277 10.6698 35.3513 10.5166 35.1982C10.3633 35.045 10.2861 34.8589 10.2861 34.6416V30.125H10.291C10.2881 30.1013 10.2861 30.0832 10.2861 30.0713V29.3564C10.2862 29.1394 10.3635 28.954 10.5166 28.8008C10.6698 28.6477 10.8551 28.5713 11.0723 28.5713H11.7861ZM27.7852 30.8574C28.0024 30.8574 28.1885 30.9337 28.3418 31.0869C28.4949 31.2401 28.5712 31.4255 28.5713 31.6426V32.3574C28.5713 32.3694 28.5694 32.3875 28.5664 32.4111H28.5713V34.6426C28.5713 34.8597 28.4949 35.045 28.3418 35.1982C28.1885 35.3515 28.0024 35.4287 27.7852 35.4287L26.2852 35.4277H24.7852C24.5681 35.4277 24.3827 35.3513 24.2295 35.1982C24.0762 35.045 23.999 34.8589 23.999 34.6416V33.9277C23.999 33.7105 24.0762 33.5254 24.2295 33.3721C24.3827 33.2188 24.5679 33.1416 24.7852 33.1416L26.2852 33.1426V32.4111H26.29C26.2871 32.3875 26.2852 32.3693 26.2852 32.3574V31.6426C26.2852 31.4254 26.3624 31.2401 26.5156 31.0869C26.6689 30.9337 26.8541 30.8574 27.0713 30.8574H27.7852ZM43.7852 33.1426C44.0025 33.1426 44.1886 33.2188 44.3418 33.3721C44.4951 33.5254 44.5713 33.7115 44.5713 33.9287V34.6426C44.5713 34.8598 44.4949 35.045 44.3418 35.1982C44.1885 35.3515 44.0025 35.4287 43.7852 35.4287H43.0713C42.8541 35.4287 42.6689 35.3515 42.5156 35.1982C42.3624 35.045 42.2852 34.8599 42.2852 34.6426V33.9287C42.2852 33.7115 42.3623 33.5253 42.5156 33.3721C42.6689 33.219 42.8542 33.1426 43.0713 33.1426H43.7852ZM18.6416 33.1416C18.8589 33.1416 19.0441 33.2188 19.1973 33.3721C19.3505 33.5254 19.4277 33.7105 19.4277 33.9277V34.6416C19.4277 34.8589 19.3505 35.045 19.1973 35.1982C19.0441 35.3513 18.8588 35.4277 18.6416 35.4277H17.9277C17.7107 35.4277 17.5252 35.3512 17.3721 35.1982C17.2188 35.045 17.1416 34.8589 17.1416 34.6416V33.9277C17.1416 33.7106 17.218 33.5253 17.3711 33.3721C17.5244 33.2188 17.7105 33.1416 17.9277 33.1416H18.6416ZM23.2158 30.8564C23.4329 30.8566 23.6183 30.9338 23.7715 31.0869C23.9246 31.2401 24.001 31.4254 24.001 31.6426V32.3564C24.001 32.5735 23.9245 32.7589 23.7715 32.9121C23.6183 33.0653 23.4329 33.1425 23.2158 33.1426H20.2139C19.9967 33.1425 19.8114 33.0663 19.6582 32.9131C19.505 32.7599 19.4288 32.5746 19.4287 32.3574V31.6426C19.4288 31.4254 19.505 31.2401 19.6582 31.0869C19.8114 30.9337 19.9967 30.8575 20.2139 30.8574H21.7139L23.2158 30.8564ZM9.5 26.2852C9.71733 26.2852 9.90245 26.3623 10.0557 26.5156C10.2088 26.6689 10.2861 26.8541 10.2861 27.0713V27.7852C10.2861 28.0024 10.2088 28.1876 10.0557 28.3408C9.90241 28.4941 9.7173 28.5713 9.5 28.5713H8.78613C8.5689 28.5713 8.38275 28.4941 8.22949 28.3408C8.07647 28.1876 8 28.0023 8 27.7852V27.0713C8 26.8542 8.07647 26.6688 8.22949 26.5156C8.3828 26.3623 8.5689 26.2852 8.78613 26.2852H9.5ZM16.3574 26.2852C16.5746 26.2852 16.7599 26.3624 16.9131 26.5156C17.0662 26.6688 17.1426 26.8541 17.1426 27.0713V27.7852C17.1426 28.0023 17.0662 28.1876 16.9131 28.3408C16.7599 28.494 16.5746 28.5713 16.3574 28.5713H13.3574C13.1402 28.5713 12.955 28.4941 12.8018 28.3408C12.6486 28.1876 12.5723 28.0023 12.5723 27.7852V27.0713C12.5723 26.8541 12.6486 26.6689 12.8018 26.5156C12.955 26.3624 13.1402 26.2852 13.3574 26.2852H16.3574ZM25.499 26.2852C25.7162 26.2852 25.9015 26.3625 26.0547 26.5156C26.2079 26.6689 26.2852 26.854 26.2852 27.0713V27.7852C26.2852 28.0024 26.2079 28.1885 26.0547 28.3418C25.9015 28.4948 25.7161 28.5713 25.499 28.5713H20.2139C19.9967 28.5713 19.8115 28.494 19.6582 28.3408C19.505 28.1876 19.4287 28.0023 19.4287 27.7852V27.0713C19.4287 26.8541 19.5051 26.6689 19.6582 26.5156C19.8114 26.3624 19.9967 26.2852 20.2139 26.2852H25.499ZM24 24H8L8.00293 13.4629C8.00293 10.4515 10.4261 8 13.4053 8H24V24ZM33.1436 24L35.4277 23.999L35.4287 21.7139H33.1436V24ZM50.5947 8C53.5739 8 55.9971 10.4515 55.9971 13.4629L56 24H40V8H50.5947ZM13.4053 10.4004C11.7503 10.4004 10.4035 11.7736 10.4033 13.4629L10.4004 21.5996H21.5996V10.4004H13.4053ZM42.4004 21.5996H53.5996L53.5967 13.4629C53.5965 11.7736 52.2497 10.4004 50.5947 10.4004H42.4004V21.5996ZM18.7363 12.5713H19.4316V19.4277H12.5742L12.5762 14.4648C12.5762 13.4205 13.4112 12.5706 14.4365 12.5703H17.5586C17.8796 12.5703 18.348 12.5702 18.7363 12.5713ZM49.5605 12.5703C50.586 12.5703 51.4219 13.4204 51.4219 14.4648L51.4238 19.4277H44.5664V12.5713H45.2617C45.6498 12.5702 46.1175 12.5703 46.4385 12.5703H49.5605ZM34.6436 8C34.8608 8.00001 35.0461 8.07634 35.1992 8.22949C35.3524 8.3827 35.4296 8.5681 35.4297 8.78516V9.5C35.4297 9.71724 35.3524 9.90244 35.1992 10.0557C35.046 10.2089 34.8608 10.2851 34.6436 10.2852H33.9297C33.7125 10.2852 33.5263 10.2089 33.373 10.0557C33.2199 9.90248 33.1436 9.71715 33.1436 9.5V8.78516C33.1437 8.56812 33.2199 8.38265 33.373 8.22949C33.5264 8.07621 33.7125 8 33.9297 8H34.6436Z"
            fill="url(#paint4_radial_16668_5450)"
        />
        <path d="M4 32H60V48H4V32Z" fill="url(#paint5_linear_16668_5450)" />
        <path opacity="0.25" d="M60 31.998V32.998H4V31.998H60Z" fill="#1E009B" />
        <g clip-path="url(#paint6_diamond_16668_5450_clip_path)" data-figma-skip-parse="true">
            <g transform="matrix(0 0.056 -0.056 0 31.9978 32)">
                <rect
                    x="0"
                    y="0"
                    width="589.286"
                    height="589.324"
                    fill="url(#paint6_diamond_16668_5450)"
                    opacity="1"
                    shape-rendering="crispEdges"
                />
                <rect
                    x="0"
                    y="0"
                    width="589.286"
                    height="589.324"
                    transform="scale(1 -1)"
                    fill="url(#paint6_diamond_16668_5450)"
                    opacity="1"
                    shape-rendering="crispEdges"
                />
                <rect
                    x="0"
                    y="0"
                    width="589.286"
                    height="589.324"
                    transform="scale(-1 1)"
                    fill="url(#paint6_diamond_16668_5450)"
                    opacity="1"
                    shape-rendering="crispEdges"
                />
                <rect
                    x="0"
                    y="0"
                    width="589.286"
                    height="589.324"
                    transform="scale(-1)"
                    fill="url(#paint6_diamond_16668_5450)"
                    opacity="1"
                    shape-rendering="crispEdges"
                />
            </g>
        </g>
        <path
            d="M0 50.5V47.5C0 46.9477 0.447715 46.5 1 46.5C1.55228 46.5 2 46.9477 2 47.5V50.5C2 56.8513 7.14873 62 13.5 62H16.5C17.0523 62 17.5 62.4477 17.5 63C17.5 63.5523 17.0523 64 16.5 64H13.5C6.04416 64 0 57.9558 0 50.5ZM62 50.5V47.5C62 46.9477 62.4477 46.5 63 46.5C63.5523 46.5 64 46.9477 64 47.5V50.5C64 57.9558 57.9558 64 50.5 64H47.5C46.9477 64 46.5 63.5523 46.5 63C46.5 62.4477 46.9477 62 47.5 62H50.5C56.8513 62 62 56.8513 62 50.5ZM0 16.5V13.5C0 6.04416 6.04416 0 13.5 0H16.5C17.0523 0 17.5 0.447715 17.5 1C17.5 1.55228 17.0523 2 16.5 2H13.5C7.14873 2 2 7.14873 2 13.5V16.5C2 17.0523 1.55228 17.5 1 17.5C0.447715 17.5 0 17.0523 0 16.5ZM62 16.5V13.5C62 7.14873 56.8513 2 50.5 2H47.5C46.9477 2 46.5 1.55228 46.5 1C46.5 0.447715 46.9477 0 47.5 0H50.5C57.9558 0 64 6.04416 64 13.5V16.5C64 17.0523 63.5523 17.5 63 17.5C62.4477 17.5 62 17.0523 62 16.5Z"
            data-figma-gradient-fill="{&#34;type&#34;:&#34;GRADIENT_DIAMOND&#34;,&#34;stops&#34;:[{&#34;color&#34;:{&#34;r&#34;:0.22352941334247589,&#34;g&#34;:0.7294117808341980,&#34;b&#34;:0.44313725829124451,&#34;a&#34;:0.50},&#34;position&#34;:0.80000001192092896},{&#34;color&#34;:{&#34;r&#34;:0.058823529630899429,&#34;g&#34;:0.74117648601531982,&#34;b&#34;:0.67058825492858887,&#34;a&#34;:1.0},&#34;position&#34;:1.0}],&#34;stopsVar&#34;:[{&#34;color&#34;:{&#34;r&#34;:0.22352941334247589,&#34;g&#34;:0.7294117808341980,&#34;b&#34;:0.44313725829124451,&#34;a&#34;:0.50},&#34;position&#34;:0.80000001192092896},{&#34;color&#34;:{&#34;r&#34;:0.058823529630899429,&#34;g&#34;:0.74117648601531982,&#34;b&#34;:0.67058825492858887,&#34;a&#34;:1.0},&#34;position&#34;:1.0}],&#34;transform&#34;:{&#34;m00&#34;:-4.5161053716102906e-12,&#34;m01&#34;:-111.99999237060547,&#34;m02&#34;:87.997840881347656,&#34;m10&#34;:111.99999237060547,&#34;m11&#34;:-4.1174424980638946e-12,&#34;m12&#34;:-24.0},&#34;opacity&#34;:1.0,&#34;blendMode&#34;:&#34;NORMAL&#34;,&#34;visible&#34;:true}"
        />
        <g filter="url(#filter1_i_16668_5450)">
            <path
                d="M0 31C0 30.4477 0.447715 30 1 30H63C63.5523 30 64 30.4477 64 31C64 31.5523 63.5523 32 63 32H1C0.447715 32 0 31.5523 0 31Z"
                fill="url(#paint7_linear_16668_5450)"
            />
        </g>
        <g filter="url(#filter2_d_16668_5450)">
            <mask id="path-10-inside-1_16668_5450" fill="white">
                <path
                    d="M42.2871 47C43.1482 44.1103 45.8257 42.0029 48.9961 42.0029C52.8621 42.0029 55.9961 45.1364 55.9961 49.001C55.9958 52.8654 52.8619 55.998 48.9961 55.998C45.8252 55.998 43.1478 53.8902 42.2871 51L37 51V56L33 56V51L30 51V47L42.2871 47ZM45.9961 49.001C45.9961 50.6577 47.3392 52.001 48.9961 52.001C50.6529 52.001 51.9961 50.6577 51.9961 49.001C51.9959 47.3444 50.6528 46.002 48.9961 46.002C47.3394 46.002 45.9963 47.3444 45.9961 49.001Z"
                />
            </mask>
            <path
                d="M42.2871 47C43.1482 44.1103 45.8257 42.0029 48.9961 42.0029C52.8621 42.0029 55.9961 45.1364 55.9961 49.001C55.9958 52.8654 52.8619 55.998 48.9961 55.998C45.8252 55.998 43.1478 53.8902 42.2871 51L37 51V56L33 56V51L30 51V47L42.2871 47ZM45.9961 49.001C45.9961 50.6577 47.3392 52.001 48.9961 52.001C50.6529 52.001 51.9961 50.6577 51.9961 49.001C51.9959 47.3444 50.6528 46.002 48.9961 46.002C47.3394 46.002 45.9963 47.3444 45.9961 49.001Z"
                fill="url(#paint8_linear_16668_5450)"
            />
            <path
                d="M42.2871 47V47.2L42.4362 47.2L42.4788 47.0571L42.2871 47ZM55.9961 49.001L56.1961 49.001V49.001L55.9961 49.001ZM42.2871 51L42.4788 50.9429L42.4362 50.8L42.2871 50.8V51ZM37 51V50.8L36.8 50.8V51L37 51ZM37 56V56.2L37.2 56.2V56L37 56ZM33 56L32.8 56V56.2L33 56.2V56ZM33 51L33.2 51V50.8L33 50.8V51ZM30 51L29.8 51V51.2L30 51.2V51ZM30 47V46.8L29.8 46.8V47L30 47ZM45.9961 49.001L45.7961 49.001V49.001L45.9961 49.001ZM51.9961 49.001L52.1961 49.001V49.001L51.9961 49.001ZM42.2871 47L42.4788 47.0571C43.3153 44.2499 45.9166 42.2029 48.9961 42.2029V42.0029V41.8029C45.7349 41.8029 42.9811 43.9708 42.0954 46.9429L42.2871 47ZM48.9961 42.0029V42.2029C52.7517 42.2029 55.7961 45.2469 55.7961 49.001L55.9961 49.001L56.1961 49.001C56.1961 45.0258 52.9725 41.8029 48.9961 41.8029V42.0029ZM55.9961 49.001L55.7961 49.001C55.7959 52.7549 52.7516 55.798 48.9961 55.798V55.998V56.198C52.9723 56.198 56.1958 52.9759 56.1961 49.001L55.9961 49.001ZM48.9961 55.998V55.798C45.9161 55.798 43.3149 53.7507 42.4788 50.9429L42.2871 51L42.0954 51.0571C42.9807 54.0298 45.7344 56.198 48.9961 56.198V55.998ZM42.2871 51V50.8L37 50.8V51V51.2L42.2871 51.2V51ZM37 51L36.8 51V56L37 56L37.2 56V51L37 51ZM37 56V55.8L33 55.8V56V56.2L37 56.2V56ZM33 56L33.2 56V51L33 51L32.8 51V56L33 56ZM33 51V50.8L30 50.8V51V51.2L33 51.2V51ZM30 51L30.2 51V47L30 47L29.8 47V51L30 51ZM30 47V47.2L42.2871 47.2V47V46.8L30 46.8V47ZM45.9961 49.001L45.7961 49.001C45.7961 50.7682 47.2288 52.201 48.9961 52.201V52.001V51.801C47.4497 51.801 46.1961 50.5473 46.1961 49.001L45.9961 49.001ZM48.9961 52.001V52.201C50.7634 52.201 52.1961 50.7682 52.1961 49.001L51.9961 49.001L51.7961 49.001C51.7961 50.5473 50.5425 51.801 48.9961 51.801V52.001ZM51.9961 49.001L52.1961 49.001C52.1959 47.2339 50.7632 45.802 48.9961 45.802V46.002V46.202C50.5424 46.202 51.7959 47.4549 51.7961 49.001L51.9961 49.001ZM48.9961 46.002V45.802C47.229 45.802 45.7963 47.2339 45.7961 49.001L45.9961 49.001L46.1961 49.001C46.1963 47.4549 47.4498 46.202 48.9961 46.202V46.002Z"
                fill="url(#paint9_radial_16668_5450)"
                fill-opacity="0.5"
                mask="url(#path-10-inside-1_16668_5450)"
            />
        </g>
    </g>
    <defs>
        <filter
            id="filter0_d_16668_5450"
            x="2"
            y="2.5"
            width="60"
            height="60"
            filterUnits="userSpaceOnUse"
            color-interpolation-filters="sRGB"
        >
            <feFlood flood-opacity="0" result="BackgroundImageFix" />
            <feColorMatrix
                in="SourceAlpha"
                type="matrix"
                values="0 0 0 0 0 0 0 0 0 0 0 0 0 0 0 0 0 0 127 0"
                result="hardAlpha"
            />
            <feOffset dy="0.5" />
            <feGaussianBlur stdDeviation="1" />
            <feComposite in2="hardAlpha" operator="out" />
            <feColorMatrix type="matrix" values="0 0 0 0 0.145098 0 0 0 0 0.0980392 0 0 0 0 0.32549 0 0 0 0.2 0" />
            <feBlend mode="normal" in2="BackgroundImageFix" result="effect1_dropShadow_16668_5450" />
            <feBlend mode="normal" in="SourceGraphic" in2="effect1_dropShadow_16668_5450" result="shape" />
        </filter>
        <clipPath id="paint6_diamond_16668_5450_clip_path">
            <path
                d="M0 50.5V47.5C0 46.9477 0.447715 46.5 1 46.5C1.55228 46.5 2 46.9477 2 47.5V50.5C2 56.8513 7.14873 62 13.5 62H16.5C17.0523 62 17.5 62.4477 17.5 63C17.5 63.5523 17.0523 64 16.5 64H13.5C6.04416 64 0 57.9558 0 50.5ZM62 50.5V47.5C62 46.9477 62.4477 46.5 63 46.5C63.5523 46.5 64 46.9477 64 47.5V50.5C64 57.9558 57.9558 64 50.5 64H47.5C46.9477 64 46.5 63.5523 46.5 63C46.5 62.4477 46.9477 62 47.5 62H50.5C56.8513 62 62 56.8513 62 50.5ZM0 16.5V13.5C0 6.04416 6.04416 0 13.5 0H16.5C17.0523 0 17.5 0.447715 17.5 1C17.5 1.55228 17.0523 2 16.5 2H13.5C7.14873 2 2 7.14873 2 13.5V16.5C2 17.0523 1.55228 17.5 1 17.5C0.447715 17.5 0 17.0523 0 16.5ZM62 16.5V13.5C62 7.14873 56.8513 2 50.5 2H47.5C46.9477 2 46.5 1.55228 46.5 1C46.5 0.447715 46.9477 0 47.5 0H50.5C57.9558 0 64 6.04416 64 13.5V16.5C64 17.0523 63.5523 17.5 63 17.5C62.4477 17.5 62 17.0523 62 16.5Z"
            />
        </clipPath>
        <filter
            id="filter1_i_16668_5450"
            x="0"
            y="30"
            width="64"
            height="2"
            filterUnits="userSpaceOnUse"
            color-interpolation-filters="sRGB"
        >
            <feFlood flood-opacity="0" result="BackgroundImageFix" />
            <feBlend mode="normal" in="SourceGraphic" in2="BackgroundImageFix" result="shape" />
            <feColorMatrix
                in="SourceAlpha"
                type="matrix"
                values="0 0 0 0 0 0 0 0 0 0 0 0 0 0 0 0 0 0 127 0"
                result="hardAlpha"
            />
            <feOffset dy="0.25" />
            <feComposite in2="hardAlpha" operator="arithmetic" k2="-1" k3="1" />
            <feColorMatrix type="matrix" values="0 0 0 0 1 0 0 0 0 1 0 0 0 0 1 0 0 0 0.5 0" />
            <feBlend mode="normal" in2="shape" result="effect1_innerShadow_16668_5450" />
        </filter>
        <filter
            id="filter2_d_16668_5450"
            x="26"
            y="38.0029"
            width="33.9961"
            height="21.9971"
            filterUnits="userSpaceOnUse"
            color-interpolation-filters="sRGB"
        >
            <feFlood flood-opacity="0" result="BackgroundImageFix" />
            <feColorMatrix
                in="SourceAlpha"
                type="matrix"
                values="0 0 0 0 0 0 0 0 0 0 0 0 0 0 0 0 0 0 127 0"
                result="hardAlpha"
            />
            <feOffset />
            <feGaussianBlur stdDeviation="2" />
            <feColorMatrix type="matrix" values="0 0 0 0 0.913725 0 0 0 0 0.917647 0 0 0 0 0.988235 0 0 0 1 0" />
            <feBlend mode="normal" in2="BackgroundImageFix" result="effect1_dropShadow_16668_5450" />
            <feBlend mode="normal" in="SourceGraphic" in2="effect1_dropShadow_16668_5450" result="shape" />
        </filter>
        <linearGradient
            id="paint0_linear_16668_5450"
            x1="2.99995"
            y1="32"
            x2="2.99995"
            y2="49.5238"
            gradientUnits="userSpaceOnUse"
        >
            <stop stop-color="#C1B2FF" stop-opacity="0.3" />
            <stop offset="1" stop-color="#C1B2FF" stop-opacity="0" />
        </linearGradient>
        <linearGradient
            id="paint1_linear_16668_5450"
            x1="61"
            y1="32"
            x2="61"
            y2="49.5238"
            gradientUnits="userSpaceOnUse"
        >
            <stop stop-color="#C1B2FF" stop-opacity="0.3" />
            <stop offset="1" stop-color="#C1B2FF" stop-opacity="0" />
        </linearGradient>
        <linearGradient id="paint2_linear_16668_5450" x1="32" y1="4" x2="32" y2="60" gradientUnits="userSpaceOnUse">
            <stop stop-color="#F5F6FE" />
            <stop offset="1" stop-color="#DDDEFB" />
        </linearGradient>
        <linearGradient id="paint3_linear_16668_5450" x1="32" y1="4" x2="32" y2="60" gradientUnits="userSpaceOnUse">
            <stop stop-color="white" />
            <stop offset="1" stop-color="white" stop-opacity="0" />
        </linearGradient>
        <radialGradient
            id="paint4_radial_16668_5450"
            cx="0"
            cy="0"
            r="1"
            gradientUnits="userSpaceOnUse"
            gradientTransform="translate(51 56) rotate(-130.4) scale(61.7171 72.7823)"
        >
            <stop stop-color="#C5C6F8" />
            <stop offset="0.496923" stop-color="#5D5677" />
            <stop offset="1" stop-color="#614DB3" />
        </radialGradient>
        <linearGradient
            id="paint5_linear_16668_5450"
            x1="31.9966"
            y1="32"
            x2="31.9966"
            y2="48"
            gradientUnits="userSpaceOnUse"
        >
            <stop stop-color="#0FBDAB" stop-opacity="0.25" />
            <stop offset="1" stop-color="#C1B2FF" stop-opacity="0" />
        </linearGradient>
        <linearGradient id="paint6_diamond_16668_5450" x1="0" y1="0" x2="500" y2="500" gradientUnits="userSpaceOnUse">
            <stop offset="0.8" stop-color="#39BA71" stop-opacity="0.5" />
            <stop offset="1" stop-color="#0FBDAB" />
        </linearGradient>
        <linearGradient id="paint7_linear_16668_5450" x1="0" y1="31" x2="64" y2="31" gradientUnits="userSpaceOnUse">
            <stop stop-color="#39BA71" stop-opacity="0.5" />
            <stop offset="0.3" stop-color="#00C5B1" />
            <stop offset="0.5" stop-color="#00F4D2" />
            <stop offset="0.7" stop-color="#00C5B1" />
            <stop offset="1" stop-color="#39BA71" stop-opacity="0.5" />
        </linearGradient>
        <linearGradient
            id="paint8_linear_16668_5450"
            x1="15.5577"
            y1="42.0029"
            x2="43.5851"
            y2="68.7646"
            gradientUnits="userSpaceOnUse"
        >
            <stop stop-color="#52C69D" />
            <stop offset="1" stop-color="#238F85" />
        </linearGradient>
        <radialGradient
            id="paint9_radial_16668_5450"
            cx="0"
            cy="0"
            r="1"
            gradientTransform="matrix(12.864 5.16355 -44.628 6.25494 40.8849 48.2547)"
            gradientUnits="userSpaceOnUse"
        >
            <stop stop-color="white" stop-opacity="0" />
            <stop offset="1" stop-color="white" />
        </radialGradient>
        <clipPath id="clip0_16668_5450">
            <rect width="64" height="64" fill="white" />
        </clipPath>
    </defs>
</svg>
