<svg width="64" height="64" viewBox="0 0 64 64" fill="none" xmlns="http://www.w3.org/2000/svg">
    <g clip-path="url(#clip0_16668_5436)">
        <path
            d="M16.6729 33C25.1399 33.0002 32.0037 39.8649 32.0039 48.333C32.0039 52.5672 28.5716 56 24.3379 56H7.67383C3.44016 56 0.0078125 52.5672 0.0078125 48.333C0.00798875 39.8649 6.87183 33.0002 15.3389 33H16.6729ZM16.0059 14C20.4236 14 24.0049 17.5817 24.0049 22C24.0049 26.4183 20.4236 30 16.0059 30C11.5881 30 8.00684 26.4183 8.00684 22C8.00684 17.5817 11.5881 14 16.0059 14Z"
            fill="url(#paint0_radial_16668_5436)"
        />
        <path
            d="M36.0029 28C47.0473 28 56.001 36.9543 56.001 48C56.001 52.4183 52.4197 56 48.002 56H24.0049C19.5871 56 16.0059 52.4183 16.0059 48C16.0059 36.9545 24.9588 28.0003 36.0029 28ZM36.0039 4C41.5259 4.00026 46.002 8.47732 46.002 14C46.002 19.5227 41.5259 23.9997 36.0039 24C30.4817 24 26.0049 19.5228 26.0049 14C26.0049 8.47715 30.4817 4 36.0039 4Z"
            fill="url(#paint1_radial_16668_5436)"
        />
        <g filter="url(#filter0_d_16668_5436)">
            <path
                d="M51.0023 31L38.0039 35.161V49.2093C38.0039 58.2446 51.0023 63 51.0023 63C51.0023 63 64.0007 58.2446 64.0007 49.2093V35.161L51.0023 31Z"
                fill="url(#paint2_linear_16668_5436)"
            />
            <path
                d="M63.751 35.3438V49.209C63.751 53.6001 60.5893 56.9827 57.3564 59.2891C55.7465 60.4376 54.1348 61.3078 52.9248 61.8906C52.3202 62.1819 51.8166 62.4007 51.4648 62.5469C51.2891 62.6199 51.1512 62.6745 51.0576 62.7109C51.037 62.7189 51.0182 62.7252 51.002 62.7314C50.9859 62.7253 50.9675 62.7188 50.9473 62.7109C50.8538 62.6746 50.7158 62.6199 50.54 62.5469C50.1883 62.4007 49.6846 62.1818 49.0801 61.8906C47.8701 61.3078 46.2584 60.4376 44.6484 59.2891C41.4155 56.9827 38.2539 53.6001 38.2539 49.209V35.3438L51.002 31.2617L63.751 35.3438Z"
                stroke="url(#paint3_linear_16668_5436)"
                stroke-opacity="0.1"
                stroke-width="0.5"
            />
        </g>
        <path
            d="M51.0016 41C52.6582 41 54.0012 42.3431 54.0012 44C54.0012 45.3211 53.1463 46.4395 51.9605 46.8398L52.7533 50.8047C52.8766 51.4232 52.4037 52 51.773 52H50.2126C49.5821 51.9998 49.1091 51.4231 49.2323 50.8047L50.0251 46.834C48.8484 46.4285 48.002 45.3146 48.002 44C48.002 42.3431 49.3449 41 51.0016 41Z"
            fill="url(#paint4_linear_16668_5436)"
        />
        <path
            d="M54.0011 44C54.0011 42.3431 52.6581 41 51.0015 41C49.3448 41 48.0018 42.3431 48.0018 44C48.0018 45.3146 48.8483 46.4285 50.025 46.834L49.2321 50.8047C49.109 51.4231 49.582 51.9998 50.2125 52H51.7729C52.4036 52 52.8764 51.4232 52.7532 50.8047L51.9603 46.8398C53.1462 46.4395 54.0011 45.3211 54.0011 44ZM55.001 44C55.001 45.4444 54.2342 46.7022 53.0911 47.4043L53.7336 50.6094C53.9799 51.8462 53.0346 53 51.7729 53H50.2125C48.9515 52.9996 48.0055 51.8462 48.2518 50.6094L48.8923 47.3945C47.7595 46.6903 47.002 45.4366 47.002 44C47.002 41.7909 48.7926 40 51.0015 40C53.2103 40 55.001 41.7909 55.001 44Z"
            fill="url(#paint5_linear_16668_5436)"
        />
    </g>
    <defs>
        <filter
            id="filter0_d_16668_5436"
            x="35.5039"
            y="28.5"
            width="29.9961"
            height="36"
            filterUnits="userSpaceOnUse"
            color-interpolation-filters="sRGB"
        >
            <feFlood flood-opacity="0" result="BackgroundImageFix" />
            <feColorMatrix
                in="SourceAlpha"
                type="matrix"
                values="0 0 0 0 0 0 0 0 0 0 0 0 0 0 0 0 0 0 127 0"
                result="hardAlpha"
            />
            <feOffset dx="-0.5" dy="-0.5" />
            <feGaussianBlur stdDeviation="1" />
            <feComposite in2="hardAlpha" operator="out" />
            <feColorMatrix type="matrix" values="0 0 0 0 0.105882 0 0 0 0 0.290196 0 0 0 0 0.203922 0 0 0 1 0" />
            <feBlend mode="normal" in2="BackgroundImageFix" result="effect1_dropShadow_16668_5436" />
            <feBlend mode="normal" in="SourceGraphic" in2="effect1_dropShadow_16668_5436" result="shape" />
        </filter>
        <radialGradient
            id="paint0_radial_16668_5436"
            cx="0"
            cy="0"
            r="1"
            gradientTransform="matrix(4.99939 19 -29.3663 12.944 14.0061 19)"
            gradientUnits="userSpaceOnUse"
        >
            <stop stop-color="#B339F9" />
            <stop offset="1" stop-color="#3C1448" />
        </radialGradient>
        <radialGradient
            id="paint1_radial_16668_5436"
            cx="0"
            cy="0"
            r="1"
            gradientTransform="matrix(16.9979 31 -50.0395 27.4443 32.0039 10)"
            gradientUnits="userSpaceOnUse"
        >
            <stop stop-color="#9A97F7" />
            <stop offset="1" stop-color="#311E71" />
        </radialGradient>
        <linearGradient
            id="paint2_linear_16668_5436"
            x1="63.5675"
            y1="31"
            x2="38.8003"
            y2="61.6096"
            gradientUnits="userSpaceOnUse"
        >
            <stop stop-color="#A9EEB4" />
            <stop offset="1" stop-color="#1FA698" />
        </linearGradient>
        <linearGradient
            id="paint3_linear_16668_5436"
            x1="61.4011"
            y1="30.1084"
            x2="45.5364"
            y2="60.5047"
            gradientUnits="userSpaceOnUse"
        >
            <stop stop-color="#DCF8DE" />
            <stop offset="1" stop-color="#8EF2D9" />
        </linearGradient>
        <linearGradient
            id="paint4_linear_16668_5436"
            x1="50.8303"
            y1="40.9162"
            x2="50.8303"
            y2="51.6455"
            gradientUnits="userSpaceOnUse"
        >
            <stop stop-color="#134B46" />
            <stop offset="1" stop-color="#1FA698" />
        </linearGradient>
        <linearGradient
            id="paint5_linear_16668_5436"
            x1="53.6586"
            y1="41"
            x2="48.5986"
            y2="51.8403"
            gradientUnits="userSpaceOnUse"
        >
            <stop stop-color="#1FA698" />
            <stop offset="1" stop-color="#A9EEB4" />
        </linearGradient>
        <clipPath id="clip0_16668_5436">
            <rect width="64" height="64" fill="white" />
        </clipPath>
    </defs>
</svg>
