<svg width="384" height="200" viewBox="0 0 384 200" fill="none" xmlns="http://www.w3.org/2000/svg">
    <g clip-path="url(#clip0_8436_239055)">
        <rect width="384" height="200" rx="16" fill="url(#paint0_linear_8436_239055)" />
        <path
            d="M247.526 115.141L263.721 51.6084C264.132 49.9953 263.49 48.2856 262.118 47.3423C226.936 23.1452 204.467 17.3712 164.189 22.3087C162.565 22.5078 161.224 23.6914 160.82 25.2764L144.616 88.843C144.417 89.6249 144.454 90.4366 144.742 91.1903C146.493 95.7668 153.315 112.922 160.61 122.193C167.897 131.453 181.396 141.049 184.309 143.069C184.687 143.331 185.1 143.514 185.546 143.628L186.552 143.884C187.006 144 187.466 144.036 187.931 143.983C191.434 143.583 207.45 141.556 218.046 136.875C228.693 132.171 242.674 120.296 246.323 117.114C246.92 116.593 247.33 115.909 247.526 115.141Z"
            fill="url(#paint1_linear_8436_239055)"
            fill-opacity="0.4"
        />
        <path
            fill-rule="evenodd"
            clip-rule="evenodd"
            d="M39.9796 48.7787C85.9962 23.1834 116.152 19.0529 170.302 30.7642C172.916 31.3296 174.9 33.4829 175.268 36.1324L186.987 120.459C187.163 121.72 186.962 123 186.388 124.137C183.285 130.279 172.37 151.131 161.93 161.96C151.505 172.774 133.386 183.066 128.96 185.502C128.301 185.864 127.583 186.097 126.838 186.201L125.888 186.333C125.156 186.434 124.413 186.41 123.692 186.248C118.727 185.136 97.9267 180.194 84.638 172.649C71.3841 165.124 54.9038 148.113 50.1308 143.039C49.2426 142.095 48.6829 140.898 48.5044 139.614L36.7777 55.2314C36.4159 52.6282 37.6829 50.0563 39.9796 48.7787ZM85.9129 128.618C88.9282 139.13 103.049 145.705 118.808 143.515C134.567 141.324 146.36 131.148 146.394 120.213L85.9129 128.618ZM79.9407 85.6441C72.476 86.6815 67.0176 92.4202 67.1645 98.7761L95.8136 94.7947C94.2219 88.6395 87.4055 84.6067 79.9407 85.6441ZM140.422 77.2389C132.957 78.2762 127.499 84.015 127.646 90.3709L156.295 86.3895C154.703 80.2343 147.887 76.2015 140.422 77.2389Z"
            fill="url(#paint2_linear_8436_239055)"
        />
        <path
            fill-rule="evenodd"
            clip-rule="evenodd"
            d="M104.035 25.5293C123.517 23.1406 144.101 25.0989 170.304 30.7658C172.918 31.3312 174.902 33.4847 175.27 36.134L186.989 120.46C187.164 121.721 186.964 123.002 186.39 124.138C183.286 130.281 172.371 151.132 161.932 161.962C151.507 172.776 133.388 183.068 128.962 185.503C128.303 185.866 127.585 186.099 126.84 186.202L126.373 186.267L120.397 143.265C135.354 140.635 146.363 130.779 146.396 120.214L117.747 124.196L104.035 25.5293ZM140.424 77.2405C132.959 78.2779 127.501 84.0167 127.648 90.3725L156.297 86.3911C154.705 80.2361 147.889 76.2031 140.424 77.2405Z"
            fill="url(#paint3_linear_8436_239055)"
        />
        <path
            fill-rule="evenodd"
            clip-rule="evenodd"
            d="M308.03 138.389C322.695 138.389 335.105 146.274 341.873 158.385C346.668 166.834 340.181 176.974 330.592 176.974H285.467C275.878 176.974 269.391 166.552 274.186 158.385C280.673 146.556 293.364 138.389 308.03 138.389ZM307.748 99.5234C316.627 99.5234 323.824 106.711 323.825 115.577C323.825 124.443 316.627 131.631 307.748 131.631C298.87 131.631 291.673 124.443 291.673 115.577C291.673 106.711 298.87 99.5236 307.748 99.5234Z"
            fill="url(#paint4_linear_8436_239055)"
        />
        <path
            fill-rule="evenodd"
            clip-rule="evenodd"
            d="M214.69 138.389C229.355 138.389 241.765 146.274 248.534 158.385C253.328 166.834 246.841 176.974 237.252 176.974H192.127C182.538 176.974 176.051 166.552 180.846 158.385C187.333 146.556 200.024 138.389 214.69 138.389ZM214.409 99.5234C223.287 99.5234 230.485 106.711 230.485 115.577C230.485 124.443 223.287 131.631 214.409 131.631C205.53 131.631 198.333 124.443 198.333 115.577C198.334 106.711 205.53 99.5235 214.409 99.5234Z"
            fill="url(#paint5_linear_8436_239055)"
        />
        <g filter="url(#filter0_d_8436_239055)">
            <path
                d="M261.608 131.911C271.925 131.911 280.288 123.495 280.288 113.113C280.288 102.731 271.925 94.3145 261.608 94.3145C251.292 94.3145 242.929 102.731 242.929 113.113C242.929 123.495 251.292 131.911 261.608 131.911Z"
                fill="url(#paint6_linear_8436_239055)"
            />
            <path
                d="M235.718 185.007C224.576 185.007 217.039 172.804 222.61 163.24C230.147 149.389 244.894 139.824 261.935 139.824C278.976 139.824 293.395 149.059 301.26 163.24C306.831 173.134 299.294 185.007 288.152 185.007H235.718Z"
                fill="url(#paint7_linear_8436_239055)"
            />
        </g>
        <path
            d="M190.229 101.673L185.183 99.8118L182.861 98.953L182.001 96.6342L180.138 91.5957L178.274 96.6342L177.414 98.953L175.092 99.8118L170.047 101.673L175.092 103.533L177.414 104.392L178.274 106.711L180.138 111.75L182.001 106.711L182.861 104.392L185.183 103.533L190.229 101.673Z"
            fill="url(#paint8_linear_8436_239055)"
            fill-opacity="0.8"
        />
        <path
            d="M342.228 129.583L339.705 128.653L338.544 128.224L338.114 127.064L337.182 124.545L336.25 127.064L335.82 128.224L334.659 128.653L332.137 129.583L334.659 130.514L335.82 130.943L336.25 132.103L337.182 134.622L338.114 132.103L338.544 130.943L339.705 130.514L342.228 129.583Z"
            fill="url(#paint9_linear_8436_239055)"
            fill-opacity="0.8"
        />
    </g>
    <defs>
        <filter
            id="filter0_d_8436_239055"
            x="204.73"
            y="82.3145"
            width="114.408"
            height="122.691"
            filterUnits="userSpaceOnUse"
            color-interpolation-filters="sRGB"
        >
            <feFlood flood-opacity="0" result="BackgroundImageFix" />
            <feColorMatrix
                in="SourceAlpha"
                type="matrix"
                values="0 0 0 0 0 0 0 0 0 0 0 0 0 0 0 0 0 0 127 0"
                result="hardAlpha"
            />
            <feOffset dy="4" />
            <feGaussianBlur stdDeviation="8" />
            <feComposite in2="hardAlpha" operator="out" />
            <feColorMatrix type="matrix" values="0 0 0 0 0.32317 0 0 0 0 0.155642 0 0 0 0 0.679167 0 0 0 0.3 0" />
            <feBlend mode="normal" in2="BackgroundImageFix" result="effect1_dropShadow_8436_239055" />
            <feBlend mode="normal" in="SourceGraphic" in2="effect1_dropShadow_8436_239055" result="shape" />
        </filter>
        <linearGradient
            id="paint0_linear_8436_239055"
            x1="202.752"
            y1="-6.04314e-06"
            x2="202.752"
            y2="200"
            gradientUnits="userSpaceOnUse"
        >
            <stop stop-color="#EEBEFF" />
            <stop offset="1" stop-color="#B383FF" />
        </linearGradient>
        <linearGradient
            id="paint1_linear_8436_239055"
            x1="215.922"
            y1="24.1184"
            x2="185.463"
            y2="143.606"
            gradientUnits="userSpaceOnUse"
        >
            <stop stop-color="#6D4AFF" />
            <stop offset="1" stop-color="#B255FD" />
        </linearGradient>
        <linearGradient
            id="paint2_linear_8436_239055"
            x1="103.235"
            y1="25.6224"
            x2="125.576"
            y2="186.376"
            gradientUnits="userSpaceOnUse"
        >
            <stop stop-color="#8C89FF" />
            <stop offset="1" stop-color="#6D4AFF" />
        </linearGradient>
        <linearGradient
            id="paint3_linear_8436_239055"
            x1="141.349"
            y1="43.0408"
            x2="160.593"
            y2="181.512"
            gradientUnits="userSpaceOnUse"
        >
            <stop stop-color="#735EFF" />
            <stop offset="1" stop-color="#5339B5" />
        </linearGradient>
        <linearGradient
            id="paint4_linear_8436_239055"
            x1="308.229"
            y1="99.5234"
            x2="308.229"
            y2="176.756"
            gradientUnits="userSpaceOnUse"
        >
            <stop stop-color="#F9E6FF" />
            <stop offset="1" stop-color="#CEC5F6" />
        </linearGradient>
        <linearGradient
            id="paint5_linear_8436_239055"
            x1="214.89"
            y1="99.5234"
            x2="214.89"
            y2="176.756"
            gradientUnits="userSpaceOnUse"
        >
            <stop stop-color="#F9E6FF" />
            <stop offset="1" stop-color="#CEC5F6" />
        </linearGradient>
        <linearGradient
            id="paint6_linear_8436_239055"
            x1="262.167"
            y1="94.3145"
            x2="262.167"
            y2="184.752"
            gradientUnits="userSpaceOnUse"
        >
            <stop stop-color="#FEFAFF" />
            <stop offset="1" stop-color="#DBD2FF" />
        </linearGradient>
        <linearGradient
            id="paint7_linear_8436_239055"
            x1="262.167"
            y1="94.3145"
            x2="262.167"
            y2="184.752"
            gradientUnits="userSpaceOnUse"
        >
            <stop stop-color="#FEFAFF" />
            <stop offset="1" stop-color="#DBD2FF" />
        </linearGradient>
        <linearGradient
            id="paint8_linear_8436_239055"
            x1="180.195"
            y1="91.5957"
            x2="180.195"
            y2="111.693"
            gradientUnits="userSpaceOnUse"
        >
            <stop stop-color="#F9E6FF" />
            <stop offset="1" stop-color="#CEC5F6" />
        </linearGradient>
        <linearGradient
            id="paint9_linear_8436_239055"
            x1="337.211"
            y1="124.545"
            x2="337.211"
            y2="134.594"
            gradientUnits="userSpaceOnUse"
        >
            <stop stop-color="#F9E6FF" />
            <stop offset="1" stop-color="#CEC5F6" />
        </linearGradient>
        <clipPath id="clip0_8436_239055">
            <rect width="384" height="200" rx="16" fill="white" />
        </clipPath>
    </defs>
</svg>
